<svg width="260" height="566" viewBox="0 0 260 566" fill="none" xmlns="http://www.w3.org/2000/svg">
<g clip-path="url(#clip0_119_29)">
<path d="M230.667 0H29.3333C13.133 0 0 13.2108 0 29.5071V536.493C0 552.789 13.133 566 29.3333 566H230.667C246.867 566 260 552.789 260 536.493V29.5071C260 13.2108 246.867 0 230.667 0Z" fill="#E6E6E6"/>
<path d="M33.0225 242.337V250.14H31.8482V243.517H31.8028L29.9468 244.737V243.609L31.8824 242.337H33.0225ZM37.8218 250.269C37.2232 250.267 36.7119 250.108 36.2876 249.793C35.8634 249.478 35.5389 249.02 35.3142 248.418C35.0894 247.815 34.977 247.091 34.977 246.242C34.977 245.396 35.0894 244.673 35.3142 244.074C35.5414 243.475 35.8672 243.017 36.2914 242.702C36.7182 242.387 37.2283 242.23 37.8218 242.23C38.4152 242.23 38.924 242.388 39.3482 242.706C39.7725 243.021 40.097 243.478 40.3218 244.077C40.549 244.674 40.6626 245.396 40.6626 246.242C40.6626 247.093 40.5503 247.819 40.3255 248.422C40.1008 249.021 39.7763 249.479 39.352 249.797C38.9278 250.112 38.4177 250.269 37.8218 250.269ZM37.8218 249.252C38.347 249.252 38.7574 248.994 39.0528 248.479C39.3508 247.963 39.4998 247.217 39.4998 246.242C39.4998 245.594 39.4316 245.046 39.2952 244.6C39.1614 244.15 38.9682 243.81 38.7157 243.579C38.4657 243.344 38.1677 243.228 37.8218 243.228C37.299 243.228 36.8886 243.487 36.5907 244.005C36.2927 244.523 36.1424 245.269 36.1399 246.242C36.1399 246.892 36.2068 247.442 36.3407 247.892C36.477 248.339 36.6702 248.678 36.9202 248.909C37.1702 249.138 37.4707 249.252 37.8218 249.252ZM42.7678 249.172C42.5607 249.172 42.3826 249.098 42.2337 248.951C42.0847 248.801 42.0102 248.621 42.0102 248.41C42.0102 248.202 42.0847 248.024 42.2337 247.876C42.3826 247.727 42.5607 247.652 42.7678 247.652C42.9748 247.652 43.1528 247.727 43.3018 247.876C43.4508 248.024 43.5254 248.202 43.5254 248.41C43.5254 248.55 43.49 248.678 43.4193 248.795C43.3511 248.909 43.2602 249 43.1466 249.069C43.0329 249.138 42.9066 249.172 42.7678 249.172ZM42.7678 245.262C42.5607 245.262 42.3826 245.189 42.2337 245.042C42.0847 244.892 42.0102 244.711 42.0102 244.501C42.0102 244.292 42.0847 244.114 42.2337 243.967C42.3826 243.817 42.5607 243.742 42.7678 243.742C42.9748 243.742 43.1528 243.817 43.3018 243.967C43.4508 244.114 43.5254 244.292 43.5254 244.501C43.5254 244.64 43.49 244.769 43.4193 244.886C43.3511 245 43.2602 245.091 43.1466 245.16C43.0329 245.228 42.9066 245.262 42.7678 245.262ZM47.728 250.269C47.1295 250.267 46.6182 250.108 46.1939 249.793C45.7696 249.478 45.4452 249.02 45.2204 248.418C44.9956 247.815 44.8833 247.091 44.8833 246.242C44.8833 245.396 44.9956 244.673 45.2204 244.074C45.4477 243.475 45.7734 243.017 46.1977 242.702C46.6244 242.387 47.1346 242.23 47.728 242.23C48.3214 242.23 48.8302 242.388 49.2545 242.706C49.6788 243.021 50.0032 243.478 50.228 244.077C50.4552 244.674 50.5689 245.396 50.5689 246.242C50.5689 247.093 50.4565 247.819 50.2318 248.422C50.007 249.021 49.6825 249.479 49.2583 249.797C48.834 250.112 48.324 250.269 47.728 250.269ZM47.728 249.252C48.2532 249.252 48.6636 248.994 48.959 248.479C49.257 247.963 49.406 247.217 49.406 246.242C49.406 245.594 49.3378 245.046 49.2015 244.6C49.0676 244.15 48.8744 243.81 48.6219 243.579C48.3719 243.344 48.074 243.228 47.728 243.228C47.2052 243.228 46.7949 243.487 46.4969 244.005C46.199 244.523 46.0487 245.269 46.0462 246.242C46.0462 246.892 46.1131 247.442 46.2469 247.892C46.3833 248.339 46.5765 248.678 46.8265 248.909C47.0765 249.138 47.377 249.252 47.728 249.252ZM54.6134 250.269C54.0149 250.267 53.5036 250.108 53.0793 249.793C52.6551 249.478 52.3306 249.02 52.1058 248.418C51.8811 247.815 51.7687 247.091 51.7687 246.242C51.7687 245.396 51.8811 244.673 52.1058 244.074C52.3331 243.475 52.6588 243.017 53.0831 242.702C53.5099 242.387 54.02 242.23 54.6134 242.23C55.2068 242.23 55.7157 242.388 56.1399 242.706C56.5642 243.021 56.8886 243.478 57.1134 244.077C57.3407 244.674 57.4543 245.396 57.4543 246.242C57.4543 247.093 57.342 247.819 57.1172 248.422C56.8924 249.021 56.568 249.479 56.1437 249.797C55.7194 250.112 55.2094 250.269 54.6134 250.269ZM54.6134 249.252C55.1386 249.252 55.549 248.994 55.8444 248.479C56.1424 247.963 56.2914 247.217 56.2914 246.242C56.2914 245.594 56.2232 245.046 56.0869 244.6C55.953 244.15 55.7599 243.81 55.5074 243.579C55.2574 243.344 54.9594 243.228 54.6134 243.228C54.0907 243.228 53.6803 243.487 53.3824 244.005C53.0844 244.523 52.9341 245.269 52.9316 246.242C52.9316 246.892 52.9985 247.442 53.1324 247.892C53.2687 248.339 53.4619 248.678 53.7119 248.909C53.9619 249.138 54.2624 249.252 54.6134 249.252ZM59.5594 250.14H58.317L61.1087 242.337H62.461L65.2526 250.14H64.0102L61.817 243.754H61.7564L59.5594 250.14ZM59.7678 247.084H63.798V248.074H59.7678V247.084ZM66.3729 242.337H67.7931L70.2631 248.402H70.3538L72.8238 242.337H74.2438V250.14H73.1304V244.493H73.0584L70.7704 250.128H69.8464L67.5584 244.489H67.4864V250.14H66.3729V242.337Z" fill="#2A3034"/>
<path d="M89.5186 249.469V241.666H90.6892V248.456H94.2046V249.469H89.5186ZM97.8992 249.587C97.3539 249.587 96.8779 249.462 96.4712 249.21C96.0652 248.959 95.7492 248.607 95.5246 248.155C95.2999 247.703 95.1872 247.174 95.1872 246.569C95.1872 245.963 95.2999 245.431 95.5246 244.977C95.7492 244.522 96.0652 244.169 96.4712 243.918C96.8779 243.666 97.3539 243.54 97.8992 243.54C98.4452 243.54 98.9212 243.666 99.3272 243.918C99.7339 244.169 100.05 244.522 100.275 244.977C100.499 245.431 100.612 245.963 100.612 246.569C100.612 247.174 100.499 247.703 100.275 248.155C100.05 248.607 99.7339 248.959 99.3272 249.21C98.9212 249.462 98.4452 249.587 97.8992 249.587ZM97.9032 248.631C98.2566 248.631 98.5499 248.537 98.7819 248.349C99.0146 248.161 99.1859 247.911 99.2972 247.598C99.4106 247.286 99.4679 246.942 99.4679 246.565C99.4679 246.193 99.4106 245.849 99.2972 245.537C99.1859 245.222 99.0146 244.969 98.7819 244.779C98.5499 244.588 98.2566 244.493 97.9032 244.493C97.5472 244.493 97.2519 244.588 97.0172 244.779C96.7846 244.969 96.6119 245.222 96.4979 245.537C96.3866 245.849 96.3312 246.193 96.3312 246.565C96.3312 246.942 96.3866 247.286 96.4979 247.598C96.6119 247.911 96.7846 248.161 97.0172 248.349C97.2519 248.537 97.5472 248.631 97.9032 248.631ZM106.236 245.045L105.209 245.228C105.167 245.096 105.098 244.971 105.005 244.851C104.914 244.732 104.79 244.634 104.633 244.558C104.477 244.481 104.281 244.444 104.047 244.444C103.726 244.444 103.458 244.516 103.243 244.661C103.029 244.803 102.921 244.987 102.921 245.213C102.921 245.409 102.993 245.566 103.137 245.686C103.281 245.805 103.513 245.903 103.834 245.979L104.759 246.193C105.294 246.317 105.693 246.508 105.955 246.768C106.218 247.027 106.349 247.363 106.349 247.777C106.349 248.128 106.249 248.44 106.047 248.715C105.847 248.986 105.568 249.2 105.209 249.355C104.853 249.51 104.441 249.587 103.971 249.587C103.319 249.587 102.787 249.448 102.376 249.168C101.964 248.886 101.712 248.486 101.619 247.968L102.713 247.8C102.781 248.087 102.921 248.304 103.133 248.452C103.345 248.597 103.622 248.669 103.963 248.669C104.334 248.669 104.631 248.591 104.853 248.436C105.075 248.279 105.187 248.087 105.187 247.861C105.187 247.679 105.119 247.524 104.982 247.4C104.848 247.276 104.643 247.182 104.365 247.118L103.38 246.901C102.837 246.777 102.435 246.578 102.175 246.307C101.917 246.035 101.789 245.691 101.789 245.274C101.789 244.928 101.885 244.626 102.077 244.367C102.269 244.108 102.534 243.906 102.872 243.762C103.211 243.614 103.598 243.54 104.035 243.54C104.664 243.54 105.159 243.678 105.52 243.952C105.881 244.224 106.119 244.588 106.236 245.045ZM111.164 249.469H109.921L112.713 241.666H114.065L116.857 249.469H115.615L113.421 243.083H113.361L111.164 249.469ZM111.372 246.413H115.403V247.404H111.372V246.413ZM119.019 245.994V249.469H117.887V243.617H118.973V244.569H119.045C119.179 244.259 119.389 244.01 119.674 243.823C119.962 243.634 120.325 243.54 120.761 243.54C121.158 243.54 121.505 243.624 121.803 243.792C122.101 243.957 122.332 244.203 122.496 244.531C122.661 244.859 122.743 245.264 122.743 245.747V249.469H121.61V245.883C121.61 245.46 121.5 245.128 121.28 244.889C121.061 244.648 120.759 244.527 120.375 244.527C120.113 244.527 119.879 244.584 119.674 244.698C119.472 244.813 119.312 244.981 119.193 245.201C119.077 245.42 119.019 245.684 119.019 245.994ZM126.701 251.786C126.239 251.786 125.841 251.725 125.507 251.603C125.177 251.481 124.907 251.319 124.697 251.119C124.487 250.918 124.331 250.698 124.227 250.46L125.201 250.056C125.269 250.168 125.36 250.286 125.473 250.41C125.589 250.537 125.746 250.645 125.943 250.734C126.143 250.823 126.399 250.867 126.712 250.867C127.141 250.867 127.496 250.762 127.777 250.552C128.057 250.343 128.197 250.01 128.197 249.553V248.402H128.125C128.057 248.527 127.959 248.665 127.829 248.817C127.703 248.97 127.529 249.102 127.307 249.214C127.085 249.326 126.795 249.381 126.439 249.381C125.98 249.381 125.565 249.273 125.197 249.057C124.831 248.839 124.541 248.518 124.326 248.094C124.113 247.667 124.007 247.142 124.007 246.52C124.007 245.897 124.113 245.364 124.322 244.92C124.534 244.475 124.825 244.134 125.193 243.898C125.562 243.66 125.98 243.54 126.447 243.54C126.808 243.54 127.1 243.601 127.322 243.723C127.544 243.843 127.717 243.982 127.841 244.142C127.967 244.302 128.065 244.444 128.133 244.566H128.216V243.617H129.326V249.599C129.326 250.102 129.209 250.515 128.977 250.837C128.745 251.16 128.431 251.399 128.034 251.553C127.64 251.708 127.196 251.786 126.701 251.786ZM126.689 248.436C127.015 248.436 127.291 248.361 127.515 248.208C127.743 248.053 127.914 247.832 128.03 247.545C128.149 247.255 128.208 246.909 128.208 246.505C128.208 246.111 128.15 245.764 128.034 245.464C127.918 245.164 127.747 244.931 127.523 244.763C127.298 244.593 127.02 244.508 126.689 244.508C126.349 244.508 126.065 244.597 125.837 244.775C125.61 244.95 125.438 245.189 125.322 245.491C125.209 245.794 125.151 246.132 125.151 246.505C125.151 246.889 125.209 247.225 125.326 247.514C125.442 247.804 125.613 248.03 125.841 248.193C126.071 248.355 126.353 248.436 126.689 248.436ZM133.352 249.587C132.779 249.587 132.285 249.464 131.871 249.218C131.459 248.969 131.141 248.62 130.917 248.17C130.695 247.718 130.583 247.188 130.583 246.581C130.583 245.981 130.695 245.453 130.917 244.996C131.141 244.539 131.455 244.182 131.856 243.925C132.26 243.668 132.732 243.54 133.273 243.54C133.601 243.54 133.919 243.595 134.227 243.704C134.535 243.813 134.812 243.985 135.057 244.218C135.302 244.452 135.495 244.756 135.637 245.129C135.778 245.5 135.849 245.951 135.849 246.482V246.886H131.223V246.032H134.739C134.739 245.733 134.678 245.467 134.557 245.236C134.435 245.002 134.265 244.818 134.045 244.684C133.828 244.549 133.573 244.481 133.28 244.481C132.962 244.481 132.685 244.56 132.447 244.718C132.212 244.873 132.03 245.076 131.901 245.327C131.775 245.576 131.712 245.847 131.712 246.139V246.805C131.712 247.197 131.78 247.53 131.917 247.804C132.055 248.078 132.249 248.288 132.496 248.433C132.744 248.575 133.033 248.646 133.363 248.646C133.578 248.646 133.774 248.615 133.951 248.554C134.127 248.491 134.28 248.398 134.409 248.273C134.538 248.148 134.637 247.994 134.705 247.811L135.777 248.006C135.691 248.324 135.537 248.601 135.315 248.84C135.095 249.077 134.818 249.261 134.485 249.393C134.154 249.523 133.777 249.587 133.352 249.587ZM138.238 241.666V249.469H137.105V241.666H138.238ZM142.269 249.587C141.696 249.587 141.202 249.464 140.788 249.218C140.376 248.969 140.058 248.62 139.833 248.17C139.611 247.718 139.5 247.188 139.5 246.581C139.5 245.981 139.611 245.453 139.833 244.996C140.058 244.539 140.371 244.182 140.773 243.925C141.177 243.668 141.649 243.54 142.189 243.54C142.518 243.54 142.836 243.595 143.144 243.704C143.452 243.813 143.729 243.985 143.973 244.218C144.219 244.452 144.411 244.756 144.553 245.129C144.695 245.5 144.765 245.951 144.765 246.482V246.886H140.14V246.032H143.655C143.655 245.733 143.595 245.467 143.473 245.236C143.352 245.002 143.182 244.818 142.962 244.684C142.745 244.549 142.49 244.481 142.197 244.481C141.879 244.481 141.601 244.56 141.363 244.718C141.129 244.873 140.947 245.076 140.818 245.327C140.692 245.576 140.629 245.847 140.629 246.139V246.805C140.629 247.197 140.697 247.53 140.833 247.804C140.972 248.078 141.165 248.288 141.413 248.433C141.661 248.575 141.949 248.646 142.28 248.646C142.495 248.646 142.691 248.615 142.867 248.554C143.044 248.491 143.197 248.398 143.326 248.273C143.455 248.148 143.553 247.994 143.621 247.811L144.693 248.006C144.607 248.324 144.453 248.601 144.231 248.84C144.011 249.077 143.735 249.261 143.401 249.393C143.071 249.523 142.693 249.587 142.269 249.587ZM150.381 245.045L149.355 245.228C149.312 245.096 149.244 244.971 149.151 244.851C149.059 244.732 148.936 244.634 148.779 244.558C148.623 244.481 148.427 244.444 148.192 244.444C147.871 244.444 147.604 244.516 147.389 244.661C147.175 244.803 147.067 244.987 147.067 245.213C147.067 245.409 147.139 245.566 147.283 245.686C147.427 245.805 147.659 245.903 147.98 245.979L148.905 246.193C149.44 246.317 149.839 246.508 150.101 246.768C150.364 247.027 150.495 247.363 150.495 247.777C150.495 248.128 150.394 248.44 150.192 248.715C149.993 248.986 149.714 249.2 149.355 249.355C148.999 249.51 148.586 249.587 148.117 249.587C147.465 249.587 146.933 249.448 146.522 249.168C146.11 248.886 145.857 248.486 145.764 247.968L146.859 247.8C146.927 248.087 147.067 248.304 147.279 248.452C147.491 248.597 147.768 248.669 148.109 248.669C148.48 248.669 148.777 248.591 148.999 248.436C149.221 248.279 149.333 248.087 149.333 247.861C149.333 247.679 149.264 247.524 149.128 247.4C148.994 247.276 148.788 247.182 148.511 247.118L147.525 246.901C146.983 246.777 146.581 246.578 146.321 246.307C146.063 246.035 145.935 245.691 145.935 245.274C145.935 244.928 146.031 244.626 146.223 244.367C146.415 244.108 146.679 243.906 147.018 243.762C147.357 243.614 147.744 243.54 148.181 243.54C148.809 243.54 149.305 243.678 149.666 243.952C150.027 244.224 150.265 244.588 150.381 245.045Z" fill="#2A3034"/>
<path d="M32.7803 271.729C32.1817 271.726 31.6704 271.568 31.2461 271.253C30.8219 270.938 30.4974 270.48 30.2727 269.877C30.0479 269.275 29.9355 268.55 29.9355 267.702C29.9355 266.856 30.0479 266.133 30.2727 265.534C30.4999 264.934 30.8257 264.477 31.2499 264.162C31.6767 263.847 32.1868 263.69 32.7803 263.69C33.3737 263.69 33.8825 263.848 34.3067 264.166C34.731 264.48 35.0555 264.938 35.2803 265.537C35.5075 266.134 35.6211 266.856 35.6211 267.702C35.6211 268.552 35.5088 269.279 35.284 269.881C35.0593 270.48 34.7348 270.939 34.3105 271.257C33.8863 271.571 33.3762 271.729 32.7803 271.729ZM32.7803 270.712C33.3055 270.712 33.7159 270.454 34.0113 269.938C34.3093 269.423 34.4583 268.677 34.4583 267.702C34.4583 267.054 34.3901 266.506 34.2537 266.06C34.1199 265.61 33.9267 265.27 33.6742 265.038C33.4242 264.804 33.1262 264.687 32.7803 264.687C32.2575 264.687 31.8471 264.947 31.5492 265.465C31.2512 265.983 31.1009 266.729 31.0984 267.702C31.0984 268.352 31.1653 268.902 31.2992 269.352C31.4355 269.798 31.6287 270.138 31.8787 270.369C32.1287 270.598 32.4292 270.712 32.7803 270.712ZM36.9649 271.6V270.746L39.5899 268.01C39.8702 267.713 40.1013 267.452 40.2831 267.229C40.4674 267.003 40.6051 266.789 40.6959 266.585C40.7869 266.382 40.8323 266.166 40.8323 265.938C40.8323 265.678 40.7717 265.455 40.6505 265.267C40.5293 265.076 40.3639 264.93 40.1543 264.828C39.9447 264.724 39.7086 264.672 39.4459 264.672C39.1682 264.672 38.9257 264.73 38.7187 264.844C38.5116 264.958 38.3525 265.119 38.2414 265.328C38.1303 265.536 38.0747 265.78 38.0747 266.06H36.9573C36.9573 265.584 37.0659 265.169 37.2831 264.814C37.5003 264.457 37.7982 264.182 38.177 263.987C38.5558 263.788 38.9863 263.69 39.4687 263.69C39.9561 263.69 40.3853 263.787 40.7565 263.983C41.1303 264.176 41.4219 264.44 41.6315 264.775C41.8411 265.108 41.9459 265.484 41.9459 265.903C41.9459 266.193 41.8917 266.476 41.7831 266.753C41.677 267.03 41.4914 267.338 41.2263 267.678C40.9611 268.016 40.5924 268.427 40.1202 268.91L38.5785 270.533V270.59H42.0709V271.6H36.9649ZM44.2679 270.632C44.0609 270.632 43.8828 270.558 43.7339 270.411C43.5849 270.261 43.5103 270.081 43.5103 269.869C43.5103 269.661 43.5849 269.484 43.7339 269.336C43.8828 269.187 44.0609 269.112 44.2679 269.112C44.475 269.112 44.653 269.187 44.802 269.336C44.951 269.484 45.0255 269.661 45.0255 269.869C45.0255 270.01 44.9901 270.138 44.9195 270.254C44.8513 270.369 44.7603 270.46 44.6467 270.529C44.5331 270.598 44.4068 270.632 44.2679 270.632ZM44.2679 266.722C44.0609 266.722 43.8828 266.648 43.7339 266.502C43.5849 266.351 43.5103 266.171 43.5103 265.96C43.5103 265.752 43.5849 265.574 43.7339 265.427C43.8828 265.277 44.0609 265.202 44.2679 265.202C44.475 265.202 44.653 265.277 44.802 265.427C44.951 265.574 45.0255 265.752 45.0255 265.96C45.0255 266.1 44.9901 266.229 44.9195 266.345C44.8513 266.459 44.7603 266.551 44.6467 266.62C44.5331 266.688 44.4068 266.722 44.2679 266.722ZM49.2281 271.706C48.7079 271.706 48.2433 271.616 47.8342 271.436C47.4277 271.256 47.1057 271.005 46.8683 270.685C46.6335 270.362 46.5072 269.989 46.4895 269.565H47.6789C47.6941 269.796 47.7711 269.997 47.91 270.167C48.0514 270.335 48.2357 270.464 48.463 270.555C48.6903 270.647 48.9428 270.693 49.2206 270.693C49.5261 270.693 49.7963 270.639 50.0312 270.533C50.2685 270.426 50.4541 270.277 50.588 270.087C50.7219 269.893 50.7887 269.672 50.7887 269.42C50.7887 269.158 50.7219 268.928 50.588 268.731C50.4567 268.529 50.2635 268.372 50.0085 268.258C49.7559 268.144 49.4504 268.086 49.0918 268.086H48.4365V267.127H49.0918C49.3797 267.127 49.6322 267.074 49.8493 266.97C50.0691 266.866 50.2408 266.721 50.3645 266.536C50.4883 266.348 50.5501 266.128 50.5501 265.876C50.5501 265.635 50.4958 265.426 50.3873 265.247C50.2812 265.067 50.1297 264.926 49.9327 264.825C49.7383 264.723 49.5085 264.672 49.2433 264.672C48.9908 264.672 48.7547 264.72 48.535 264.814C48.3178 264.905 48.141 265.037 48.0047 265.21C47.8683 265.38 47.7951 265.584 47.785 265.823H46.6524C46.665 265.402 46.7887 265.031 47.0236 264.71C47.261 264.39 47.5741 264.14 47.963 263.96C48.3519 263.779 48.7837 263.69 49.2585 263.69C49.7559 263.69 50.1852 263.787 50.5463 263.983C50.91 264.176 51.1903 264.433 51.3873 264.756C51.5867 265.079 51.6852 265.432 51.6827 265.815C51.6852 266.253 51.564 266.624 51.3191 266.928C51.0767 267.233 50.7534 267.438 50.3493 267.542V267.603C50.8645 267.681 51.2635 267.887 51.5463 268.22C51.8317 268.552 51.9731 268.965 51.9706 269.458C51.9731 269.887 51.8544 270.272 51.6145 270.612C51.3771 270.953 51.0527 271.221 50.641 271.416C50.2294 271.61 49.7585 271.706 49.2281 271.706ZM56.1031 271.729C55.5047 271.726 54.9933 271.568 54.5691 271.253C54.1448 270.938 53.8203 270.48 53.5956 269.877C53.3708 269.275 53.2585 268.55 53.2585 267.702C53.2585 266.856 53.3708 266.133 53.5956 265.534C53.8229 264.934 54.1486 264.477 54.5729 264.162C54.9996 263.847 55.5097 263.69 56.1031 263.69C56.6966 263.69 57.2054 263.848 57.6297 264.166C58.0539 264.48 58.3784 264.938 58.6031 265.537C58.8304 266.134 58.9441 266.856 58.9441 267.702C58.9441 268.552 58.8317 269.279 58.6069 269.881C58.3822 270.48 58.0577 270.939 57.6335 271.257C57.2092 271.571 56.6991 271.729 56.1031 271.729ZM56.1031 270.712C56.6284 270.712 57.0387 270.454 57.3342 269.938C57.6322 269.423 57.7812 268.677 57.7812 267.702C57.7812 267.054 57.713 266.506 57.5767 266.06C57.4428 265.61 57.2496 265.27 56.9971 265.038C56.7471 264.804 56.4491 264.687 56.1031 264.687C55.5804 264.687 55.1701 264.947 54.8721 265.465C54.5741 265.983 54.4239 266.729 54.4213 267.702C54.4213 268.352 54.4883 268.902 54.6221 269.352C54.7585 269.798 54.9517 270.138 55.2017 270.369C55.4517 270.598 55.7521 270.712 56.1031 270.712ZM60.3939 271.6V263.796H63.159C63.7626 263.796 64.2626 263.906 64.659 264.128C65.0555 264.348 65.3522 264.651 65.5492 265.034C65.7461 265.415 65.8446 265.845 65.8446 266.322C65.8446 266.803 65.7449 267.234 65.5454 267.617C65.3484 267.999 65.0505 268.301 64.6515 268.525C64.255 268.745 63.7563 268.856 63.1553 268.856H61.2537V267.858H63.0492C63.4305 267.858 63.7398 267.792 63.9772 267.66C64.2146 267.525 64.3888 267.342 64.4999 267.111C64.6111 266.88 64.6666 266.617 64.6666 266.322C64.6666 266.027 64.6111 265.766 64.4999 265.537C64.3888 265.308 64.2133 265.129 63.9734 265C63.7361 264.871 63.4229 264.806 63.034 264.806H61.5644V271.6H60.3939ZM67.2166 263.796H68.6373L71.1073 269.862H71.1979L73.6673 263.796H75.088V271.6H73.9746V265.953H73.9026L71.6146 271.588H70.6906L68.4026 265.949H68.3306V271.6H67.2166V263.796Z" fill="#2A3034"/>
<path d="M89.5186 270.929V263.126H90.6892V269.916H94.2046V270.929H89.5186ZM97.1419 271.058C96.7732 271.058 96.4399 270.99 96.1419 270.852C95.8439 270.713 95.6079 270.511 95.4339 270.247C95.2619 269.983 95.1759 269.659 95.1759 269.275C95.1759 268.945 95.2392 268.673 95.3652 268.46C95.4919 268.246 95.6619 268.077 95.8766 267.953C96.0912 267.829 96.3312 267.735 96.5966 267.671C96.8619 267.607 97.1319 267.559 97.4072 267.526C97.7559 267.486 98.0386 267.452 98.2559 267.427C98.4726 267.399 98.6306 267.355 98.7292 267.294C98.8272 267.233 98.8766 267.134 98.8766 266.996V266.97C98.8766 266.637 98.7832 266.379 98.5966 266.196C98.4119 266.013 98.1366 265.922 97.7706 265.922C97.3892 265.922 97.0892 266.007 96.8692 266.178C96.6519 266.345 96.5019 266.532 96.4186 266.738L95.3539 266.493C95.4806 266.138 95.6645 265.851 95.9072 265.632C96.1519 265.412 96.4339 265.251 96.7519 265.152C97.0699 265.051 97.4046 265 97.7559 265C97.9879 265 98.2339 265.028 98.4939 265.084C98.7566 265.137 99.0019 265.236 99.2292 265.381C99.4586 265.526 99.6472 265.733 99.7932 266.002C99.9399 266.269 100.013 266.616 100.013 267.043V270.929H98.9072V270.129H98.8619C98.7886 270.276 98.6786 270.421 98.5319 270.563C98.3859 270.706 98.1972 270.824 97.9679 270.918C97.7379 271.011 97.4626 271.058 97.1419 271.058ZM97.3879 270.144C97.7012 270.144 97.9692 270.082 98.1912 269.957C98.4159 269.833 98.5866 269.67 98.7026 269.47C98.8212 269.266 98.8806 269.049 98.8806 268.818V268.063C98.8399 268.104 98.7619 268.143 98.6459 268.178C98.5319 268.211 98.4019 268.24 98.2559 268.265C98.1092 268.288 97.9666 268.31 97.8272 268.33C97.6886 268.348 97.5726 268.363 97.4792 268.376C97.2592 268.404 97.0586 268.451 96.8766 268.517C96.6972 268.583 96.5532 268.678 96.4452 268.803C96.3392 268.924 96.2859 269.087 96.2859 269.291C96.2859 269.572 96.3892 269.786 96.5966 269.93C96.8032 270.073 97.0672 270.144 97.3879 270.144ZM105.881 266.505L104.855 266.688C104.812 266.556 104.744 266.43 104.651 266.311C104.559 266.192 104.436 266.094 104.279 266.017C104.123 265.941 103.927 265.903 103.692 265.903C103.371 265.903 103.104 265.976 102.889 266.121C102.675 266.263 102.567 266.447 102.567 266.673C102.567 266.868 102.639 267.026 102.783 267.145C102.927 267.265 103.159 267.363 103.48 267.438L104.405 267.652C104.94 267.776 105.339 267.968 105.601 268.228C105.864 268.487 105.995 268.823 105.995 269.237C105.995 269.588 105.894 269.9 105.692 270.174C105.493 270.446 105.214 270.659 104.855 270.815C104.499 270.97 104.086 271.047 103.617 271.047C102.965 271.047 102.433 270.907 102.022 270.628C101.61 270.346 101.357 269.946 101.264 269.427L102.359 269.26C102.427 269.547 102.567 269.764 102.779 269.912C102.991 270.056 103.268 270.129 103.609 270.129C103.98 270.129 104.277 270.051 104.499 269.896C104.721 269.739 104.833 269.547 104.833 269.321C104.833 269.138 104.764 268.984 104.628 268.86C104.494 268.735 104.288 268.641 104.011 268.578L103.025 268.36C102.483 268.236 102.081 268.038 101.821 267.766C101.563 267.495 101.435 267.151 101.435 266.734C101.435 266.388 101.531 266.086 101.723 265.827C101.915 265.568 102.179 265.366 102.518 265.221C102.857 265.074 103.244 265 103.681 265C104.309 265 104.805 265.137 105.166 265.412C105.527 265.683 105.765 266.048 105.881 266.505ZM110.833 263.126L112.991 269.481H113.079L115.238 263.126H116.503L113.711 270.929H112.359L109.567 263.126H110.833ZM119.457 271.047C118.883 271.047 118.389 270.924 117.975 270.677C117.564 270.429 117.245 270.079 117.021 269.629C116.799 269.177 116.687 268.647 116.687 268.041C116.687 267.441 116.799 266.913 117.021 266.456C117.245 265.999 117.559 265.642 117.96 265.385C118.364 265.128 118.837 265 119.377 265C119.705 265 120.023 265.055 120.331 265.164C120.639 265.273 120.916 265.445 121.161 265.678C121.406 265.912 121.599 266.216 121.741 266.589C121.882 266.96 121.953 267.411 121.953 267.941V268.346H117.327V267.492H120.843C120.843 267.192 120.782 266.927 120.661 266.696C120.54 266.462 120.369 266.278 120.149 266.143C119.933 266.009 119.677 265.941 119.385 265.941C119.066 265.941 118.789 266.02 118.551 266.178C118.316 266.333 118.135 266.536 118.006 266.787C117.879 267.036 117.816 267.306 117.816 267.599V268.265C117.816 268.657 117.885 268.989 118.021 269.264C118.16 269.538 118.353 269.748 118.601 269.893C118.848 270.035 119.137 270.106 119.468 270.106C119.683 270.106 119.878 270.075 120.055 270.014C120.232 269.951 120.385 269.857 120.513 269.733C120.642 269.608 120.741 269.454 120.809 269.271L121.881 269.466C121.795 269.784 121.641 270.061 121.419 270.3C121.199 270.537 120.923 270.72 120.589 270.852C120.258 270.983 119.881 271.047 119.457 271.047ZM125.649 273.246C125.187 273.246 124.789 273.185 124.455 273.063C124.125 272.941 123.855 272.779 123.645 272.579C123.435 272.378 123.279 272.158 123.175 271.919L124.149 271.516C124.217 271.628 124.308 271.746 124.421 271.87C124.537 271.997 124.694 272.105 124.891 272.194C125.091 272.283 125.347 272.327 125.66 272.327C126.089 272.327 126.444 272.222 126.725 272.011C127.005 271.803 127.145 271.47 127.145 271.013V269.862H127.073C127.005 269.987 126.906 270.125 126.777 270.277C126.651 270.43 126.477 270.562 126.255 270.673C126.033 270.785 125.743 270.841 125.387 270.841C124.928 270.841 124.513 270.733 124.145 270.517C123.779 270.299 123.488 269.977 123.274 269.553C123.061 269.126 122.955 268.602 122.955 267.98C122.955 267.357 123.06 266.824 123.27 266.379C123.482 265.935 123.773 265.594 124.141 265.358C124.51 265.119 124.928 265 125.395 265C125.756 265 126.047 265.061 126.27 265.183C126.492 265.302 126.665 265.442 126.789 265.602C126.915 265.762 127.012 265.903 127.081 266.025H127.164V265.076H128.274V271.058C128.274 271.561 128.157 271.974 127.925 272.297C127.693 272.62 127.379 272.858 126.982 273.013C126.588 273.168 126.143 273.246 125.649 273.246ZM125.637 269.896C125.963 269.896 126.238 269.82 126.463 269.667C126.691 269.513 126.862 269.292 126.978 269.005C127.097 268.715 127.156 268.368 127.156 267.965C127.156 267.57 127.098 267.224 126.982 266.924C126.866 266.624 126.695 266.391 126.471 266.223C126.246 266.053 125.968 265.968 125.637 265.968C125.297 265.968 125.012 266.057 124.785 266.235C124.558 266.41 124.386 266.648 124.27 266.951C124.156 267.253 124.099 267.591 124.099 267.965C124.099 268.348 124.157 268.684 124.274 268.974C124.39 269.264 124.561 269.49 124.789 269.653C125.019 269.815 125.301 269.896 125.637 269.896ZM131.486 271.058C131.117 271.058 130.784 270.99 130.486 270.852C130.188 270.713 129.952 270.511 129.777 270.247C129.606 269.983 129.52 269.659 129.52 269.275C129.52 268.945 129.583 268.673 129.709 268.46C129.835 268.246 130.006 268.077 130.221 267.953C130.435 267.829 130.675 267.735 130.941 267.671C131.205 267.607 131.476 267.559 131.751 267.526C132.099 267.486 132.382 267.452 132.599 267.427C132.817 267.399 132.975 267.355 133.073 267.294C133.171 267.233 133.221 267.134 133.221 266.996V266.97C133.221 266.637 133.127 266.379 132.941 266.196C132.756 266.013 132.481 265.922 132.115 265.922C131.733 265.922 131.433 266.007 131.213 266.178C130.996 266.345 130.845 266.532 130.762 266.738L129.698 266.493C129.824 266.138 130.009 265.851 130.251 265.632C130.496 265.412 130.777 265.251 131.095 265.152C131.414 265.051 131.749 265 132.099 265C132.332 265 132.578 265.028 132.838 265.084C133.101 265.137 133.345 265.236 133.573 265.381C133.803 265.526 133.991 265.733 134.137 266.002C134.284 266.269 134.357 266.616 134.357 267.043V270.929H133.251V270.129H133.205C133.132 270.276 133.023 270.421 132.876 270.563C132.729 270.706 132.541 270.824 132.311 270.918C132.082 271.011 131.807 271.058 131.486 271.058ZM131.732 270.144C132.045 270.144 132.313 270.082 132.535 269.957C132.76 269.833 132.93 269.67 133.047 269.47C133.165 269.266 133.225 269.049 133.225 268.818V268.063C133.184 268.104 133.106 268.143 132.989 268.178C132.876 268.211 132.746 268.24 132.599 268.265C132.453 268.288 132.31 268.31 132.171 268.33C132.033 268.348 131.917 268.363 131.823 268.376C131.603 268.404 131.403 268.451 131.221 268.517C131.041 268.583 130.897 268.678 130.789 268.803C130.683 268.924 130.63 269.087 130.63 269.291C130.63 269.572 130.733 269.786 130.941 269.93C131.147 270.073 131.411 270.144 131.732 270.144ZM140.225 266.505L139.199 266.688C139.156 266.556 139.088 266.43 138.994 266.311C138.903 266.192 138.78 266.094 138.623 266.017C138.467 265.941 138.271 265.903 138.036 265.903C137.715 265.903 137.447 265.976 137.233 266.121C137.018 266.263 136.911 266.447 136.911 266.673C136.911 266.868 136.983 267.026 137.127 267.145C137.271 267.265 137.503 267.363 137.824 267.438L138.748 267.652C139.283 267.776 139.683 267.968 139.945 268.228C140.208 268.487 140.339 268.823 140.339 269.237C140.339 269.588 140.238 269.9 140.036 270.174C139.837 270.446 139.557 270.659 139.199 270.815C138.843 270.97 138.43 271.047 137.96 271.047C137.309 271.047 136.777 270.907 136.365 270.628C135.954 270.346 135.701 269.946 135.608 269.427L136.703 269.26C136.771 269.547 136.911 269.764 137.123 269.912C137.335 270.056 137.612 270.129 137.953 270.129C138.324 270.129 138.621 270.051 138.843 269.896C139.065 269.739 139.176 269.547 139.176 269.321C139.176 269.138 139.108 268.984 138.971 268.86C138.838 268.735 138.632 268.641 138.354 268.578L137.369 268.36C136.827 268.236 136.425 268.038 136.165 267.766C135.907 267.495 135.779 267.151 135.779 266.734C135.779 266.388 135.875 266.086 136.066 265.827C136.258 265.568 136.523 265.366 136.862 265.221C137.2 265.074 137.588 265 138.025 265C138.653 265 139.149 265.137 139.509 265.412C139.871 265.683 140.109 266.048 140.225 266.505Z" fill="#2A3034"/>
<path d="M82.0002 248.799C83.4729 248.799 84.6668 247.598 84.6668 246.116C84.6668 244.635 83.4729 243.434 82.0002 243.434C80.5274 243.434 79.3335 244.635 79.3335 246.116C79.3335 247.598 80.5274 248.799 82.0002 248.799Z" stroke="#69BDFF" stroke-width="2"/>
<path d="M82.0002 270.258C83.4729 270.258 84.6668 269.057 84.6668 267.576C84.6668 266.094 83.4729 264.893 82.0002 264.893C80.5274 264.893 79.3335 266.094 79.3335 267.576C79.3335 269.057 80.5274 270.258 82.0002 270.258Z" stroke="#69BDFF" stroke-width="2"/>
<path d="M82.6668 249.469C82.6668 249.099 82.3684 248.799 82.0002 248.799C81.632 248.799 81.3335 249.099 81.3335 249.469V264.223C81.3335 264.593 81.632 264.893 82.0002 264.893C82.3684 264.893 82.6668 264.593 82.6668 264.223V249.469Z" fill="#69BDFF"/>
<path d="M212 283.671H48.0002C37.6908 283.671 29.3335 292.077 29.3335 302.448V326.59C29.3335 336.96 37.6908 345.367 48.0002 345.367H212C222.309 345.367 230.667 336.96 230.667 326.59V302.448C230.667 292.077 222.309 283.671 212 283.671Z" fill="#F5F2FF"/>
<path d="M212 354.756H48.0002C37.6908 354.756 29.3335 363.163 29.3335 373.533V385.604C29.3335 395.975 37.6908 404.382 48.0002 404.382H212C222.309 404.382 230.667 395.975 230.667 385.604V373.533C230.667 363.163 222.309 354.756 212 354.756Z" fill="#69BDFF"/>
<path d="M226.667 194.479H33.3335C23.3924 194.479 15.3335 202.585 15.3335 212.585V400.358C15.3335 410.358 23.3924 418.464 33.3335 418.464H226.667C236.608 418.464 244.667 410.358 244.667 400.358V212.585C244.667 202.585 236.608 194.479 226.667 194.479Z" stroke="white" stroke-width="2"/>
<path d="M23.3334 55.7564L19.0908 51.4887C18.8304 51.2268 18.8304 50.8022 19.0908 50.5403L23.3334 46.2725" stroke="#2A3034" stroke-width="3.5" stroke-linecap="round"/>
<path d="M42.108 131.29H39.983C39.9223 130.941 39.8106 130.633 39.6477 130.364C39.4848 130.091 39.2822 129.86 39.0398 129.67C38.7973 129.481 38.5208 129.339 38.2102 129.244C37.9034 129.146 37.572 129.097 37.2159 129.097C36.5833 129.097 36.0227 129.256 35.5341 129.574C35.0455 129.888 34.6629 130.35 34.3864 130.96C34.1098 131.566 33.9716 132.307 33.9716 133.182C33.9716 134.072 34.1098 134.822 34.3864 135.432C34.6667 136.038 35.0492 136.496 35.5341 136.807C36.0227 137.114 36.5814 137.267 37.2102 137.267C37.5587 137.267 37.8845 137.222 38.1875 137.131C38.4943 137.036 38.7689 136.898 39.0114 136.716C39.2576 136.534 39.464 136.311 39.6307 136.045C39.8011 135.78 39.9186 135.477 39.983 135.136L42.108 135.148C42.0284 135.701 41.8561 136.22 41.5909 136.705C41.3295 137.189 40.9867 137.617 40.5625 137.989C40.1383 138.356 39.642 138.644 39.0739 138.852C38.5057 139.057 37.875 139.159 37.1818 139.159C36.1591 139.159 35.2462 138.922 34.4432 138.449C33.6402 137.975 33.0076 137.292 32.5455 136.398C32.0833 135.504 31.8523 134.432 31.8523 133.182C31.8523 131.928 32.0852 130.856 32.5511 129.966C33.017 129.072 33.6515 128.388 34.4545 127.915C35.2576 127.441 36.1667 127.205 37.1818 127.205C37.8295 127.205 38.4318 127.295 38.9886 127.477C39.5455 127.659 40.0417 127.926 40.4773 128.278C40.9129 128.627 41.2708 129.055 41.5511 129.562C41.8352 130.066 42.0208 130.642 42.108 131.29ZM46.0043 133.886V139H43.9474V127.364H45.9588V131.756H46.0611C46.2656 131.263 46.5819 130.875 47.0099 130.591C47.4418 130.303 47.991 130.159 48.6577 130.159C49.2637 130.159 49.7921 130.286 50.2429 130.54C50.6937 130.794 51.0421 131.165 51.2884 131.653C51.5384 132.142 51.6634 132.739 51.6634 133.443V139H49.6065V133.761C49.6065 133.174 49.455 132.718 49.152 132.392C48.8527 132.062 48.4323 131.898 47.8906 131.898C47.527 131.898 47.2012 131.977 46.9134 132.136C46.6293 132.292 46.4058 132.517 46.2429 132.812C46.0838 133.108 46.0043 133.466 46.0043 133.886ZM57.6236 139.17C56.7486 139.17 55.9929 138.989 55.3565 138.625C54.724 138.258 54.2372 137.739 53.8963 137.068C53.5554 136.394 53.3849 135.6 53.3849 134.688C53.3849 133.79 53.5554 133.002 53.8963 132.324C54.241 131.642 54.7221 131.112 55.3395 130.733C55.9569 130.35 56.6823 130.159 57.5156 130.159C58.0535 130.159 58.5611 130.246 59.0384 130.42C59.5194 130.591 59.9437 130.856 60.3111 131.216C60.6823 131.576 60.974 132.034 61.1861 132.591C61.3982 133.144 61.5043 133.803 61.5043 134.568V135.199H54.3509V133.812H59.5327C59.5289 133.419 59.4437 133.068 59.277 132.761C59.1103 132.451 58.8774 132.206 58.5781 132.028C58.2827 131.85 57.938 131.761 57.544 131.761C57.1236 131.761 56.7543 131.864 56.4361 132.068C56.1179 132.269 55.8698 132.534 55.6918 132.864C55.5175 133.189 55.4285 133.547 55.4247 133.938V135.148C55.4247 135.655 55.5175 136.091 55.7031 136.455C55.8887 136.814 56.1482 137.091 56.4815 137.284C56.8149 137.473 57.205 137.568 57.652 137.568C57.9512 137.568 58.2221 137.527 58.4645 137.443C58.7069 137.356 58.9171 137.229 59.0952 137.062C59.2732 136.896 59.4077 136.689 59.4986 136.443L61.419 136.659C61.2978 137.167 61.0668 137.61 60.7259 137.989C60.3887 138.364 59.9569 138.655 59.4304 138.864C58.9039 139.068 58.3016 139.17 57.6236 139.17ZM67.0511 139.17C66.1799 139.17 65.4318 138.979 64.8068 138.597C64.1856 138.214 63.7064 137.686 63.3693 137.011C63.036 136.333 62.8693 135.553 62.8693 134.67C62.8693 133.784 63.0398 133.002 63.3807 132.324C63.7216 131.642 64.2027 131.112 64.8239 130.733C65.4489 130.35 66.1875 130.159 67.0398 130.159C67.7481 130.159 68.375 130.29 68.9205 130.551C69.4697 130.809 69.9072 131.174 70.233 131.648C70.5587 132.117 70.7443 132.667 70.7898 133.295H68.8239C68.7443 132.875 68.5549 132.525 68.2557 132.244C67.9602 131.96 67.5644 131.818 67.0682 131.818C66.6477 131.818 66.2784 131.932 65.9602 132.159C65.642 132.383 65.3939 132.705 65.2159 133.125C65.0417 133.545 64.9545 134.049 64.9545 134.636C64.9545 135.231 65.0417 135.742 65.2159 136.17C65.3902 136.595 65.6345 136.922 65.9489 137.153C66.267 137.381 66.6402 137.494 67.0682 137.494C67.3712 137.494 67.642 137.437 67.8807 137.324C68.1231 137.206 68.3258 137.038 68.4886 136.818C68.6515 136.598 68.7633 136.331 68.8239 136.017H70.7898C70.7405 136.634 70.5587 137.182 70.2443 137.659C69.9299 138.133 69.5019 138.504 68.9602 138.773C68.4186 139.038 67.7822 139.17 67.0511 139.17ZM74.3537 136.261L74.348 133.778H74.6776L77.8139 130.273H80.2173L76.3594 134.568H75.9332L74.3537 136.261ZM72.4787 139V127.364H74.5355V139H72.4787ZM77.956 139L75.1151 135.028L76.5014 133.58L80.4162 139H77.956ZM88.0682 139.176C87.5152 139.176 87.017 139.078 86.5739 138.881C86.1345 138.68 85.786 138.384 85.5284 137.994C85.2746 137.604 85.1477 137.123 85.1477 136.551C85.1477 136.059 85.2386 135.652 85.4205 135.33C85.6023 135.008 85.8504 134.75 86.1648 134.557C86.4792 134.364 86.8333 134.218 87.2273 134.119C87.625 134.017 88.036 133.943 88.4602 133.898C88.9716 133.845 89.3864 133.797 89.7045 133.756C90.0227 133.71 90.2538 133.642 90.3977 133.551C90.5455 133.456 90.6193 133.311 90.6193 133.114V133.08C90.6193 132.652 90.4924 132.32 90.2386 132.085C89.9848 131.85 89.6193 131.733 89.142 131.733C88.6383 131.733 88.2386 131.843 87.9432 132.062C87.6515 132.282 87.4545 132.542 87.3523 132.841L85.4318 132.568C85.5833 132.038 85.8333 131.595 86.1818 131.239C86.5303 130.879 86.9564 130.61 87.4602 130.432C87.964 130.25 88.5208 130.159 89.1307 130.159C89.5511 130.159 89.9697 130.208 90.3864 130.307C90.803 130.405 91.1837 130.568 91.5284 130.795C91.8731 131.019 92.1496 131.324 92.358 131.71C92.5701 132.097 92.6761 132.58 92.6761 133.159V139H90.6989V137.801H90.6307C90.5057 138.044 90.3295 138.271 90.1023 138.483C89.8788 138.691 89.5966 138.86 89.2557 138.989C88.9186 139.114 88.5227 139.176 88.0682 139.176ZM88.6023 137.665C89.0152 137.665 89.3731 137.583 89.6761 137.42C89.9792 137.254 90.2121 137.034 90.375 136.761C90.5417 136.489 90.625 136.191 90.625 135.869V134.841C90.5606 134.894 90.4508 134.943 90.2955 134.989C90.1439 135.034 89.9735 135.074 89.7841 135.108C89.5947 135.142 89.4072 135.172 89.2216 135.199C89.036 135.225 88.875 135.248 88.7386 135.267C88.4318 135.309 88.1572 135.377 87.9148 135.472C87.6723 135.566 87.4811 135.699 87.3409 135.869C87.2008 136.036 87.1307 136.252 87.1307 136.517C87.1307 136.896 87.2689 137.182 87.5455 137.375C87.822 137.568 88.1742 137.665 88.6023 137.665ZM96.8011 133.886V139H94.7443V130.273H96.7102V131.756H96.8125C97.0133 131.267 97.3333 130.879 97.7727 130.591C98.2159 130.303 98.7633 130.159 99.4148 130.159C100.017 130.159 100.542 130.288 100.989 130.545C101.439 130.803 101.788 131.176 102.034 131.665C102.284 132.153 102.407 132.746 102.403 133.443V139H100.347V133.761C100.347 133.178 100.195 132.722 99.892 132.392C99.5928 132.062 99.178 131.898 98.6477 131.898C98.2879 131.898 97.9678 131.977 97.6875 132.136C97.411 132.292 97.1932 132.517 97.0341 132.812C96.8788 133.108 96.8011 133.466 96.8011 133.886ZM107.733 139.153C107.047 139.153 106.434 138.977 105.892 138.625C105.35 138.273 104.922 137.761 104.608 137.091C104.294 136.42 104.136 135.606 104.136 134.648C104.136 133.678 104.295 132.86 104.614 132.193C104.936 131.523 105.369 131.017 105.915 130.676C106.46 130.331 107.068 130.159 107.739 130.159C108.25 130.159 108.67 130.246 109 130.42C109.33 130.591 109.591 130.797 109.784 131.04C109.977 131.278 110.127 131.504 110.233 131.716H110.318V127.364H112.381V139H110.358V137.625H110.233C110.127 137.837 109.973 138.062 109.773 138.301C109.572 138.536 109.307 138.737 108.977 138.903C108.648 139.07 108.233 139.153 107.733 139.153ZM108.307 137.466C108.742 137.466 109.114 137.348 109.42 137.114C109.727 136.875 109.96 136.544 110.119 136.119C110.278 135.695 110.358 135.201 110.358 134.636C110.358 134.072 110.278 133.581 110.119 133.165C109.964 132.748 109.733 132.424 109.426 132.193C109.123 131.962 108.75 131.847 108.307 131.847C107.848 131.847 107.466 131.966 107.159 132.205C106.852 132.443 106.621 132.773 106.466 133.193C106.311 133.614 106.233 134.095 106.233 134.636C106.233 135.182 106.311 135.669 106.466 136.097C106.625 136.521 106.858 136.856 107.165 137.102C107.475 137.345 107.856 137.466 108.307 137.466ZM118.632 139V127.364H120.689V131.716H120.774C120.88 131.504 121.03 131.278 121.223 131.04C121.416 130.797 121.678 130.591 122.007 130.42C122.337 130.246 122.757 130.159 123.268 130.159C123.943 130.159 124.551 130.331 125.092 130.676C125.638 131.017 126.07 131.523 126.388 132.193C126.71 132.86 126.871 133.678 126.871 134.648C126.871 135.606 126.714 136.42 126.399 137.091C126.085 137.761 125.657 138.273 125.115 138.625C124.573 138.977 123.96 139.153 123.274 139.153C122.774 139.153 122.359 139.07 122.03 138.903C121.7 138.737 121.435 138.536 121.234 138.301C121.037 138.062 120.884 137.837 120.774 137.625H120.655V139H118.632ZM120.649 134.636C120.649 135.201 120.729 135.695 120.888 136.119C121.051 136.544 121.284 136.875 121.587 137.114C121.893 137.348 122.265 137.466 122.7 137.466C123.155 137.466 123.536 137.345 123.842 137.102C124.149 136.856 124.38 136.521 124.536 136.097C124.695 135.669 124.774 135.182 124.774 134.636C124.774 134.095 124.696 133.614 124.541 133.193C124.386 132.773 124.155 132.443 123.848 132.205C123.541 131.966 123.159 131.847 122.7 131.847C122.261 131.847 121.888 131.962 121.581 132.193C121.274 132.424 121.041 132.748 120.882 133.165C120.727 133.581 120.649 134.072 120.649 134.636ZM132.426 139.17C131.574 139.17 130.835 138.983 130.21 138.608C129.585 138.233 129.1 137.708 128.756 137.034C128.415 136.36 128.244 135.572 128.244 134.67C128.244 133.769 128.415 132.979 128.756 132.301C129.1 131.623 129.585 131.097 130.21 130.722C130.835 130.347 131.574 130.159 132.426 130.159C133.278 130.159 134.017 130.347 134.642 130.722C135.267 131.097 135.75 131.623 136.091 132.301C136.436 132.979 136.608 133.769 136.608 134.67C136.608 135.572 136.436 136.36 136.091 137.034C135.75 137.708 135.267 138.233 134.642 138.608C134.017 138.983 133.278 139.17 132.426 139.17ZM132.438 137.523C132.9 137.523 133.286 137.396 133.597 137.142C133.907 136.884 134.138 136.54 134.29 136.108C134.445 135.676 134.523 135.195 134.523 134.665C134.523 134.131 134.445 133.648 134.29 133.216C134.138 132.78 133.907 132.434 133.597 132.176C133.286 131.919 132.9 131.79 132.438 131.79C131.964 131.79 131.57 131.919 131.256 132.176C130.945 132.434 130.712 132.78 130.557 133.216C130.405 133.648 130.33 134.131 130.33 134.665C130.33 135.195 130.405 135.676 130.557 136.108C130.712 136.54 130.945 136.884 131.256 137.142C131.57 137.396 131.964 137.523 132.438 137.523ZM142.161 139.17C141.308 139.17 140.57 138.983 139.945 138.608C139.32 138.233 138.835 137.708 138.49 137.034C138.149 136.36 137.979 135.572 137.979 134.67C137.979 133.769 138.149 132.979 138.49 132.301C138.835 131.623 139.32 131.097 139.945 130.722C140.57 130.347 141.308 130.159 142.161 130.159C143.013 130.159 143.751 130.347 144.376 130.722C145.001 131.097 145.484 131.623 145.825 132.301C146.17 132.979 146.342 133.769 146.342 134.67C146.342 135.572 146.17 136.36 145.825 137.034C145.484 137.708 145.001 138.233 144.376 138.608C143.751 138.983 143.013 139.17 142.161 139.17ZM142.172 137.523C142.634 137.523 143.02 137.396 143.331 137.142C143.642 136.884 143.873 136.54 144.024 136.108C144.179 135.676 144.257 135.195 144.257 134.665C144.257 134.131 144.179 133.648 144.024 133.216C143.873 132.78 143.642 132.434 143.331 132.176C143.02 131.919 142.634 131.79 142.172 131.79C141.698 131.79 141.304 131.919 140.99 132.176C140.679 132.434 140.446 132.78 140.291 133.216C140.14 133.648 140.064 134.131 140.064 134.665C140.064 135.195 140.14 135.676 140.291 136.108C140.446 136.54 140.679 136.884 140.99 137.142C141.304 137.396 141.698 137.523 142.172 137.523ZM149.963 136.261L149.957 133.778H150.287L153.423 130.273H155.827L151.969 134.568H151.543L149.963 136.261ZM148.088 139V127.364H150.145V139H148.088ZM153.565 139L150.724 135.028L152.111 133.58L156.026 139H153.565ZM162.445 142.273C162.164 142.273 161.905 142.25 161.666 142.205C161.431 142.163 161.244 142.114 161.104 142.057L161.581 140.455C161.88 140.542 162.147 140.583 162.382 140.58C162.617 140.576 162.823 140.502 163.001 140.358C163.183 140.218 163.337 139.983 163.462 139.653L163.638 139.182L160.473 130.273H162.655L164.666 136.864H164.757L166.774 130.273H168.962L165.467 140.057C165.304 140.519 165.089 140.915 164.82 141.244C164.551 141.578 164.221 141.831 163.831 142.006C163.445 142.184 162.982 142.273 162.445 142.273ZM173.895 139.17C173.043 139.17 172.304 138.983 171.679 138.608C171.054 138.233 170.569 137.708 170.224 137.034C169.884 136.36 169.713 135.572 169.713 134.67C169.713 133.769 169.884 132.979 170.224 132.301C170.569 131.623 171.054 131.097 171.679 130.722C172.304 130.347 173.043 130.159 173.895 130.159C174.747 130.159 175.486 130.347 176.111 130.722C176.736 131.097 177.219 131.623 177.56 132.301C177.904 132.979 178.077 133.769 178.077 134.67C178.077 135.572 177.904 136.36 177.56 137.034C177.219 137.708 176.736 138.233 176.111 138.608C175.486 138.983 174.747 139.17 173.895 139.17ZM173.906 137.523C174.368 137.523 174.755 137.396 175.065 137.142C175.376 136.884 175.607 136.54 175.759 136.108C175.914 135.676 175.991 135.195 175.991 134.665C175.991 134.131 175.914 133.648 175.759 133.216C175.607 132.78 175.376 132.434 175.065 132.176C174.755 131.919 174.368 131.79 173.906 131.79C173.433 131.79 173.039 131.919 172.724 132.176C172.414 132.434 172.181 132.78 172.026 133.216C171.874 133.648 171.798 134.131 171.798 134.665C171.798 135.195 171.874 135.676 172.026 136.108C172.181 136.54 172.414 136.884 172.724 137.142C173.039 137.396 173.433 137.523 173.906 137.523ZM185.385 135.33V130.273H187.442V139H185.447V137.449H185.357C185.16 137.937 184.836 138.337 184.385 138.648C183.938 138.958 183.387 139.114 182.732 139.114C182.16 139.114 181.654 138.987 181.214 138.733C180.779 138.475 180.438 138.102 180.192 137.614C179.946 137.121 179.822 136.527 179.822 135.83V130.273H181.879V135.511C181.879 136.064 182.031 136.504 182.334 136.83C182.637 137.155 183.035 137.318 183.527 137.318C183.83 137.318 184.124 137.244 184.408 137.097C184.692 136.949 184.925 136.729 185.107 136.438C185.292 136.142 185.385 135.773 185.385 135.33ZM189.557 139V130.273H191.551V131.727H191.642C191.801 131.223 192.074 130.835 192.46 130.562C192.85 130.286 193.295 130.148 193.795 130.148C193.909 130.148 194.036 130.153 194.176 130.165C194.32 130.172 194.439 130.186 194.534 130.205V132.097C194.447 132.066 194.309 132.04 194.119 132.017C193.934 131.991 193.754 131.977 193.58 131.977C193.205 131.977 192.867 132.059 192.568 132.222C192.273 132.381 192.04 132.602 191.869 132.886C191.699 133.17 191.614 133.498 191.614 133.869V139H189.557ZM204.227 130.273V131.864H199.21V130.273H204.227ZM200.449 128.182H202.506V136.375C202.506 136.652 202.547 136.864 202.631 137.011C202.718 137.155 202.831 137.254 202.972 137.307C203.112 137.36 203.267 137.386 203.438 137.386C203.566 137.386 203.684 137.377 203.79 137.358C203.9 137.339 203.983 137.322 204.04 137.307L204.386 138.915C204.277 138.953 204.119 138.994 203.915 139.04C203.714 139.085 203.468 139.112 203.176 139.119C202.661 139.134 202.197 139.057 201.784 138.886C201.371 138.712 201.044 138.443 200.801 138.08C200.563 137.716 200.445 137.261 200.449 136.716V128.182ZM205.947 139V130.273H207.942V131.727H208.033C208.192 131.223 208.464 130.835 208.851 130.562C209.241 130.286 209.686 130.148 210.186 130.148C210.3 130.148 210.427 130.153 210.567 130.165C210.711 130.172 210.83 130.186 210.925 130.205V132.097C210.838 132.066 210.699 132.04 210.51 132.017C210.324 131.991 210.144 131.977 209.97 131.977C209.595 131.977 209.258 132.059 208.959 132.222C208.663 132.381 208.43 132.602 208.26 132.886C208.089 133.17 208.004 133.498 208.004 133.869V139H205.947ZM212.291 139V130.273H214.348V139H212.291ZM213.325 129.034C213 129.034 212.719 128.926 212.484 128.71C212.25 128.491 212.132 128.227 212.132 127.92C212.132 127.61 212.25 127.347 212.484 127.131C212.719 126.911 213 126.801 213.325 126.801C213.655 126.801 213.935 126.911 214.166 127.131C214.401 127.347 214.518 127.61 214.518 127.92C214.518 128.227 214.401 128.491 214.166 128.71C213.935 128.926 213.655 129.034 213.325 129.034ZM216.463 142.273V130.273H218.486V131.716H218.605C218.711 131.504 218.861 131.278 219.054 131.04C219.247 130.797 219.509 130.591 219.838 130.42C220.168 130.246 220.588 130.159 221.099 130.159C221.774 130.159 222.382 130.331 222.923 130.676C223.469 131.017 223.901 131.523 224.219 132.193C224.541 132.86 224.702 133.678 224.702 134.648C224.702 135.606 224.545 136.42 224.23 137.091C223.916 137.761 223.488 138.273 222.946 138.625C222.404 138.977 221.791 139.153 221.105 139.153C220.605 139.153 220.19 139.07 219.861 138.903C219.531 138.737 219.266 138.536 219.065 138.301C218.868 138.062 218.715 137.837 218.605 137.625H218.52V142.273H216.463ZM218.48 134.636C218.48 135.201 218.56 135.695 218.719 136.119C218.882 136.544 219.115 136.875 219.418 137.114C219.724 137.348 220.096 137.466 220.531 137.466C220.986 137.466 221.366 137.345 221.673 137.102C221.98 136.856 222.211 136.521 222.366 136.097C222.526 135.669 222.605 135.182 222.605 134.636C222.605 134.095 222.527 133.614 222.372 133.193C222.217 132.773 221.986 132.443 221.679 132.205C221.372 131.966 220.99 131.847 220.531 131.847C220.092 131.847 219.719 131.962 219.412 132.193C219.105 132.424 218.872 132.748 218.713 133.165C218.558 133.581 218.48 134.072 218.48 134.636Z" fill="#2A3034"/>
<path d="M30.5568 214.364V212.818H38.6804V214.364H35.5334V223H33.7038V214.364H30.5568ZM42.3904 223.149C41.6447 223.149 40.9984 222.985 40.4515 222.657C39.9047 222.329 39.4804 221.87 39.1788 221.28C38.8805 220.69 38.7314 220 38.7314 219.212C38.7314 218.423 38.8805 217.732 39.1788 217.138C39.4804 216.545 39.9047 216.085 40.4515 215.756C40.9984 215.428 41.6447 215.264 42.3904 215.264C43.1362 215.264 43.7825 215.428 44.3294 215.756C44.8762 216.085 45.2988 216.545 45.5971 217.138C45.8987 217.732 46.0495 218.423 46.0495 219.212C46.0495 220 45.8987 220.69 45.5971 221.28C45.2988 221.87 44.8762 222.329 44.3294 222.657C43.7825 222.985 43.1362 223.149 42.3904 223.149ZM42.4004 221.707C42.8047 221.707 43.1428 221.596 43.4146 221.374C43.6864 221.149 43.8886 220.847 44.0211 220.469C44.157 220.092 44.225 219.671 44.225 219.207C44.225 218.739 44.157 218.317 44.0211 217.939C43.8886 217.558 43.6864 217.254 43.4146 217.029C43.1428 216.804 42.8047 216.691 42.4004 216.691C41.9861 216.691 41.6414 216.804 41.3663 217.029C41.0945 217.254 40.8907 217.558 40.7548 217.939C40.6222 218.317 40.5559 218.739 40.5559 219.207C40.5559 219.671 40.6222 220.092 40.7548 220.469C40.8907 220.847 41.0945 221.149 41.3663 221.374C41.6414 221.596 41.9861 221.707 42.4004 221.707ZM50.4109 223.134C49.811 223.134 49.274 222.98 48.8001 222.672C48.3261 222.364 47.9516 221.916 47.6765 221.33C47.4014 220.743 47.2638 220.03 47.2638 219.192C47.2638 218.343 47.4031 217.627 47.6815 217.044C47.9632 216.457 48.3427 216.015 48.82 215.717C49.2972 215.415 49.8292 215.264 50.4158 215.264C50.8633 215.264 51.2312 215.34 51.5195 215.493C51.8079 215.642 52.0366 215.823 52.2056 216.035C52.3746 216.244 52.5056 216.441 52.5984 216.626H52.6729V212.818H54.4776V223H52.7077V221.797H52.5984C52.5056 221.982 52.3713 222.18 52.1957 222.388C52.02 222.594 51.788 222.77 51.4996 222.915C51.2113 223.061 50.8484 223.134 50.4109 223.134ZM50.913 221.658C51.2942 221.658 51.619 221.555 51.8874 221.349C52.1559 221.141 52.3597 220.851 52.4989 220.479C52.6381 220.108 52.7077 219.676 52.7077 219.182C52.7077 218.688 52.6381 218.259 52.4989 217.894C52.363 217.53 52.1609 217.246 51.8924 217.044C51.6272 216.842 51.3008 216.741 50.913 216.741C50.512 216.741 50.1772 216.845 49.9087 217.054C49.6403 217.263 49.4381 217.551 49.3022 217.919C49.1663 218.287 49.0984 218.708 49.0984 219.182C49.0984 219.659 49.1663 220.085 49.3022 220.46C49.4414 220.831 49.6452 221.124 49.9137 221.339C50.1855 221.552 50.5186 221.658 50.913 221.658ZM58.5929 223.154C58.109 223.154 57.6731 223.068 57.2853 222.896C56.9009 222.72 56.5959 222.461 56.3706 222.12C56.1485 221.779 56.0375 221.358 56.0375 220.857C56.0375 220.426 56.117 220.07 56.2761 219.788C56.4352 219.507 56.6523 219.281 56.9274 219.112C57.2025 218.943 57.5124 218.816 57.8571 218.729C58.2051 218.64 58.5647 218.575 58.9359 218.536C59.3833 218.489 59.7463 218.448 60.0247 218.411C60.3031 218.371 60.5053 218.312 60.6312 218.232C60.7605 218.149 60.8251 218.022 60.8251 217.849V217.82C60.8251 217.445 60.7141 217.155 60.492 216.95C60.2699 216.744 59.9501 216.641 59.5325 216.641C59.0917 216.641 58.742 216.737 58.4835 216.93C58.2283 217.122 58.0559 217.349 57.9664 217.611L56.286 217.372C56.4186 216.908 56.6374 216.52 56.9423 216.209C57.2472 215.894 57.6201 215.659 58.0609 215.503C58.5017 215.344 58.9889 215.264 59.5225 215.264C59.8904 215.264 60.2567 215.307 60.6213 215.393C60.9859 215.48 61.319 215.622 61.6206 215.821C61.9222 216.017 62.1641 216.283 62.3464 216.621C62.532 216.96 62.6248 217.382 62.6248 217.889V223H60.8947V221.951H60.835C60.7257 222.163 60.5716 222.362 60.3727 222.548C60.1771 222.73 59.9302 222.877 59.6319 222.99C59.3369 223.099 58.9906 223.154 58.5929 223.154ZM59.0602 221.832C59.4215 221.832 59.7347 221.76 59.9998 221.618C60.265 221.472 60.4688 221.28 60.6113 221.041C60.7572 220.803 60.8301 220.542 60.8301 220.261V219.361C60.7737 219.407 60.6776 219.45 60.5417 219.49C60.4092 219.53 60.26 219.565 60.0943 219.594C59.9286 219.624 59.7645 219.651 59.6021 219.674C59.4397 219.697 59.2988 219.717 59.1795 219.734C58.911 219.77 58.6708 219.83 58.4586 219.913C58.2465 219.996 58.0791 220.112 57.9565 220.261C57.8339 220.406 57.7725 220.595 57.7725 220.827C57.7725 221.159 57.8935 221.409 58.1355 221.578C58.3774 221.747 58.6857 221.832 59.0602 221.832ZM65.2797 225.864C65.0344 225.864 64.8074 225.844 64.5985 225.804C64.3931 225.768 64.229 225.724 64.1064 225.675L64.524 224.273C64.7858 224.349 65.0195 224.385 65.225 224.382C65.4305 224.379 65.6111 224.314 65.7669 224.188C65.926 224.066 66.0602 223.86 66.1696 223.572L66.3237 223.159L63.5545 215.364H65.4636L67.2235 221.131H67.3031L69.068 215.364H70.9821L67.9245 223.925C67.782 224.329 67.5931 224.675 67.3578 224.964C67.1225 225.255 66.8341 225.478 66.4927 225.63C66.1547 225.786 65.7503 225.864 65.2797 225.864Z" fill="#2A3034"/>
<path d="M46.8789 306V298H49.7305C50.3529 298 50.8685 298.113 51.2773 298.34C51.6862 298.566 51.9922 298.876 52.1953 299.27C52.3984 299.66 52.5 300.1 52.5 300.59C52.5 301.082 52.3971 301.525 52.1914 301.918C51.9883 302.309 51.681 302.618 51.2695 302.848C50.8607 303.074 50.3464 303.188 49.7266 303.188H47.7656V302.164H49.6172C50.0104 302.164 50.3294 302.096 50.5742 301.961C50.819 301.823 50.9987 301.635 51.1133 301.398C51.2279 301.161 51.2852 300.892 51.2852 300.59C51.2852 300.288 51.2279 300.02 51.1133 299.785C50.9987 299.551 50.8177 299.367 50.5703 299.234C50.3255 299.102 50.0026 299.035 49.6016 299.035H48.0859V306H46.8789ZM55.5137 306.133C55.1335 306.133 54.7897 306.063 54.4824 305.922C54.1751 305.779 53.9316 305.572 53.752 305.301C53.5749 305.03 53.4863 304.698 53.4863 304.305C53.4863 303.966 53.5514 303.687 53.6816 303.469C53.8118 303.25 53.9876 303.077 54.209 302.949C54.4303 302.822 54.6777 302.725 54.9512 302.66C55.2246 302.595 55.5033 302.546 55.7871 302.512C56.1465 302.47 56.4382 302.436 56.6621 302.41C56.8861 302.382 57.0488 302.336 57.1504 302.273C57.252 302.211 57.3027 302.109 57.3027 301.969V301.941C57.3027 301.6 57.2064 301.336 57.0137 301.148C56.8236 300.961 56.5397 300.867 56.1621 300.867C55.7689 300.867 55.459 300.954 55.2324 301.129C55.0085 301.301 54.8535 301.492 54.7676 301.703L53.6699 301.453C53.8001 301.089 53.9902 300.794 54.2402 300.57C54.4928 300.344 54.7832 300.18 55.1113 300.078C55.4395 299.974 55.7845 299.922 56.1465 299.922C56.3861 299.922 56.64 299.951 56.9082 300.008C57.179 300.062 57.4316 300.164 57.666 300.312C57.903 300.461 58.097 300.673 58.248 300.949C58.3991 301.223 58.4746 301.578 58.4746 302.016V306H57.334V305.18H57.2871C57.2116 305.331 57.0983 305.479 56.9473 305.625C56.7962 305.771 56.6022 305.892 56.3652 305.988C56.1283 306.085 55.8444 306.133 55.5137 306.133ZM55.7676 305.195C56.0905 305.195 56.3665 305.132 56.5957 305.004C56.8275 304.876 57.0033 304.71 57.123 304.504C57.2454 304.296 57.3066 304.073 57.3066 303.836V303.062C57.265 303.104 57.1842 303.143 57.0645 303.18C56.9473 303.214 56.8132 303.243 56.6621 303.27C56.5111 303.293 56.3639 303.315 56.2207 303.336C56.0775 303.354 55.9577 303.37 55.8613 303.383C55.6348 303.411 55.4277 303.46 55.2402 303.527C55.0553 303.595 54.9069 303.693 54.7949 303.82C54.6855 303.945 54.6309 304.112 54.6309 304.32C54.6309 304.609 54.7376 304.828 54.9512 304.977C55.1647 305.122 55.4368 305.195 55.7676 305.195ZM60.5537 308.25C60.3792 308.25 60.2204 308.236 60.0771 308.207C59.9339 308.181 59.8271 308.152 59.7568 308.121L60.0381 307.164C60.2516 307.221 60.4417 307.246 60.6084 307.238C60.7751 307.23 60.9222 307.168 61.0498 307.051C61.18 306.934 61.2946 306.742 61.3936 306.477L61.5381 306.078L59.3428 300H60.5928L62.1123 304.656H62.1748L63.6943 300H64.9482L62.4756 306.801C62.361 307.113 62.2152 307.378 62.0381 307.594C61.861 307.813 61.6501 307.977 61.4053 308.086C61.1605 308.195 60.8766 308.25 60.5537 308.25ZM66.0459 306V300H67.167V300.977H67.2412C67.3662 300.646 67.5706 300.388 67.8545 300.203C68.1383 300.016 68.4782 299.922 68.874 299.922C69.2751 299.922 69.611 300.016 69.8818 300.203C70.1553 300.391 70.3571 300.648 70.4873 300.977H70.5498C70.693 300.656 70.9209 300.401 71.2334 300.211C71.5459 300.018 71.9183 299.922 72.3506 299.922C72.8949 299.922 73.3389 300.092 73.6826 300.434C74.029 300.775 74.2021 301.289 74.2021 301.977V306H73.0342V302.086C73.0342 301.68 72.9235 301.385 72.7021 301.203C72.4808 301.021 72.2165 300.93 71.9092 300.93C71.529 300.93 71.2334 301.047 71.0225 301.281C70.8115 301.513 70.7061 301.811 70.7061 302.176V306H69.542V302.012C69.542 301.686 69.4404 301.424 69.2373 301.227C69.0342 301.029 68.7699 300.93 68.4443 300.93C68.223 300.93 68.0186 300.988 67.8311 301.105C67.6462 301.22 67.4964 301.38 67.3818 301.586C67.2699 301.792 67.2139 302.03 67.2139 302.301V306H66.0459ZM78.3535 306.121C77.7624 306.121 77.2533 305.995 76.8262 305.742C76.4017 305.487 76.0736 305.129 75.8418 304.668C75.6126 304.204 75.498 303.661 75.498 303.039C75.498 302.424 75.6126 301.883 75.8418 301.414C76.0736 300.945 76.3965 300.579 76.8105 300.316C77.2272 300.053 77.7142 299.922 78.2715 299.922C78.61 299.922 78.9382 299.978 79.2559 300.09C79.5736 300.202 79.8587 300.378 80.1113 300.617C80.3639 300.857 80.5632 301.168 80.709 301.551C80.8548 301.931 80.9277 302.393 80.9277 302.937V303.352H76.1582V302.477H79.7832C79.7832 302.169 79.7207 301.897 79.5957 301.66C79.4707 301.421 79.2949 301.232 79.0684 301.094C78.8444 300.956 78.5814 300.887 78.2793 300.887C77.9512 300.887 77.6647 300.967 77.4199 301.129C77.1777 301.288 76.9902 301.496 76.8574 301.754C76.7272 302.009 76.6621 302.286 76.6621 302.586V303.27C76.6621 303.671 76.7324 304.012 76.873 304.293C77.0163 304.574 77.2155 304.789 77.4707 304.937C77.7259 305.083 78.0241 305.156 78.3652 305.156C78.5866 305.156 78.7884 305.125 78.9707 305.062C79.153 304.997 79.3105 304.901 79.4434 304.773C79.5762 304.646 79.6777 304.488 79.748 304.301L80.8535 304.5C80.765 304.826 80.6061 305.111 80.377 305.355C80.1504 305.598 79.8652 305.786 79.5215 305.922C79.1803 306.055 78.791 306.121 78.3535 306.121ZM83.3916 302.437V306H82.2236V300H83.3447V300.977H83.4189C83.557 300.659 83.7731 300.404 84.0674 300.211C84.3643 300.018 84.738 299.922 85.1885 299.922C85.5973 299.922 85.9554 300.008 86.2627 300.18C86.57 300.349 86.8083 300.602 86.9775 300.937C87.1468 301.273 87.2314 301.689 87.2314 302.184V306H86.0635V302.324C86.0635 301.889 85.9502 301.549 85.7236 301.305C85.4971 301.057 85.1859 300.934 84.79 300.934C84.5192 300.934 84.2783 300.992 84.0674 301.109C83.859 301.227 83.6937 301.398 83.5713 301.625C83.4515 301.849 83.3916 302.12 83.3916 302.437ZM91.5986 300V300.937H88.3213V300H91.5986ZM89.2002 298.562H90.3682V304.238C90.3682 304.465 90.402 304.635 90.4697 304.75C90.5374 304.862 90.6247 304.939 90.7314 304.98C90.8408 305.02 90.9593 305.039 91.0869 305.039C91.1807 305.039 91.2627 305.033 91.333 305.02C91.4033 305.007 91.458 304.996 91.4971 304.988L91.708 305.953C91.6403 305.979 91.5439 306.005 91.4189 306.031C91.2939 306.06 91.1377 306.076 90.9502 306.078C90.6429 306.083 90.3564 306.029 90.0908 305.914C89.8252 305.799 89.6104 305.622 89.4463 305.383C89.2822 305.143 89.2002 304.842 89.2002 304.48V298.562ZM98.6025 300V300.937H95.3252V300H98.6025ZM96.2041 298.562H97.3721V304.238C97.3721 304.465 97.4059 304.635 97.4736 304.75C97.5413 304.862 97.6286 304.939 97.7354 304.98C97.8447 305.02 97.9632 305.039 98.0908 305.039C98.1846 305.039 98.2666 305.033 98.3369 305.02C98.4072 305.007 98.4619 304.996 98.501 304.988L98.7119 305.953C98.6442 305.979 98.5479 306.005 98.4229 306.031C98.2979 306.06 98.1416 306.076 97.9541 306.078C97.6468 306.083 97.3604 306.029 97.0947 305.914C96.8291 305.799 96.6143 305.622 96.4502 305.383C96.2861 305.143 96.2041 304.842 96.2041 304.48V298.562ZM100.633 308.25C100.458 308.25 100.299 308.236 100.156 308.207C100.013 308.181 99.9063 308.152 99.8359 308.121L100.117 307.164C100.331 307.221 100.521 307.246 100.687 307.238C100.854 307.23 101.001 307.168 101.129 307.051C101.259 306.934 101.374 306.742 101.473 306.477L101.617 306.078L99.4219 300H100.672L102.191 304.656H102.254L103.773 300H105.027L102.555 306.801C102.44 307.113 102.294 307.378 102.117 307.594C101.94 307.813 101.729 307.977 101.484 308.086C101.24 308.195 100.956 308.25 100.633 308.25ZM106.125 308.25V300H107.266V300.973H107.363C107.431 300.848 107.529 300.703 107.656 300.539C107.784 300.375 107.961 300.232 108.188 300.109C108.414 299.984 108.714 299.922 109.086 299.922C109.57 299.922 110.003 300.044 110.383 300.289C110.763 300.534 111.061 300.887 111.277 301.348C111.496 301.809 111.605 302.363 111.605 303.012C111.605 303.66 111.497 304.216 111.281 304.68C111.065 305.141 110.768 305.496 110.391 305.746C110.013 305.993 109.582 306.117 109.098 306.117C108.733 306.117 108.435 306.056 108.203 305.934C107.974 305.811 107.794 305.668 107.664 305.504C107.534 305.34 107.434 305.194 107.363 305.066H107.293V308.25H106.125ZM107.27 303C107.27 303.422 107.331 303.792 107.453 304.109C107.576 304.427 107.753 304.676 107.984 304.855C108.216 305.033 108.5 305.121 108.836 305.121C109.185 305.121 109.477 305.029 109.711 304.844C109.945 304.656 110.122 304.402 110.242 304.082C110.365 303.762 110.426 303.401 110.426 303C110.426 302.604 110.366 302.249 110.246 301.934C110.129 301.618 109.952 301.37 109.715 301.188C109.48 301.005 109.188 300.914 108.836 300.914C108.497 300.914 108.211 301.001 107.977 301.176C107.745 301.35 107.569 301.594 107.449 301.906C107.329 302.219 107.27 302.583 107.27 303ZM115.5 306.121C114.909 306.121 114.4 305.995 113.973 305.742C113.548 305.487 113.22 305.129 112.988 304.668C112.759 304.204 112.645 303.661 112.645 303.039C112.645 302.424 112.759 301.883 112.988 301.414C113.22 300.945 113.543 300.579 113.957 300.316C114.374 300.053 114.861 299.922 115.418 299.922C115.757 299.922 116.085 299.978 116.402 300.09C116.72 300.202 117.005 300.378 117.258 300.617C117.51 300.857 117.71 301.168 117.855 301.551C118.001 301.931 118.074 302.393 118.074 302.937V303.352H113.305V302.477H116.93C116.93 302.169 116.867 301.897 116.742 301.66C116.617 301.421 116.441 301.232 116.215 301.094C115.991 300.956 115.728 300.887 115.426 300.887C115.098 300.887 114.811 300.967 114.566 301.129C114.324 301.288 114.137 301.496 114.004 301.754C113.874 302.009 113.809 302.286 113.809 302.586V303.27C113.809 303.671 113.879 304.012 114.02 304.293C114.163 304.574 114.362 304.789 114.617 304.937C114.872 305.083 115.171 305.156 115.512 305.156C115.733 305.156 115.935 305.125 116.117 305.062C116.299 304.997 116.457 304.901 116.59 304.773C116.723 304.646 116.824 304.488 116.895 304.301L118 304.5C117.911 304.826 117.753 305.111 117.523 305.355C117.297 305.598 117.012 305.786 116.668 305.922C116.327 306.055 115.937 306.121 115.5 306.121ZM120.14 306.074C119.926 306.074 119.743 305.999 119.589 305.848C119.435 305.694 119.358 305.509 119.358 305.293C119.358 305.079 119.435 304.897 119.589 304.746C119.743 304.592 119.926 304.516 120.14 304.516C120.353 304.516 120.537 304.592 120.69 304.746C120.844 304.897 120.921 305.079 120.921 305.293C120.921 305.436 120.884 305.568 120.812 305.687C120.741 305.805 120.647 305.898 120.53 305.969C120.413 306.039 120.283 306.074 120.14 306.074ZM120.14 301.707C119.926 301.707 119.743 301.63 119.589 301.477C119.435 301.323 119.358 301.139 119.358 300.926C119.358 300.712 119.435 300.53 119.589 300.379C119.743 300.225 119.926 300.148 120.14 300.148C120.353 300.148 120.537 300.225 120.69 300.379C120.844 300.53 120.921 300.712 120.921 300.926C120.921 301.069 120.884 301.201 120.812 301.32C120.741 301.437 120.647 301.531 120.53 301.602C120.413 301.672 120.283 301.707 120.14 301.707ZM193.269 300.602H192.05C192.003 300.341 191.916 300.112 191.788 299.914C191.66 299.716 191.504 299.548 191.319 299.41C191.134 299.272 190.927 299.168 190.698 299.098C190.472 299.027 190.231 298.992 189.976 298.992C189.515 298.992 189.102 299.108 188.737 299.34C188.375 299.572 188.089 299.911 187.878 300.359C187.67 300.807 187.565 301.354 187.565 302C187.565 302.651 187.67 303.201 187.878 303.648C188.089 304.096 188.377 304.435 188.741 304.664C189.106 304.893 189.516 305.008 189.972 305.008C190.224 305.008 190.464 304.974 190.69 304.906C190.92 304.836 191.127 304.733 191.312 304.598C191.496 304.462 191.653 304.297 191.78 304.102C191.91 303.904 192 303.677 192.05 303.422L193.269 303.426C193.203 303.819 193.077 304.181 192.89 304.512C192.705 304.84 192.466 305.124 192.175 305.363C191.886 305.6 191.555 305.784 191.183 305.914C190.81 306.044 190.404 306.109 189.964 306.109C189.271 306.109 188.654 305.945 188.112 305.617C187.571 305.286 187.144 304.814 186.831 304.199C186.521 303.585 186.366 302.852 186.366 302C186.366 301.146 186.522 300.413 186.835 299.801C187.147 299.186 187.575 298.715 188.116 298.387C188.658 298.056 189.274 297.891 189.964 297.891C190.388 297.891 190.784 297.952 191.151 298.074C191.521 298.194 191.853 298.371 192.147 298.605C192.442 298.837 192.685 299.121 192.878 299.457C193.071 299.79 193.201 300.172 193.269 300.602ZM196.365 306.133C195.985 306.133 195.641 306.063 195.334 305.922C195.027 305.779 194.783 305.572 194.604 305.301C194.426 305.03 194.338 304.698 194.338 304.305C194.338 303.966 194.403 303.687 194.533 303.469C194.663 303.25 194.839 303.077 195.061 302.949C195.282 302.822 195.529 302.725 195.803 302.66C196.076 302.595 196.355 302.546 196.639 302.512C196.998 302.47 197.29 302.436 197.514 302.41C197.738 302.382 197.9 302.336 198.002 302.273C198.104 302.211 198.154 302.109 198.154 301.969V301.941C198.154 301.6 198.058 301.336 197.865 301.148C197.675 300.961 197.391 300.867 197.014 300.867C196.62 300.867 196.311 300.954 196.084 301.129C195.86 301.301 195.705 301.492 195.619 301.703L194.521 301.453C194.652 301.089 194.842 300.794 195.092 300.57C195.344 300.344 195.635 300.18 195.963 300.078C196.291 299.974 196.636 299.922 196.998 299.922C197.238 299.922 197.492 299.951 197.76 300.008C198.031 300.062 198.283 300.164 198.518 300.312C198.755 300.461 198.949 300.673 199.1 300.949C199.251 301.223 199.326 301.578 199.326 302.016V306H198.186V305.18H198.139C198.063 305.331 197.95 305.479 197.799 305.625C197.648 305.771 197.454 305.892 197.217 305.988C196.98 306.085 196.696 306.133 196.365 306.133ZM196.619 305.195C196.942 305.195 197.218 305.132 197.447 305.004C197.679 304.876 197.855 304.71 197.975 304.504C198.097 304.296 198.158 304.073 198.158 303.836V303.062C198.117 303.104 198.036 303.143 197.916 303.18C197.799 303.214 197.665 303.243 197.514 303.27C197.363 303.293 197.215 303.315 197.072 303.336C196.929 303.354 196.809 303.37 196.713 303.383C196.486 303.411 196.279 303.46 196.092 303.527C195.907 303.595 195.758 303.693 195.646 303.82C195.537 303.945 195.482 304.112 195.482 304.32C195.482 304.609 195.589 304.828 195.803 304.977C196.016 305.122 196.288 305.195 196.619 305.195ZM205.378 301.465L204.319 301.652C204.275 301.517 204.205 301.388 204.108 301.266C204.015 301.143 203.887 301.043 203.726 300.965C203.564 300.887 203.362 300.848 203.12 300.848C202.789 300.848 202.513 300.922 202.292 301.07C202.071 301.216 201.96 301.405 201.96 301.637C201.96 301.837 202.034 301.999 202.183 302.121C202.331 302.243 202.571 302.344 202.901 302.422L203.854 302.641C204.407 302.768 204.818 302.965 205.089 303.23C205.36 303.496 205.495 303.841 205.495 304.266C205.495 304.625 205.391 304.945 205.183 305.227C204.977 305.505 204.689 305.724 204.319 305.883C203.952 306.042 203.526 306.121 203.042 306.121C202.37 306.121 201.822 305.978 201.397 305.691C200.973 305.402 200.713 304.992 200.616 304.461L201.745 304.289C201.815 304.583 201.96 304.806 202.179 304.957C202.397 305.105 202.683 305.18 203.034 305.18C203.417 305.18 203.723 305.1 203.952 304.941C204.181 304.78 204.296 304.583 204.296 304.352C204.296 304.164 204.226 304.007 204.085 303.879C203.947 303.751 203.735 303.655 203.448 303.59L202.433 303.367C201.873 303.24 201.459 303.036 201.19 302.758C200.925 302.479 200.792 302.126 200.792 301.699C200.792 301.345 200.891 301.035 201.089 300.77C201.287 300.504 201.56 300.297 201.909 300.148C202.258 299.997 202.658 299.922 203.108 299.922C203.757 299.922 204.267 300.062 204.64 300.344C205.012 300.622 205.258 300.996 205.378 301.465ZM207.947 302.437V306H206.779V298H207.932V300.977H208.006C208.146 300.654 208.361 300.397 208.65 300.207C208.939 300.017 209.317 299.922 209.783 299.922C210.195 299.922 210.554 300.007 210.861 300.176C211.171 300.345 211.411 300.598 211.58 300.934C211.752 301.267 211.838 301.684 211.838 302.184V306H210.67V302.324C210.67 301.884 210.557 301.543 210.33 301.301C210.104 301.056 209.788 300.934 209.385 300.934C209.109 300.934 208.861 300.992 208.643 301.109C208.426 301.227 208.256 301.398 208.131 301.625C208.008 301.849 207.947 302.12 207.947 302.437Z" fill="#52667A"/>
<path d="M46.4844 318.039V317H52.6758V318.039H50.1797V325H48.9766V318.039H46.4844ZM55.6074 325.121C55.0449 325.121 54.554 324.992 54.1348 324.734C53.7155 324.477 53.39 324.116 53.1582 323.652C52.9264 323.189 52.8105 322.647 52.8105 322.027C52.8105 321.405 52.9264 320.861 53.1582 320.395C53.39 319.928 53.7155 319.566 54.1348 319.309C54.554 319.051 55.0449 318.922 55.6074 318.922C56.1699 318.922 56.6608 319.051 57.0801 319.309C57.4993 319.566 57.8249 319.928 58.0566 320.395C58.2884 320.861 58.4043 321.405 58.4043 322.027C58.4043 322.647 58.2884 323.189 58.0566 323.652C57.8249 324.116 57.4993 324.477 57.0801 324.734C56.6608 324.992 56.1699 325.121 55.6074 325.121ZM55.6113 324.141C55.9759 324.141 56.278 324.044 56.5176 323.852C56.7572 323.659 56.9342 323.402 57.0488 323.082C57.166 322.762 57.2246 322.409 57.2246 322.023C57.2246 321.641 57.166 321.289 57.0488 320.969C56.9342 320.646 56.7572 320.387 56.5176 320.191C56.278 319.996 55.9759 319.898 55.6113 319.898C55.2441 319.898 54.9395 319.996 54.6973 320.191C54.4577 320.387 54.2793 320.646 54.1621 320.969C54.0475 321.289 53.9902 321.641 53.9902 322.023C53.9902 322.409 54.0475 322.762 54.1621 323.082C54.2793 323.402 54.4577 323.659 54.6973 323.852C54.9395 324.044 55.2441 324.141 55.6113 324.141ZM62.7129 325V317H63.8809V319.973H63.9512C64.0189 319.848 64.1165 319.703 64.2441 319.539C64.3717 319.375 64.5488 319.232 64.7754 319.109C65.002 318.984 65.3014 318.922 65.6738 318.922C66.1582 318.922 66.5905 319.044 66.9707 319.289C67.3509 319.534 67.6491 319.887 67.8652 320.348C68.084 320.809 68.1934 321.363 68.1934 322.012C68.1934 322.66 68.0853 323.216 67.8691 323.68C67.653 324.141 67.3561 324.496 66.9785 324.746C66.6009 324.993 66.1699 325.117 65.6855 325.117C65.321 325.117 65.0228 325.056 64.791 324.934C64.5618 324.811 64.3822 324.668 64.252 324.504C64.1217 324.34 64.0215 324.194 63.9512 324.066H63.8535V325H62.7129ZM63.8574 322C63.8574 322.422 63.9186 322.792 64.041 323.109C64.1634 323.427 64.3405 323.676 64.5723 323.855C64.804 324.033 65.0879 324.121 65.4238 324.121C65.7728 324.121 66.0645 324.029 66.2988 323.844C66.5332 323.656 66.7103 323.402 66.8301 323.082C66.9525 322.762 67.0137 322.401 67.0137 322C67.0137 321.604 66.9538 321.249 66.834 320.934C66.7168 320.618 66.5397 320.37 66.3027 320.188C66.0684 320.005 65.7754 319.914 65.4238 319.914C65.0853 319.914 64.7988 320.001 64.5645 320.176C64.3327 320.35 64.1569 320.594 64.0371 320.906C63.9173 321.219 63.8574 321.583 63.8574 322ZM72.0908 325.121C71.4997 325.121 70.9906 324.995 70.5635 324.742C70.139 324.487 69.8109 324.129 69.5791 323.668C69.3499 323.204 69.2354 322.661 69.2354 322.039C69.2354 321.424 69.3499 320.883 69.5791 320.414C69.8109 319.945 70.1338 319.579 70.5479 319.316C70.9645 319.053 71.4515 318.922 72.0088 318.922C72.3473 318.922 72.6755 318.978 72.9932 319.09C73.3109 319.202 73.596 319.378 73.8486 319.617C74.1012 319.857 74.3005 320.168 74.4463 320.551C74.5921 320.931 74.665 321.393 74.665 321.937V322.352H69.8955V321.477H73.5205C73.5205 321.169 73.458 320.897 73.333 320.66C73.208 320.421 73.0322 320.232 72.8057 320.094C72.5817 319.956 72.3187 319.887 72.0166 319.887C71.6885 319.887 71.402 319.967 71.1572 320.129C70.915 320.288 70.7275 320.496 70.5947 320.754C70.4645 321.009 70.3994 321.286 70.3994 321.586V322.27C70.3994 322.671 70.4697 323.012 70.6104 323.293C70.7536 323.574 70.9528 323.789 71.208 323.937C71.4632 324.083 71.7614 324.156 72.1025 324.156C72.3239 324.156 72.5257 324.125 72.708 324.062C72.8903 323.997 73.0479 323.901 73.1807 323.773C73.3135 323.646 73.415 323.488 73.4854 323.301L74.5908 323.5C74.5023 323.826 74.3434 324.111 74.1143 324.355C73.8877 324.598 73.6025 324.786 73.2588 324.922C72.9176 325.055 72.5283 325.121 72.0908 325.121ZM78.8721 327.25V319H80.0127V319.973H80.1104C80.1781 319.848 80.2757 319.703 80.4033 319.539C80.5309 319.375 80.708 319.232 80.9346 319.109C81.1611 318.984 81.4606 318.922 81.833 318.922C82.3174 318.922 82.7497 319.044 83.1299 319.289C83.5101 319.534 83.8083 319.887 84.0244 320.348C84.2432 320.809 84.3525 321.363 84.3525 322.012C84.3525 322.66 84.2445 323.216 84.0283 323.68C83.8122 324.141 83.5153 324.496 83.1377 324.746C82.7601 324.993 82.3291 325.117 81.8447 325.117C81.4801 325.117 81.182 325.056 80.9502 324.934C80.721 324.811 80.5413 324.668 80.4111 324.504C80.2809 324.34 80.1807 324.194 80.1104 324.066H80.04V327.25H78.8721ZM80.0166 322C80.0166 322.422 80.0778 322.792 80.2002 323.109C80.3226 323.427 80.4997 323.676 80.7314 323.855C80.9632 324.033 81.2471 324.121 81.583 324.121C81.932 324.121 82.2236 324.029 82.458 323.844C82.6924 323.656 82.8695 323.402 82.9893 323.082C83.1117 322.762 83.1729 322.401 83.1729 322C83.1729 321.604 83.113 321.249 82.9932 320.934C82.876 320.618 82.6989 320.37 82.4619 320.188C82.2275 320.005 81.9346 319.914 81.583 319.914C81.2445 319.914 80.958 320.001 80.7236 320.176C80.4919 320.35 80.3161 320.594 80.1963 320.906C80.0765 321.219 80.0166 321.583 80.0166 322ZM87.4072 325.133C87.027 325.133 86.6833 325.063 86.376 324.922C86.0687 324.779 85.8252 324.572 85.6455 324.301C85.4684 324.03 85.3799 323.698 85.3799 323.305C85.3799 322.966 85.445 322.687 85.5752 322.469C85.7054 322.25 85.8812 322.077 86.1025 321.949C86.3239 321.822 86.5713 321.725 86.8447 321.66C87.1182 321.595 87.3968 321.546 87.6807 321.512C88.04 321.47 88.3317 321.436 88.5557 321.41C88.7796 321.382 88.9424 321.336 89.0439 321.273C89.1455 321.211 89.1963 321.109 89.1963 320.969V320.941C89.1963 320.6 89.0999 320.336 88.9072 320.148C88.7171 319.961 88.4333 319.867 88.0557 319.867C87.6624 319.867 87.3525 319.954 87.126 320.129C86.902 320.301 86.7471 320.492 86.6611 320.703L85.5635 320.453C85.6937 320.089 85.8838 319.794 86.1338 319.57C86.3864 319.344 86.6768 319.18 87.0049 319.078C87.333 318.974 87.6781 318.922 88.04 318.922C88.2796 318.922 88.5335 318.951 88.8018 319.008C89.0726 319.062 89.3252 319.164 89.5596 319.312C89.7965 319.461 89.9906 319.673 90.1416 319.949C90.2926 320.223 90.3682 320.578 90.3682 321.016V325H89.2275V324.18H89.1807C89.1051 324.331 88.9919 324.479 88.8408 324.625C88.6898 324.771 88.4958 324.892 88.2588 324.988C88.0218 325.085 87.738 325.133 87.4072 325.133ZM87.6611 324.195C87.984 324.195 88.2601 324.132 88.4893 324.004C88.721 323.876 88.8968 323.71 89.0166 323.504C89.139 323.296 89.2002 323.073 89.2002 322.836V322.062C89.1585 322.104 89.0778 322.143 88.958 322.18C88.8408 322.214 88.7067 322.243 88.5557 322.27C88.4046 322.293 88.2575 322.315 88.1143 322.336C87.971 322.354 87.8512 322.37 87.7549 322.383C87.5283 322.411 87.3213 322.46 87.1338 322.527C86.9489 322.595 86.8005 322.693 86.6885 322.82C86.5791 322.945 86.5244 323.112 86.5244 323.32C86.5244 323.609 86.6312 323.828 86.8447 323.977C87.0583 324.122 87.3304 324.195 87.6611 324.195ZM91.9238 325V319H93.0918V325H91.9238ZM92.5137 318.074C92.3105 318.074 92.1361 318.007 91.9902 317.871C91.847 317.733 91.7754 317.569 91.7754 317.379C91.7754 317.186 91.847 317.022 91.9902 316.887C92.1361 316.749 92.3105 316.68 92.5137 316.68C92.7168 316.68 92.89 316.749 93.0332 316.887C93.179 317.022 93.252 317.186 93.252 317.379C93.252 317.569 93.179 317.733 93.0332 317.871C92.89 318.007 92.7168 318.074 92.5137 318.074ZM96.9092 325.117C96.4248 325.117 95.9925 324.993 95.6123 324.746C95.2347 324.496 94.9378 324.141 94.7217 323.68C94.5081 323.216 94.4014 322.66 94.4014 322.012C94.4014 321.363 94.5094 320.809 94.7256 320.348C94.9443 319.887 95.2438 319.534 95.624 319.289C96.0042 319.044 96.4352 318.922 96.917 318.922C97.2894 318.922 97.5889 318.984 97.8154 319.109C98.0446 319.232 98.2217 319.375 98.3467 319.539C98.4743 319.703 98.5732 319.848 98.6436 319.973H98.7139V317H99.8818V325H98.7412V324.066H98.6436C98.5732 324.194 98.4717 324.34 98.3389 324.504C98.2087 324.668 98.029 324.811 97.7998 324.934C97.5706 325.056 97.2738 325.117 96.9092 325.117ZM97.167 324.121C97.5029 324.121 97.7868 324.033 98.0186 323.855C98.2529 323.676 98.43 323.427 98.5498 323.109C98.6722 322.792 98.7334 322.422 98.7334 322C98.7334 321.583 98.6735 321.219 98.5537 320.906C98.4339 320.594 98.2581 320.35 98.0264 320.176C97.7946 320.001 97.5081 319.914 97.167 319.914C96.8154 319.914 96.5225 320.005 96.2881 320.188C96.0537 320.37 95.8766 320.618 95.7568 320.934C95.6396 321.249 95.5811 321.604 95.5811 322C95.5811 322.401 95.641 322.762 95.7607 323.082C95.8805 323.402 96.0576 323.656 96.292 323.844C96.529 324.029 96.8206 324.121 97.167 324.121ZM102.318 325.074C102.105 325.074 101.921 324.999 101.768 324.848C101.614 324.694 101.537 324.509 101.537 324.293C101.537 324.079 101.614 323.897 101.768 323.746C101.921 323.592 102.105 323.516 102.318 323.516C102.532 323.516 102.715 323.592 102.869 323.746C103.023 323.897 103.1 324.079 103.1 324.293C103.1 324.436 103.063 324.568 102.99 324.687C102.92 324.805 102.826 324.898 102.709 324.969C102.592 325.039 102.462 325.074 102.318 325.074ZM102.318 320.707C102.105 320.707 101.921 320.63 101.768 320.477C101.614 320.323 101.537 320.139 101.537 319.926C101.537 319.712 101.614 319.53 101.768 319.379C101.921 319.225 102.105 319.148 102.318 319.148C102.532 319.148 102.715 319.225 102.869 319.379C103.023 319.53 103.1 319.712 103.1 319.926C103.1 320.069 103.063 320.201 102.99 320.32C102.92 320.437 102.826 320.531 102.709 320.602C102.592 320.672 102.462 320.707 102.318 320.707ZM194.451 326V316H195.092V326H194.451ZM196.455 319.102C196.413 318.732 196.242 318.445 195.939 318.242C195.637 318.036 195.257 317.934 194.799 317.934C194.471 317.934 194.187 317.986 193.947 318.09C193.708 318.191 193.521 318.332 193.389 318.512C193.258 318.689 193.193 318.891 193.193 319.117C193.193 319.307 193.238 319.471 193.326 319.609C193.417 319.747 193.536 319.863 193.682 319.957C193.83 320.048 193.989 320.125 194.158 320.188C194.327 320.247 194.49 320.297 194.646 320.336L195.428 320.539C195.683 320.602 195.945 320.686 196.213 320.793C196.481 320.9 196.73 321.04 196.959 321.215C197.188 321.389 197.373 321.605 197.514 321.863C197.657 322.121 197.729 322.43 197.729 322.789C197.729 323.242 197.611 323.645 197.377 323.996C197.145 324.348 196.808 324.625 196.365 324.828C195.925 325.031 195.393 325.133 194.768 325.133C194.169 325.133 193.65 325.038 193.213 324.848C192.775 324.658 192.433 324.388 192.186 324.039C191.938 323.687 191.801 323.271 191.775 322.789H192.986C193.01 323.078 193.104 323.319 193.268 323.512C193.434 323.702 193.646 323.844 193.904 323.937C194.165 324.029 194.45 324.074 194.76 324.074C195.101 324.074 195.404 324.021 195.67 323.914C195.938 323.805 196.149 323.654 196.303 323.461C196.456 323.266 196.533 323.038 196.533 322.777C196.533 322.54 196.465 322.346 196.33 322.195C196.197 322.044 196.016 321.919 195.787 321.82C195.561 321.721 195.304 321.634 195.018 321.559L194.072 321.301C193.432 321.126 192.924 320.87 192.549 320.531C192.176 320.193 191.99 319.745 191.99 319.187C191.99 318.727 192.115 318.324 192.365 317.98C192.615 317.637 192.954 317.37 193.381 317.18C193.808 316.987 194.29 316.891 194.826 316.891C195.368 316.891 195.846 316.986 196.26 317.176C196.676 317.366 197.005 317.628 197.244 317.961C197.484 318.292 197.609 318.672 197.619 319.102H196.455ZM201.847 325.109C201.31 325.109 200.831 325.017 200.409 324.832C199.99 324.647 199.658 324.391 199.413 324.062C199.171 323.732 199.041 323.349 199.022 322.914H200.249C200.265 323.151 200.344 323.357 200.487 323.531C200.633 323.703 200.823 323.836 201.058 323.93C201.292 324.023 201.552 324.07 201.839 324.07C202.154 324.07 202.433 324.016 202.675 323.906C202.92 323.797 203.111 323.645 203.249 323.449C203.387 323.251 203.456 323.023 203.456 322.766C203.456 322.497 203.387 322.262 203.249 322.059C203.114 321.853 202.914 321.691 202.651 321.574C202.391 321.457 202.076 321.398 201.706 321.398H201.03V320.414H201.706C202.003 320.414 202.263 320.361 202.487 320.254C202.714 320.147 202.891 319.999 203.019 319.809C203.146 319.616 203.21 319.391 203.21 319.133C203.21 318.885 203.154 318.671 203.042 318.488C202.933 318.303 202.776 318.159 202.573 318.055C202.373 317.951 202.136 317.898 201.862 317.898C201.602 317.898 201.358 317.947 201.132 318.043C200.908 318.137 200.726 318.272 200.585 318.449C200.444 318.624 200.369 318.833 200.358 319.078H199.19C199.203 318.646 199.331 318.266 199.573 317.937C199.818 317.609 200.141 317.353 200.542 317.168C200.943 316.983 201.388 316.891 201.878 316.891C202.391 316.891 202.834 316.991 203.206 317.191C203.581 317.389 203.87 317.654 204.073 317.984C204.279 318.315 204.381 318.677 204.378 319.07C204.381 319.518 204.256 319.898 204.003 320.211C203.753 320.523 203.42 320.733 203.003 320.84V320.902C203.534 320.983 203.946 321.194 204.237 321.535C204.532 321.876 204.677 322.299 204.675 322.805C204.677 323.245 204.555 323.639 204.308 323.988C204.063 324.337 203.728 324.612 203.304 324.812C202.879 325.01 202.394 325.109 201.847 325.109ZM208.937 325.133C208.319 325.13 207.792 324.967 207.354 324.645C206.917 324.322 206.582 323.852 206.351 323.234C206.119 322.617 206.003 321.874 206.003 321.004C206.003 320.137 206.119 319.396 206.351 318.781C206.585 318.167 206.921 317.698 207.358 317.375C207.799 317.052 208.325 316.891 208.937 316.891C209.549 316.891 210.073 317.053 210.511 317.379C210.948 317.702 211.283 318.171 211.515 318.785C211.749 319.397 211.866 320.137 211.866 321.004C211.866 321.876 211.75 322.621 211.519 323.238C211.287 323.853 210.952 324.323 210.515 324.648C210.077 324.971 209.551 325.133 208.937 325.133ZM208.937 324.09C209.478 324.09 209.901 323.826 210.206 323.297C210.513 322.768 210.667 322.004 210.667 321.004C210.667 320.34 210.597 319.779 210.456 319.32C210.318 318.859 210.119 318.51 209.858 318.273C209.601 318.034 209.293 317.914 208.937 317.914C208.397 317.914 207.974 318.18 207.667 318.711C207.36 319.242 207.205 320.007 207.202 321.004C207.202 321.671 207.271 322.234 207.409 322.695C207.55 323.154 207.749 323.501 208.007 323.738C208.265 323.973 208.575 324.09 208.937 324.09Z" fill="#52667A"/>
<path d="M99.8082 375.131V373.364H109.092V375.131H105.496V385H103.405V375.131H99.8082ZM113.332 385.17C112.48 385.17 111.741 384.983 111.116 384.608C110.491 384.233 110.007 383.708 109.662 383.034C109.321 382.36 109.151 381.572 109.151 380.67C109.151 379.769 109.321 378.979 109.662 378.301C110.007 377.623 110.491 377.097 111.116 376.722C111.741 376.347 112.48 376.159 113.332 376.159C114.185 376.159 114.923 376.347 115.548 376.722C116.173 377.097 116.656 377.623 116.997 378.301C117.342 378.979 117.514 379.769 117.514 380.67C117.514 381.572 117.342 382.36 116.997 383.034C116.656 383.708 116.173 384.233 115.548 384.608C114.923 384.983 114.185 385.17 113.332 385.17ZM113.344 383.523C113.806 383.523 114.192 383.396 114.503 383.142C114.813 382.884 115.045 382.54 115.196 382.108C115.351 381.676 115.429 381.195 115.429 380.665C115.429 380.131 115.351 379.648 115.196 379.216C115.045 378.78 114.813 378.434 114.503 378.176C114.192 377.919 113.806 377.79 113.344 377.79C112.87 377.79 112.476 377.919 112.162 378.176C111.851 378.434 111.618 378.78 111.463 379.216C111.312 379.648 111.236 380.131 111.236 380.665C111.236 381.195 111.312 381.676 111.463 382.108C111.618 382.54 111.851 382.884 112.162 383.142C112.476 383.396 112.87 383.523 113.344 383.523ZM123.32 385V373.364H125.376V377.716H125.462C125.568 377.504 125.717 377.278 125.911 377.04C126.104 376.797 126.365 376.591 126.695 376.42C127.024 376.246 127.445 376.159 127.956 376.159C128.63 376.159 129.238 376.331 129.78 376.676C130.325 377.017 130.757 377.523 131.075 378.193C131.397 378.86 131.558 379.678 131.558 380.648C131.558 381.606 131.401 382.42 131.087 383.091C130.772 383.761 130.344 384.273 129.803 384.625C129.261 384.977 128.647 385.153 127.962 385.153C127.462 385.153 127.047 385.07 126.717 384.903C126.388 384.737 126.123 384.536 125.922 384.301C125.725 384.062 125.571 383.837 125.462 383.625H125.342V385H123.32ZM125.337 380.636C125.337 381.201 125.416 381.695 125.575 382.119C125.738 382.544 125.971 382.875 126.274 383.114C126.581 383.348 126.952 383.466 127.388 383.466C127.842 383.466 128.223 383.345 128.53 383.102C128.837 382.856 129.068 382.521 129.223 382.097C129.382 381.669 129.462 381.182 129.462 380.636C129.462 380.095 129.384 379.614 129.229 379.193C129.073 378.773 128.842 378.443 128.536 378.205C128.229 377.966 127.846 377.847 127.388 377.847C126.948 377.847 126.575 377.962 126.268 378.193C125.962 378.424 125.729 378.748 125.57 379.165C125.414 379.581 125.337 380.072 125.337 380.636ZM137.114 385.17C136.261 385.17 135.523 384.983 134.898 384.608C134.273 384.233 133.788 383.708 133.443 383.034C133.102 382.36 132.932 381.572 132.932 380.67C132.932 379.769 133.102 378.979 133.443 378.301C133.788 377.623 134.273 377.097 134.898 376.722C135.523 376.347 136.261 376.159 137.114 376.159C137.966 376.159 138.705 376.347 139.33 376.722C139.955 377.097 140.438 377.623 140.778 378.301C141.123 378.979 141.295 379.769 141.295 380.67C141.295 381.572 141.123 382.36 140.778 383.034C140.438 383.708 139.955 384.233 139.33 384.608C138.705 384.983 137.966 385.17 137.114 385.17ZM137.125 383.523C137.587 383.523 137.973 383.396 138.284 383.142C138.595 382.884 138.826 382.54 138.977 382.108C139.133 381.676 139.21 381.195 139.21 380.665C139.21 380.131 139.133 379.648 138.977 379.216C138.826 378.78 138.595 378.434 138.284 378.176C137.973 377.919 137.587 377.79 137.125 377.79C136.652 377.79 136.258 377.919 135.943 378.176C135.633 378.434 135.4 378.78 135.244 379.216C135.093 379.648 135.017 380.131 135.017 380.665C135.017 381.195 135.093 381.676 135.244 382.108C135.4 382.54 135.633 382.884 135.943 383.142C136.258 383.396 136.652 383.523 137.125 383.523ZM146.848 385.17C145.996 385.17 145.257 384.983 144.632 384.608C144.007 384.233 143.522 383.708 143.178 383.034C142.837 382.36 142.666 381.572 142.666 380.67C142.666 379.769 142.837 378.979 143.178 378.301C143.522 377.623 144.007 377.097 144.632 376.722C145.257 376.347 145.996 376.159 146.848 376.159C147.7 376.159 148.439 376.347 149.064 376.722C149.689 377.097 150.172 377.623 150.513 378.301C150.857 378.979 151.03 379.769 151.03 380.67C151.03 381.572 150.857 382.36 150.513 383.034C150.172 383.708 149.689 384.233 149.064 384.608C148.439 384.983 147.7 385.17 146.848 385.17ZM146.859 383.523C147.321 383.523 147.708 383.396 148.018 383.142C148.329 382.884 148.56 382.54 148.712 382.108C148.867 381.676 148.945 381.195 148.945 380.665C148.945 380.131 148.867 379.648 148.712 379.216C148.56 378.78 148.329 378.434 148.018 378.176C147.708 377.919 147.321 377.79 146.859 377.79C146.386 377.79 145.992 377.919 145.678 378.176C145.367 378.434 145.134 378.78 144.979 379.216C144.827 379.648 144.751 380.131 144.751 380.665C144.751 381.195 144.827 381.676 144.979 382.108C145.134 382.54 145.367 382.884 145.678 383.142C145.992 383.396 146.386 383.523 146.859 383.523ZM154.651 382.261L154.645 379.778H154.974L158.111 376.273H160.514L156.656 380.568H156.23L154.651 382.261ZM152.776 385V373.364H154.832V385H152.776ZM158.253 385L155.412 381.028L156.798 379.58L160.713 385H158.253Z" fill="white"/>
</g>
<defs>
<clipPath id="clip0_119_29">
<rect width="260" height="566" fill="white"/>
</clipPath>
</defs>
</svg>
