<svg width="260" height="566" viewBox="0 0 260 566" fill="none" xmlns="http://www.w3.org/2000/svg">
<g clip-path="url(#clip0_104_2)">
<mask id="mask0_104_2" style="mask-type:luminance" maskUnits="userSpaceOnUse" x="0" y="0" width="260" height="566">
<path d="M230.667 0H29.3333C13.133 0 0 13.2108 0 29.5071V536.493C0 552.789 13.133 566 29.3333 566H230.667C246.867 566 260 552.789 260 536.493V29.5071C260 13.2108 246.867 0 230.667 0Z" fill="white"/>
</mask>
<g mask="url(#mask0_104_2)">
<path d="M230.19 0H28.8569C12.6565 0 -0.47644 13.2108 -0.47644 29.5071V536.493C-0.47644 552.789 12.6565 566 28.8569 566H230.19C246.391 566 259.524 552.789 259.524 536.493V29.5071C259.524 13.2108 246.391 0 230.19 0Z" fill="#E6E6E6"/>
<path fill-rule="evenodd" clip-rule="evenodd" d="M0.913644 344.759C-0.489249 341.723 -1.41551 338.154 -1.48639 334.18C-0.701102 337.705 0.100624 341.238 0.913644 344.759Z" fill="#A1D6FF"/>
<path d="M26.179 436.248L355.732 347.422C356.944 327.863 342.036 235.617 316.222 169.739C314.35 164.963 312.422 160.326 310.437 155.864C294.889 120.905 275.942 96.7759 254.554 101.639C206.682 114.543 196 159.409 200.121 180.295C201.306 182.994 199.397 177.871 200.121 180.295C200.753 183.501 198.872 178.421 200.121 180.295C189.132 155.254 158.264 121.32 106.23 133.085C34.1754 149.376 26.7576 209.596 27.2594 235.379C16.3509 230.139 -1.11131 226.448 -12.927 239.45C-18.7576 245.865 -11.444 289.476 -1.48641 334.18C-0.701126 337.705 0.1006 341.238 0.91362 344.759C10.683 387.072 22.0831 427.809 26.179 436.248Z" fill="#A1D6FF"/>
<path d="M224.861 224.467L226.168 235.873L235.628 242.3L224.288 243.615L217.898 253.131L216.592 241.724L207.132 235.296L218.472 233.982L224.861 224.467Z" fill="white"/>
<path d="M52.7382 236.503L56.1793 241.39L62.108 241.944L57.2489 245.406L56.6983 251.37L53.2571 246.482L47.3285 245.928L52.1875 242.467L52.7382 236.503Z" fill="white"/>
<path d="M0.52356 307.142C0.52356 295.29 10.0748 285.682 21.8569 285.682H239.19C250.972 285.682 260.524 295.29 260.524 307.142V566H0.52356V307.142Z" fill="white"/>
<path d="M203.282 40.1013L204.233 48.3972L211.113 53.0713L202.866 54.0276L198.219 60.9477L197.268 52.6519L190.389 47.9778L198.636 47.0215L203.282 40.1013Z" fill="#FFB677"/>
<path d="M36.9858 66.1302L39.6846 69.9634L44.3342 70.3979L40.5234 73.1126L40.0916 77.7901L37.3928 73.9569L32.7432 73.5223L36.554 70.8077L36.9858 66.1302Z" fill="#F79846"/>
<path d="M229.19 501.956H35.8569C25.7317 501.956 17.5236 510.213 17.5236 520.398V532.469C17.5236 542.654 25.7317 550.911 35.8569 550.911H229.19C239.315 550.911 247.524 542.654 247.524 532.469V520.398C247.524 510.213 239.315 501.956 229.19 501.956Z" fill="#F2E9FF"/>
<path d="M229.19 501.956H35.8569C25.7317 501.956 17.5236 510.213 17.5236 520.398V532.469C17.5236 542.654 25.7317 550.911 35.8569 550.911H229.19C239.315 550.911 247.524 542.654 247.524 532.469V520.398C247.524 510.213 239.315 501.956 229.19 501.956Z" stroke="#69BDFF"/>
<path d="M30.5235 468.09H26.5235C25.0508 468.09 23.8569 469.291 23.8569 470.772V474.796C23.8569 476.278 25.0508 477.479 26.5235 477.479H30.5235C31.9963 477.479 33.1902 476.278 33.1902 474.796V470.772C33.1902 469.291 31.9963 468.09 30.5235 468.09Z" stroke="#69BDFF" stroke-width="2"/>
<path d="M23.8569 369.509H239.19" stroke="#69BDFF" stroke-width="2"/>
<mask id="mask1_104_2" style="mask-type:luminance" maskUnits="userSpaceOnUse" x="223" y="384" width="17" height="18">
<path d="M239.19 384.934H223.19V401.028H239.19V384.934Z" fill="white"/>
</mask>
<g mask="url(#mask1_104_2)">
<path d="M226.204 388.913L224.119 386.817L225.062 385.868L238.262 399.146L237.318 400.094L235.112 397.875C233.939 398.623 232.578 399.019 231.19 399.017C227.596 399.017 224.605 396.415 223.978 392.981C224.264 391.419 225.044 389.992 226.204 388.913ZM233.028 395.779L232.052 394.797C231.679 394.977 231.259 395.036 230.852 394.965C230.444 394.895 230.067 394.699 229.775 394.405C229.482 394.11 229.288 393.732 229.218 393.322C229.148 392.911 229.206 392.489 229.385 392.114L228.409 391.132C227.984 391.777 227.795 392.549 227.872 393.318C227.949 394.088 228.288 394.807 228.832 395.354C229.375 395.9 230.09 396.242 230.854 396.319C231.619 396.396 232.387 396.205 233.028 395.779ZM228.506 387.455C229.338 387.127 230.244 386.946 231.19 386.946C234.785 386.946 237.776 389.547 238.403 392.981C238.198 394.098 237.74 395.152 237.062 396.061L234.488 393.472C234.564 392.954 234.519 392.425 234.356 391.928C234.193 391.431 233.916 390.979 233.548 390.608C233.18 390.238 232.73 389.96 232.236 389.796C231.742 389.631 231.216 389.586 230.702 389.663L228.506 387.455Z" fill="#69BDFF"/>
</g>
<path d="M23.8569 407.064H239.19" stroke="#69BDFF" stroke-width="2"/>
<path d="M23.8569 443.277H237.19" stroke="#69BDFF" stroke-width="2"/>
<path d="M25.8569 55.7564L21.6143 51.4887C21.3539 51.2268 21.3539 50.8022 21.6143 50.5403L25.8569 46.2725" stroke="#2A3034" stroke-width="3.5" stroke-linecap="round"/>
</g>
<path d="M21.5781 323V307H27.5781C28.8073 307 29.8385 307.214 30.6719 307.641C31.5104 308.068 32.1432 308.667 32.5703 309.437C33.0026 310.203 33.2188 311.096 33.2188 312.117C33.2188 313.143 33 314.034 32.5625 314.789C32.1302 315.539 31.4922 316.12 30.6484 316.531C29.8047 316.937 28.7682 317.141 27.5391 317.141H23.2656V314.734H27.1484C27.8672 314.734 28.4557 314.635 28.9141 314.437C29.3724 314.234 29.7109 313.94 29.9297 313.555C30.1536 313.164 30.2656 312.685 30.2656 312.117C30.2656 311.549 30.1536 311.065 29.9297 310.664C29.7057 310.258 29.3646 309.951 28.9063 309.742C28.4479 309.529 27.8568 309.422 27.1328 309.422H24.4766V323H21.5781ZM29.8438 315.75L33.8047 323H30.5703L26.6797 315.75H29.8438ZM40.9023 323.234C39.6992 323.234 38.6602 322.984 37.7852 322.484C36.9154 321.979 36.2461 321.266 35.7773 320.344C35.3086 319.417 35.0742 318.326 35.0742 317.07C35.0742 315.836 35.3086 314.753 35.7773 313.82C36.2513 312.883 36.9128 312.154 37.7617 311.633C38.6107 311.107 39.6081 310.844 40.7539 310.844C41.4935 310.844 42.1914 310.964 42.8477 311.203C43.5091 311.437 44.0924 311.802 44.5977 312.297C45.1081 312.792 45.5091 313.422 45.8008 314.187C46.0924 314.948 46.2383 315.854 46.2383 316.906V317.773H36.4023V315.867H43.5273C43.5221 315.326 43.4049 314.844 43.1758 314.422C42.9466 313.995 42.6263 313.659 42.2148 313.414C41.8086 313.169 41.3346 313.047 40.793 313.047C40.2148 313.047 39.707 313.187 39.2695 313.469C38.832 313.745 38.4909 314.109 38.2461 314.562C38.0065 315.01 37.8841 315.503 37.8789 316.039V317.703C37.8789 318.401 38.0065 319 38.2617 319.5C38.5169 319.995 38.8737 320.375 39.332 320.641C39.7904 320.901 40.3268 321.031 40.9414 321.031C41.3529 321.031 41.7253 320.974 42.0586 320.859C42.3919 320.74 42.681 320.565 42.9258 320.336C43.1706 320.107 43.3555 319.823 43.4805 319.484L46.1211 319.781C45.9544 320.479 45.6367 321.089 45.168 321.609C44.7044 322.125 44.1107 322.526 43.3867 322.812C42.6628 323.094 41.8346 323.234 40.9023 323.234ZM53.8496 327.75C52.834 327.75 51.9616 327.612 51.2324 327.336C50.5033 327.065 49.9173 326.701 49.4746 326.242C49.0319 325.784 48.7246 325.276 48.5527 324.719L51.0996 324.102C51.2142 324.336 51.3809 324.568 51.5996 324.797C51.8184 325.031 52.1126 325.224 52.4824 325.375C52.8574 325.531 53.3288 325.609 53.8965 325.609C54.6986 325.609 55.3626 325.414 55.8887 325.023C56.4147 324.638 56.6777 324.003 56.6777 323.117V320.844H56.5371C56.3913 321.135 56.1777 321.435 55.8965 321.742C55.6204 322.049 55.2533 322.307 54.7949 322.516C54.3418 322.724 53.7715 322.828 53.084 322.828C52.1621 322.828 51.3262 322.612 50.5762 322.18C49.8314 321.742 49.2376 321.091 48.7949 320.227C48.3574 319.357 48.1387 318.268 48.1387 316.961C48.1387 315.643 48.3574 314.531 48.7949 313.625C49.2376 312.714 49.834 312.023 50.584 311.555C51.334 311.081 52.1699 310.844 53.0918 310.844C53.7949 310.844 54.373 310.964 54.8262 311.203C55.2845 311.437 55.6491 311.721 55.9199 312.055C56.1908 312.383 56.3965 312.693 56.5371 312.984H56.6934V311H59.4824V323.195C59.4824 324.221 59.2376 325.07 58.748 325.742C58.2585 326.414 57.5892 326.917 56.7402 327.25C55.8913 327.583 54.9277 327.75 53.8496 327.75ZM53.873 320.609C54.472 320.609 54.9824 320.464 55.4043 320.172C55.8262 319.88 56.1465 319.461 56.3652 318.914C56.584 318.367 56.6934 317.711 56.6934 316.945C56.6934 316.19 56.584 315.529 56.3652 314.961C56.1517 314.393 55.834 313.953 55.4121 313.641C54.9954 313.323 54.4824 313.164 53.873 313.164C53.2428 313.164 52.7168 313.328 52.2949 313.656C51.873 313.984 51.5553 314.435 51.3418 315.008C51.1283 315.576 51.0215 316.221 51.0215 316.945C51.0215 317.68 51.1283 318.323 51.3418 318.875C51.5605 319.422 51.8809 319.849 52.3027 320.156C52.7298 320.458 53.2533 320.609 53.873 320.609ZM62.3809 323V311H65.209V323H62.3809ZM63.8027 309.297C63.3548 309.297 62.9694 309.148 62.6465 308.852C62.3236 308.549 62.1621 308.187 62.1621 307.766C62.1621 307.339 62.3236 306.977 62.6465 306.68C62.9694 306.378 63.3548 306.227 63.8027 306.227C64.2559 306.227 64.6413 306.378 64.959 306.68C65.2819 306.977 65.4434 307.339 65.4434 307.766C65.4434 308.187 65.2819 308.549 64.959 308.852C64.6413 309.148 64.2559 309.297 63.8027 309.297ZM77.6016 314.172L75.0234 314.453C74.9505 314.193 74.8229 313.948 74.6406 313.719C74.4635 313.49 74.224 313.305 73.9219 313.164C73.6198 313.023 73.25 312.953 72.8125 312.953C72.224 312.953 71.7292 313.081 71.3281 313.336C70.9323 313.591 70.737 313.922 70.7422 314.328C70.737 314.677 70.8646 314.961 71.125 315.18C71.3906 315.398 71.8281 315.578 72.4375 315.719L74.4844 316.156C75.6198 316.401 76.4635 316.789 77.0156 317.32C77.5729 317.852 77.8542 318.547 77.8594 319.406C77.8542 320.161 77.6328 320.828 77.1953 321.406C76.763 321.979 76.1615 322.427 75.3906 322.75C74.6198 323.073 73.7344 323.234 72.7344 323.234C71.2656 323.234 70.0833 322.927 69.1875 322.312C68.2917 321.693 67.7578 320.831 67.5859 319.727L70.3438 319.461C70.4688 320.003 70.7344 320.411 71.1406 320.687C71.5469 320.964 72.0755 321.102 72.7266 321.102C73.3984 321.102 73.9375 320.964 74.3438 320.687C74.7552 320.411 74.9609 320.07 74.9609 319.664C74.9609 319.32 74.8281 319.036 74.5625 318.812C74.3021 318.589 73.8958 318.417 73.3437 318.297L71.2969 317.867C70.1458 317.628 69.2943 317.224 68.7422 316.656C68.1901 316.083 67.9167 315.359 67.9219 314.484C67.9167 313.745 68.1172 313.104 68.5234 312.562C68.9349 312.016 69.5052 311.594 70.2344 311.297C70.9688 310.995 71.8151 310.844 72.7734 310.844C74.1797 310.844 75.2865 311.143 76.0938 311.742C76.9063 312.341 77.4089 313.151 77.6016 314.172ZM86.1836 311V313.187H79.2852V311H86.1836ZM80.9883 308.125H83.8164V319.391C83.8164 319.771 83.8737 320.063 83.9883 320.266C84.1081 320.464 84.2643 320.599 84.457 320.672C84.6497 320.745 84.8633 320.781 85.0977 320.781C85.2747 320.781 85.4362 320.768 85.582 320.742C85.7331 320.716 85.8477 320.693 85.9258 320.672L86.4023 322.883C86.2513 322.935 86.0352 322.992 85.7539 323.055C85.4779 323.117 85.1393 323.154 84.7383 323.164C84.0299 323.185 83.3919 323.078 82.8242 322.844C82.2565 322.604 81.806 322.234 81.4727 321.734C81.1445 321.234 80.9831 320.609 80.9883 319.859V308.125ZM88.5488 323V311H91.291V313H91.416C91.6348 312.307 92.0098 311.773 92.541 311.398C93.0775 311.018 93.6895 310.828 94.377 310.828C94.5332 310.828 94.7077 310.836 94.9004 310.852C95.0983 310.862 95.2624 310.88 95.3926 310.906V313.508C95.2728 313.466 95.0827 313.43 94.8223 313.398C94.5671 313.362 94.3197 313.344 94.0801 313.344C93.5645 313.344 93.1009 313.456 92.6895 313.68C92.2832 313.898 91.9629 314.203 91.7285 314.594C91.4941 314.984 91.377 315.435 91.377 315.945V323H88.5488ZM100.51 323.242C99.7493 323.242 99.0645 323.107 98.4551 322.836C97.8509 322.56 97.3717 322.154 97.0176 321.617C96.6686 321.081 96.4941 320.419 96.4941 319.633C96.4941 318.956 96.6191 318.396 96.8691 317.953C97.1191 317.51 97.4603 317.156 97.8926 316.891C98.3249 316.625 98.8118 316.424 99.3535 316.289C99.9004 316.148 100.465 316.047 101.049 315.984C101.752 315.911 102.322 315.846 102.76 315.789C103.197 315.727 103.515 315.633 103.713 315.508C103.916 315.378 104.018 315.177 104.018 314.906V314.859C104.018 314.271 103.843 313.815 103.494 313.492C103.145 313.169 102.643 313.008 101.986 313.008C101.294 313.008 100.744 313.159 100.338 313.461C99.9368 313.763 99.666 314.12 99.5254 314.531L96.8848 314.156C97.0931 313.427 97.4368 312.818 97.916 312.328C98.3952 311.833 98.9811 311.464 99.6738 311.219C100.367 310.969 101.132 310.844 101.971 310.844C102.549 310.844 103.124 310.911 103.697 311.047C104.27 311.182 104.794 311.406 105.268 311.719C105.742 312.026 106.122 312.445 106.408 312.977C106.7 313.508 106.846 314.172 106.846 314.969V323H104.127V321.352H104.033C103.861 321.685 103.619 321.997 103.307 322.289C102.999 322.576 102.611 322.807 102.143 322.984C101.679 323.156 101.135 323.242 100.51 323.242ZM101.244 321.164C101.812 321.164 102.304 321.052 102.721 320.828C103.137 320.599 103.458 320.297 103.682 319.922C103.911 319.547 104.025 319.138 104.025 318.695V317.281C103.937 317.354 103.786 317.422 103.572 317.484C103.364 317.547 103.13 317.602 102.869 317.648C102.609 317.695 102.351 317.737 102.096 317.773C101.84 317.81 101.619 317.841 101.432 317.867C101.01 317.924 100.632 318.018 100.299 318.148C99.9655 318.279 99.7025 318.461 99.5098 318.695C99.3171 318.924 99.2207 319.221 99.2207 319.586C99.2207 320.107 99.4108 320.5 99.791 320.766C100.171 321.031 100.656 321.164 101.244 321.164ZM115.682 311V313.187H108.783V311H115.682ZM110.486 308.125H113.314V319.391C113.314 319.771 113.372 320.063 113.486 320.266C113.606 320.464 113.762 320.599 113.955 320.672C114.148 320.745 114.361 320.781 114.596 320.781C114.773 320.781 114.934 320.768 115.08 320.742C115.231 320.716 115.346 320.693 115.424 320.672L115.9 322.883C115.749 322.935 115.533 322.992 115.252 323.055C114.976 323.117 114.637 323.154 114.236 323.164C113.528 323.185 112.89 323.078 112.322 322.844C111.755 322.604 111.304 322.234 110.971 321.734C110.643 321.234 110.481 320.609 110.486 319.859V308.125ZM118.047 323V311H120.875V323H118.047ZM119.469 309.297C119.021 309.297 118.635 309.148 118.312 308.852C117.99 308.549 117.828 308.187 117.828 307.766C117.828 307.339 117.99 306.977 118.312 306.68C118.635 306.378 119.021 306.227 119.469 306.227C119.922 306.227 120.307 306.378 120.625 306.68C120.948 306.977 121.109 307.339 121.109 307.766C121.109 308.187 120.948 308.549 120.625 308.852C120.307 309.148 119.922 309.297 119.469 309.297ZM129.018 323.234C127.846 323.234 126.83 322.977 125.971 322.461C125.111 321.945 124.445 321.224 123.971 320.297C123.502 319.37 123.268 318.286 123.268 317.047C123.268 315.807 123.502 314.721 123.971 313.789C124.445 312.857 125.111 312.133 125.971 311.617C126.83 311.102 127.846 310.844 129.018 310.844C130.189 310.844 131.205 311.102 132.064 311.617C132.924 312.133 133.588 312.857 134.057 313.789C134.531 314.721 134.768 315.807 134.768 317.047C134.768 318.286 134.531 319.37 134.057 320.297C133.588 321.224 132.924 321.945 132.064 322.461C131.205 322.977 130.189 323.234 129.018 323.234ZM129.033 320.969C129.669 320.969 130.2 320.794 130.627 320.445C131.054 320.091 131.372 319.617 131.58 319.023C131.794 318.43 131.9 317.768 131.9 317.039C131.9 316.305 131.794 315.641 131.58 315.047C131.372 314.448 131.054 313.971 130.627 313.617C130.2 313.263 129.669 313.086 129.033 313.086C128.382 313.086 127.84 313.263 127.408 313.617C126.981 313.971 126.661 314.448 126.447 315.047C126.239 315.641 126.135 316.305 126.135 317.039C126.135 317.768 126.239 318.43 126.447 319.023C126.661 319.617 126.981 320.091 127.408 320.445C127.84 320.794 128.382 320.969 129.033 320.969ZM139.996 315.969V323H137.168V311H139.871V313.039H140.012C140.288 312.367 140.728 311.833 141.332 311.437C141.941 311.042 142.694 310.844 143.59 310.844C144.418 310.844 145.139 311.021 145.754 311.375C146.374 311.729 146.853 312.242 147.191 312.914C147.535 313.586 147.704 314.401 147.699 315.359V323H144.871V315.797C144.871 314.995 144.663 314.367 144.246 313.914C143.835 313.461 143.264 313.234 142.535 313.234C142.04 313.234 141.6 313.344 141.215 313.562C140.835 313.776 140.535 314.086 140.316 314.492C140.103 314.898 139.996 315.391 139.996 315.969Z" fill="#2A3034"/>
<path d="M24.2855 351.273H25.7812L28.0611 355.24H28.1548L30.4347 351.273H31.9304L28.7642 356.574V360H27.4517V356.574L24.2855 351.273ZM34.7504 360.132C34.1367 360.132 33.6012 359.991 33.1438 359.71C32.6864 359.429 32.3313 359.036 32.0785 358.53C31.8256 358.024 31.6992 357.433 31.6992 356.757C31.6992 356.078 31.8256 355.484 32.0785 354.976C32.3313 354.467 32.6864 354.072 33.1438 353.791C33.6012 353.51 34.1367 353.369 34.7504 353.369C35.364 353.369 35.8995 353.51 36.3569 353.791C36.8143 354.072 37.1694 354.467 37.4222 354.976C37.6751 355.484 37.8015 356.078 37.8015 356.757C37.8015 357.433 37.6751 358.024 37.4222 358.53C37.1694 359.036 36.8143 359.429 36.3569 359.71C35.8995 359.991 35.364 360.132 34.7504 360.132ZM34.7546 359.062C35.1523 359.062 35.4819 358.957 35.7433 358.747C36.0046 358.537 36.1978 358.257 36.3228 357.908C36.4506 357.558 36.5146 357.173 36.5146 356.753C36.5146 356.335 36.4506 355.952 36.3228 355.602C36.1978 355.25 36.0046 354.967 35.7433 354.754C35.4819 354.541 35.1523 354.435 34.7546 354.435C34.354 354.435 34.0217 354.541 33.7575 354.754C33.4961 354.967 33.3015 355.25 33.1737 355.602C33.0487 355.952 32.9862 356.335 32.9862 356.753C32.9862 357.173 33.0487 357.558 33.1737 357.908C33.3015 358.257 33.4961 358.537 33.7575 358.747C34.0217 358.957 34.354 359.062 34.7546 359.062ZM43.37 357.286V353.455H44.6484V360H43.3956V358.866H43.3274C43.1768 359.216 42.9354 359.507 42.603 359.74C42.2734 359.97 41.8629 360.085 41.3714 360.085C40.951 360.085 40.5788 359.993 40.255 359.808C39.9339 359.621 39.6811 359.344 39.4964 358.977C39.3146 358.611 39.2237 358.158 39.2237 357.618V353.455H40.4979V357.464C40.4979 357.911 40.6214 358.266 40.8686 358.53C41.1158 358.794 41.4368 358.926 41.8317 358.926C42.0703 358.926 42.3075 358.866 42.5433 358.747C42.782 358.628 42.9794 358.447 43.1357 358.206C43.2947 357.964 43.3729 357.658 43.37 357.286ZM46.3604 360V353.455H47.592V354.494H47.6602C47.7795 354.142 47.9897 353.865 48.2908 353.663C48.5948 353.459 48.9386 353.357 49.3221 353.357C49.4016 353.357 49.4954 353.359 49.6033 353.365C49.7141 353.371 49.8008 353.378 49.8633 353.386V354.605C49.8121 354.591 49.7212 354.575 49.5906 354.558C49.4599 354.538 49.3292 354.528 49.1985 354.528C48.8974 354.528 48.6289 354.592 48.3931 354.72C48.1602 354.845 47.9755 355.02 47.8391 355.244C47.7028 355.466 47.6346 355.719 47.6346 356.003V360H46.3604ZM54.1417 362.455V353.455H55.386V354.516H55.4925C55.5664 354.379 55.6729 354.222 55.8121 354.043C55.9513 353.864 56.1445 353.707 56.3917 353.574C56.6388 353.438 56.9656 353.369 57.3718 353.369C57.9002 353.369 58.3718 353.503 58.7866 353.77C59.2013 354.037 59.5266 354.422 59.7624 354.925C60.0011 355.428 60.1204 356.033 60.1204 356.74C60.1204 357.447 60.0025 358.054 59.7667 358.56C59.5309 359.062 59.207 359.45 58.7951 359.723C58.3832 359.993 57.913 360.128 57.3846 360.128C56.9869 360.128 56.6616 360.061 56.4087 359.928C56.1587 359.794 55.9627 359.638 55.8207 359.459C55.6786 359.28 55.5692 359.121 55.4925 358.982H55.4158V362.455H54.1417ZM55.3903 356.727C55.3903 357.187 55.457 357.591 55.5906 357.938C55.7241 358.284 55.9173 358.555 56.1701 358.751C56.4229 358.945 56.7326 359.041 57.0991 359.041C57.4798 359.041 57.7979 358.94 58.0536 358.739C58.3093 358.534 58.5025 358.257 58.6332 357.908C58.7667 357.558 58.8335 357.165 58.8335 356.727C58.8335 356.295 58.7681 355.908 58.6374 355.564C58.5096 355.22 58.3164 354.949 58.0579 354.75C57.8022 354.551 57.4826 354.452 57.0991 354.452C56.7298 354.452 56.4173 354.547 56.1616 354.737C55.9087 354.928 55.717 355.193 55.5863 355.534C55.4556 355.875 55.3903 356.273 55.3903 356.727ZM62.8221 356.114V360H61.5479V351.273H62.805V354.52H62.886C63.0394 354.168 63.2738 353.888 63.5891 353.68C63.9045 353.473 64.3164 353.369 64.8249 353.369C65.2738 353.369 65.6658 353.462 66.0011 353.646C66.3391 353.831 66.6005 354.107 66.7852 354.473C66.9727 354.837 67.0664 355.291 67.0664 355.837V360H65.7923V355.99C65.7923 355.51 65.6687 355.138 65.4215 354.874C65.1744 354.607 64.8306 354.473 64.3903 354.473C64.0891 354.473 63.8192 354.537 63.5806 354.665C63.3448 354.793 63.1587 354.98 63.0224 355.227C62.8888 355.472 62.8221 355.767 62.8221 356.114ZM71.5238 360.132C70.9102 360.132 70.3746 359.991 69.9173 359.71C69.4599 359.429 69.1048 359.036 68.8519 358.53C68.5991 358.024 68.4727 357.433 68.4727 356.757C68.4727 356.078 68.5991 355.484 68.8519 354.976C69.1048 354.467 69.4599 354.072 69.9173 353.791C70.3746 353.51 70.9102 353.369 71.5238 353.369C72.1374 353.369 72.6729 353.51 73.1303 353.791C73.5877 354.072 73.9428 354.467 74.1957 354.976C74.4485 355.484 74.5749 356.078 74.5749 356.757C74.5749 357.433 74.4485 358.024 74.1957 358.53C73.9428 359.036 73.5877 359.429 73.1303 359.71C72.6729 359.991 72.1374 360.132 71.5238 360.132ZM71.5281 359.062C71.9258 359.062 72.2553 358.957 72.5167 358.747C72.7781 358.537 72.9712 358.257 73.0962 357.908C73.2241 357.558 73.288 357.173 73.288 356.753C73.288 356.335 73.2241 355.952 73.0962 355.602C72.9712 355.25 72.7781 354.967 72.5167 354.754C72.2553 354.541 71.9258 354.435 71.5281 354.435C71.1275 354.435 70.7951 354.541 70.5309 354.754C70.2695 354.967 70.0749 355.25 69.9471 355.602C69.8221 355.952 69.7596 356.335 69.7596 356.753C69.7596 357.173 69.8221 357.558 69.9471 357.908C70.0749 358.257 70.2695 358.537 70.5309 358.747C70.7951 358.957 71.1275 359.062 71.5281 359.062ZM77.2713 356.114V360H75.9972V353.455H77.2202V354.52H77.3011C77.4517 354.173 77.6875 353.895 78.0085 353.685C78.3324 353.474 78.7401 353.369 79.2315 353.369C79.6776 353.369 80.0682 353.463 80.4034 353.651C80.7386 353.835 80.9986 354.111 81.1832 354.477C81.3679 354.844 81.4602 355.297 81.4602 355.837V360H80.1861V355.99C80.1861 355.516 80.0625 355.145 79.8153 354.878C79.5682 354.608 79.2287 354.473 78.7969 354.473C78.5014 354.473 78.2386 354.537 78.0085 354.665C77.7813 354.793 77.6009 354.98 77.4673 355.227C77.3366 355.472 77.2713 355.767 77.2713 356.114ZM85.9901 360.132C85.3452 360.132 84.7898 359.994 84.3239 359.719C83.8608 359.44 83.5028 359.05 83.25 358.547C83 358.041 82.875 357.449 82.875 356.77C82.875 356.099 83 355.509 83.25 354.997C83.5028 354.486 83.8551 354.087 84.3068 353.8C84.7614 353.513 85.2926 353.369 85.9006 353.369C86.2699 353.369 86.6278 353.43 86.9744 353.553C87.321 353.675 87.6321 353.866 87.9077 354.128C88.1832 354.389 88.4006 354.729 88.5597 355.146C88.7188 355.561 88.7983 356.065 88.7983 356.659V357.111H83.5952V356.156H87.5497C87.5497 355.821 87.4815 355.524 87.3452 355.266C87.2088 355.004 87.017 354.798 86.7699 354.648C86.5256 354.497 86.2386 354.422 85.9091 354.422C85.5511 354.422 85.2386 354.51 84.9716 354.686C84.7074 354.859 84.5028 355.087 84.358 355.368C84.2159 355.646 84.1449 355.949 84.1449 356.276V357.021C84.1449 357.459 84.2216 357.831 84.375 358.138C84.5312 358.445 84.7486 358.679 85.027 358.841C85.3054 359 85.6307 359.08 86.0028 359.08C86.2443 359.08 86.4645 359.045 86.6634 358.977C86.8622 358.906 87.0341 358.801 87.179 358.662C87.3239 358.523 87.4347 358.351 87.5114 358.146L88.7173 358.364C88.6207 358.719 88.4474 359.03 88.1974 359.297C87.9503 359.561 87.6392 359.767 87.2642 359.915C86.892 360.06 86.4673 360.132 85.9901 360.132ZM94.6619 356.114V360H93.3878V353.455H94.6108V354.52H94.6918C94.8423 354.173 95.0781 353.895 95.3991 353.685C95.723 353.474 96.1307 353.369 96.6222 353.369C97.0682 353.369 97.4588 353.463 97.794 353.651C98.1293 353.835 98.3892 354.111 98.5739 354.477C98.7585 354.844 98.8509 355.297 98.8509 355.837V360H97.5767V355.99C97.5767 355.516 97.4531 355.145 97.206 354.878C96.9588 354.608 96.6193 354.473 96.1875 354.473C95.892 354.473 95.6293 354.537 95.3991 354.665C95.1719 354.793 94.9915 354.98 94.858 355.227C94.7273 355.472 94.6619 355.767 94.6619 356.114ZM104.706 357.286V353.455H105.984V360H104.732V358.866H104.663C104.513 359.216 104.271 359.507 103.939 359.74C103.609 359.97 103.199 360.085 102.707 360.085C102.287 360.085 101.915 359.993 101.591 359.808C101.27 359.621 101.017 359.344 100.832 358.977C100.651 358.611 100.56 358.158 100.56 357.618V353.455H101.834V357.464C101.834 357.911 101.957 358.266 102.205 358.53C102.452 358.794 102.773 358.926 103.168 358.926C103.406 358.926 103.643 358.866 103.879 358.747C104.118 358.628 104.315 358.447 104.472 358.206C104.631 357.964 104.709 357.658 104.706 357.286ZM107.696 360V353.455H108.919V354.52H109C109.137 354.159 109.36 353.878 109.669 353.676C109.979 353.472 110.35 353.369 110.782 353.369C111.219 353.369 111.586 353.472 111.881 353.676C112.179 353.881 112.4 354.162 112.542 354.52H112.61C112.766 354.17 113.015 353.892 113.355 353.685C113.696 353.474 114.103 353.369 114.574 353.369C115.168 353.369 115.652 353.555 116.027 353.928C116.405 354.3 116.594 354.861 116.594 355.611V360H115.32V355.73C115.32 355.287 115.199 354.966 114.958 354.767C114.716 354.568 114.428 354.469 114.093 354.469C113.678 354.469 113.355 354.597 113.125 354.852C112.895 355.105 112.78 355.43 112.78 355.828V360H111.51V355.649C111.51 355.294 111.4 355.009 111.178 354.793C110.956 354.577 110.668 354.469 110.313 354.469C110.071 354.469 109.848 354.533 109.644 354.661C109.442 354.786 109.279 354.96 109.154 355.185C109.032 355.409 108.971 355.669 108.971 355.964V360H107.696ZM118.404 360V351.273H119.678V354.516H119.755C119.829 354.379 119.935 354.222 120.075 354.043C120.214 353.864 120.407 353.707 120.654 353.574C120.901 353.438 121.228 353.369 121.634 353.369C122.163 353.369 122.634 353.503 123.049 353.77C123.464 354.037 123.789 354.422 124.025 354.925C124.263 355.428 124.383 356.033 124.383 356.74C124.383 357.447 124.265 358.054 124.029 358.56C123.793 359.062 123.469 359.45 123.058 359.723C122.646 359.993 122.175 360.128 121.647 360.128C121.249 360.128 120.924 360.061 120.671 359.928C120.421 359.794 120.225 359.638 120.083 359.459C119.941 359.28 119.832 359.121 119.755 358.982H119.648V360H118.404ZM119.653 356.727C119.653 357.187 119.719 357.591 119.853 357.938C119.987 358.284 120.18 358.555 120.433 358.751C120.685 358.945 120.995 359.041 121.362 359.041C121.742 359.041 122.06 358.94 122.316 358.739C122.572 358.534 122.765 358.257 122.896 357.908C123.029 357.558 123.096 357.165 123.096 356.727C123.096 356.295 123.031 355.908 122.9 355.564C122.772 355.22 122.579 354.949 122.32 354.75C122.065 354.551 121.745 354.452 121.362 354.452C120.992 354.452 120.68 354.547 120.424 354.737C120.171 354.928 119.979 355.193 119.849 355.534C119.718 355.875 119.653 356.273 119.653 356.727ZM128.635 360.132C127.99 360.132 127.434 359.994 126.968 359.719C126.505 359.44 126.147 359.05 125.895 358.547C125.645 358.041 125.52 357.449 125.52 356.77C125.52 356.099 125.645 355.509 125.895 354.997C126.147 354.486 126.5 354.087 126.951 353.8C127.406 353.513 127.937 353.369 128.545 353.369C128.914 353.369 129.272 353.43 129.619 353.553C129.966 353.675 130.277 353.866 130.552 354.128C130.828 354.389 131.045 354.729 131.204 355.146C131.363 355.561 131.443 356.065 131.443 356.659V357.111H126.24V356.156H130.194C130.194 355.821 130.126 355.524 129.99 355.266C129.853 355.004 129.662 354.798 129.414 354.648C129.17 354.497 128.883 354.422 128.554 354.422C128.196 354.422 127.883 354.51 127.616 354.686C127.352 354.859 127.147 355.087 127.002 355.368C126.86 355.646 126.789 355.949 126.789 356.276V357.021C126.789 357.459 126.866 357.831 127.02 358.138C127.176 358.445 127.393 358.679 127.672 358.841C127.95 359 128.275 359.08 128.647 359.08C128.889 359.08 129.109 359.045 129.308 358.977C129.507 358.906 129.679 358.801 129.824 358.662C129.968 358.523 130.079 358.351 130.156 358.146L131.362 358.364C131.265 358.719 131.092 359.03 130.842 359.297C130.595 359.561 130.284 359.767 129.909 359.915C129.537 360.06 129.112 360.132 128.635 360.132ZM132.857 360V353.455H134.088V354.494H134.156C134.276 354.142 134.486 353.865 134.787 353.663C135.091 353.459 135.435 353.357 135.818 353.357C135.898 353.357 135.991 353.359 136.099 353.365C136.21 353.371 136.297 353.378 136.359 353.386V354.605C136.308 354.591 136.217 354.575 136.087 354.558C135.956 354.538 135.825 354.528 135.695 354.528C135.393 354.528 135.125 354.592 134.889 354.72C134.656 354.845 134.472 355.02 134.335 355.244C134.199 355.466 134.131 355.719 134.131 356.003V360H132.857Z" fill="#52667A"/>
<path d="M24.9588 435V426.273H28.0696C28.7457 426.273 29.3068 426.389 29.7528 426.622C30.2017 426.855 30.5369 427.178 30.7585 427.589C30.9801 427.999 31.0909 428.472 31.0909 429.009C31.0909 429.543 30.9787 430.013 30.7543 430.419C30.5327 430.822 30.1974 431.136 29.7486 431.361C29.3026 431.585 28.7415 431.697 28.0653 431.697H25.7088V430.564H27.946C28.3722 430.564 28.7188 430.503 28.9858 430.381C29.2557 430.259 29.4531 430.081 29.5781 429.848C29.7031 429.615 29.7656 429.335 29.7656 429.009C29.7656 428.679 29.7017 428.393 29.5739 428.152C29.4489 427.911 29.2514 427.726 28.9815 427.598C28.7145 427.467 28.3636 427.402 27.929 427.402H26.2756V435H24.9588ZM29.267 431.062L31.4233 435H29.9233L27.8097 431.062H29.267ZM35.3299 435.132C34.685 435.132 34.1296 434.994 33.6637 434.719C33.2006 434.44 32.8427 434.05 32.5898 433.547C32.3398 433.041 32.2148 432.449 32.2148 431.77C32.2148 431.099 32.3398 430.509 32.5898 429.997C32.8427 429.486 33.195 429.087 33.6467 428.8C34.1012 428.513 34.6325 428.369 35.2404 428.369C35.6097 428.369 35.9677 428.43 36.3143 428.553C36.6609 428.675 36.9719 428.866 37.2475 429.128C37.5231 429.389 37.7404 429.729 37.8995 430.146C38.0586 430.561 38.1381 431.065 38.1381 431.659V432.111H32.935V431.156H36.8896C36.8896 430.821 36.8214 430.524 36.685 430.266C36.5487 430.004 36.3569 429.798 36.1097 429.648C35.8654 429.497 35.5785 429.422 35.2489 429.422C34.891 429.422 34.5785 429.51 34.3114 429.686C34.0472 429.859 33.8427 430.087 33.6978 430.368C33.5558 430.646 33.4847 430.949 33.4847 431.276V432.021C33.4847 432.459 33.5614 432.831 33.7148 433.138C33.8711 433.445 34.0884 433.679 34.3668 433.841C34.6452 434 34.9705 434.08 35.3427 434.08C35.5842 434.08 35.8043 434.045 36.0032 433.977C36.2021 433.906 36.3739 433.801 36.5188 433.662C36.6637 433.523 36.7745 433.351 36.8512 433.146L38.0572 433.364C37.9606 433.719 37.7873 434.03 37.5373 434.297C37.2901 434.561 36.979 434.767 36.604 434.915C36.2319 435.06 35.8072 435.132 35.3299 435.132ZM39.5518 437.455V428.455H40.7962V429.516H40.9027C40.9766 429.379 41.0831 429.222 41.2223 429.043C41.3615 428.864 41.5547 428.707 41.8018 428.574C42.049 428.438 42.3757 428.369 42.782 428.369C43.3104 428.369 43.782 428.503 44.1967 428.77C44.6115 429.037 44.9368 429.422 45.1726 429.925C45.4112 430.428 45.5305 431.033 45.5305 431.74C45.5305 432.447 45.4126 433.054 45.1768 433.56C44.9411 434.062 44.6172 434.45 44.2053 434.723C43.7933 434.993 43.3232 435.128 42.7947 435.128C42.397 435.128 42.0717 435.061 41.8189 434.928C41.5689 434.794 41.3729 434.638 41.2308 434.459C41.0888 434.28 40.9794 434.121 40.9027 433.982H40.826V437.455H39.5518ZM40.8004 431.727C40.8004 432.187 40.8672 432.591 41.0007 432.938C41.1342 433.284 41.3274 433.555 41.5803 433.751C41.8331 433.945 42.1428 434.041 42.5092 434.041C42.8899 434.041 43.2081 433.94 43.4638 433.739C43.7195 433.534 43.9126 433.257 44.0433 432.908C44.1768 432.558 44.2436 432.165 44.2436 431.727C44.2436 431.295 44.1783 430.908 44.0476 430.564C43.9197 430.22 43.7266 429.949 43.468 429.75C43.2124 429.551 42.8928 429.452 42.5092 429.452C42.1399 429.452 41.8274 429.547 41.5717 429.737C41.3189 429.928 41.1271 430.193 40.9964 430.534C40.8658 430.875 40.8004 431.273 40.8004 431.727ZM49.7791 435.132C49.1342 435.132 48.5788 434.994 48.1129 434.719C47.6499 434.44 47.2919 434.05 47.0391 433.547C46.7891 433.041 46.6641 432.449 46.6641 431.77C46.6641 431.099 46.7891 430.509 47.0391 429.997C47.2919 429.486 47.6442 429.087 48.0959 428.8C48.5504 428.513 49.0817 428.369 49.6896 428.369C50.0589 428.369 50.4169 428.43 50.7635 428.553C51.1101 428.675 51.4212 428.866 51.6967 429.128C51.9723 429.389 52.1896 429.729 52.3487 430.146C52.5078 430.561 52.5874 431.065 52.5874 431.659V432.111H47.3842V431.156H51.3388C51.3388 430.821 51.2706 430.524 51.1342 430.266C50.9979 430.004 50.8061 429.798 50.5589 429.648C50.3146 429.497 50.0277 429.422 49.6982 429.422C49.3402 429.422 49.0277 429.51 48.7607 429.686C48.4964 429.859 48.2919 430.087 48.147 430.368C48.005 430.646 47.9339 430.949 47.9339 431.276V432.021C47.9339 432.459 48.0107 432.831 48.1641 433.138C48.3203 433.445 48.5376 433.679 48.8161 433.841C49.0945 434 49.4197 434.08 49.7919 434.08C50.0334 434.08 50.2536 434.045 50.4524 433.977C50.6513 433.906 50.8232 433.801 50.968 433.662C51.1129 433.523 51.2237 433.351 51.3004 433.146L52.5064 433.364C52.4098 433.719 52.2365 434.03 51.9865 434.297C51.7393 434.561 51.4283 434.767 51.0533 434.915C50.6811 435.06 50.2564 435.132 49.7791 435.132ZM55.9059 435.145C55.4911 435.145 55.1161 435.068 54.7809 434.915C54.4457 434.759 54.18 434.533 53.984 434.237C53.7908 433.942 53.6942 433.58 53.6942 433.151C53.6942 432.781 53.7653 432.477 53.9073 432.239C54.0494 432 54.2411 431.811 54.4826 431.672C54.7241 431.533 54.994 431.428 55.2923 431.357C55.5906 431.286 55.8945 431.232 56.2042 431.195C56.5962 431.149 56.9144 431.112 57.1587 431.084C57.4031 431.053 57.5806 431.003 57.6914 430.935C57.8022 430.866 57.8576 430.756 57.8576 430.602V430.572C57.8576 430.2 57.7525 429.912 57.5423 429.707C57.3349 429.503 57.0252 429.401 56.6133 429.401C56.1843 429.401 55.8462 429.496 55.5991 429.686C55.3548 429.874 55.1857 430.082 55.092 430.312L53.8945 430.04C54.0366 429.642 54.244 429.321 54.5167 429.077C54.7923 428.83 55.109 428.651 55.467 428.54C55.8249 428.426 56.2013 428.369 56.5962 428.369C56.8576 428.369 57.1346 428.401 57.4272 428.463C57.7227 428.523 57.9982 428.634 58.2539 428.795C58.5124 428.957 58.7241 429.189 58.8888 429.49C59.0536 429.788 59.136 430.176 59.136 430.653V435H57.8917V434.105H57.8406C57.7582 434.27 57.6346 434.432 57.4698 434.591C57.305 434.75 57.0934 434.882 56.8349 434.987C56.5763 435.092 56.2667 435.145 55.9059 435.145ZM56.1829 434.122C56.5352 434.122 56.8363 434.053 57.0863 433.913C57.3391 433.774 57.5309 433.592 57.6616 433.368C57.7951 433.141 57.8619 432.898 57.8619 432.639V431.795C57.8164 431.841 57.7283 431.884 57.5977 431.923C57.4698 431.96 57.3235 431.993 57.1587 432.021C56.994 432.047 56.8335 432.071 56.6772 432.094C56.521 432.114 56.3903 432.131 56.2852 432.145C56.038 432.176 55.8121 432.229 55.6076 432.303C55.4059 432.376 55.244 432.483 55.1218 432.622C55.0025 432.759 54.9428 432.94 54.9428 433.168C54.9428 433.483 55.0593 433.722 55.2923 433.884C55.5252 434.043 55.8221 434.122 56.1829 434.122ZM63.8885 428.455V429.477H60.3132V428.455H63.8885ZM61.272 426.886H62.5462V433.078C62.5462 433.325 62.5831 433.511 62.657 433.636C62.7308 433.759 62.826 433.842 62.9425 433.888C63.0618 433.93 63.1911 433.952 63.3303 433.952C63.4325 433.952 63.522 433.945 63.5987 433.93C63.6754 433.916 63.7351 433.905 63.7777 433.896L64.0078 434.949C63.9339 434.977 63.8288 435.006 63.6925 435.034C63.5561 435.065 63.3857 435.082 63.1811 435.085C62.8459 435.091 62.5334 435.031 62.2436 434.906C61.9538 434.781 61.7195 434.588 61.5405 434.327C61.3615 434.065 61.272 433.737 61.272 433.342V426.886ZM71.5291 428.455V429.477H67.9538V428.455H71.5291ZM68.9126 426.886H70.1868V433.078C70.1868 433.325 70.2237 433.511 70.2976 433.636C70.3714 433.759 70.4666 433.842 70.5831 433.888C70.7024 433.93 70.8317 433.952 70.9709 433.952C71.0732 433.952 71.1626 433.945 71.2393 433.93C71.3161 433.916 71.3757 433.905 71.4183 433.896L71.6484 434.949C71.5746 434.977 71.4695 435.006 71.3331 435.034C71.1967 435.065 71.0263 435.082 70.8217 435.085C70.4865 435.091 70.174 435.031 69.8842 434.906C69.5945 434.781 69.3601 434.588 69.1811 434.327C69.0021 434.065 68.9126 433.737 68.9126 433.342V426.886ZM74.3533 431.114V435H73.0792V426.273H74.3363V429.52H74.4173C74.5707 429.168 74.805 428.888 75.1204 428.68C75.4357 428.473 75.8477 428.369 76.3562 428.369C76.805 428.369 77.1971 428.462 77.5323 428.646C77.8704 428.831 78.1317 429.107 78.3164 429.473C78.5039 429.837 78.5977 430.291 78.5977 430.837V435H77.3235V430.99C77.3235 430.51 77.1999 430.138 76.9528 429.874C76.7056 429.607 76.3619 429.473 75.9215 429.473C75.6204 429.473 75.3505 429.537 75.1119 429.665C74.8761 429.793 74.69 429.98 74.5536 430.227C74.4201 430.472 74.3533 430.767 74.3533 431.114ZM83.119 435.132C82.4741 435.132 81.9187 434.994 81.4528 434.719C80.9897 434.44 80.6317 434.05 80.3789 433.547C80.1289 433.041 80.0039 432.449 80.0039 431.77C80.0039 431.099 80.1289 430.509 80.3789 429.997C80.6317 429.486 80.984 429.087 81.4357 428.8C81.8903 428.513 82.4215 428.369 83.0295 428.369C83.3988 428.369 83.7567 428.43 84.1033 428.553C84.4499 428.675 84.761 428.866 85.0366 429.128C85.3121 429.389 85.5295 429.729 85.6886 430.146C85.8477 430.561 85.9272 431.065 85.9272 431.659V432.111H80.7241V431.156H84.6786C84.6786 430.821 84.6104 430.524 84.4741 430.266C84.3377 430.004 84.146 429.798 83.8988 429.648C83.6545 429.497 83.3675 429.422 83.038 429.422C82.68 429.422 82.3675 429.51 82.1005 429.686C81.8363 429.859 81.6317 430.087 81.4869 430.368C81.3448 430.646 81.2738 430.949 81.2738 431.276V432.021C81.2738 432.459 81.3505 432.831 81.5039 433.138C81.6602 433.445 81.8775 433.679 82.1559 433.841C82.4343 434 82.7596 434.08 83.1317 434.08C83.3732 434.08 83.5934 434.045 83.7923 433.977C83.9911 433.906 84.163 433.801 84.3079 433.662C84.4528 433.523 84.5636 433.351 84.6403 433.146L85.8462 433.364C85.7496 433.719 85.5763 434.03 85.3263 434.297C85.0792 434.561 84.7681 434.767 84.3931 434.915C84.021 435.06 83.5962 435.132 83.119 435.132ZM90.5167 437.455V428.455H91.761V429.516H91.8675C91.9414 429.379 92.0479 429.222 92.1871 429.043C92.3263 428.864 92.5195 428.707 92.7667 428.574C93.0138 428.438 93.3406 428.369 93.7468 428.369C94.2752 428.369 94.7468 428.503 95.1616 428.77C95.5763 429.037 95.9016 429.422 96.1374 429.925C96.3761 430.428 96.4954 431.033 96.4954 431.74C96.4954 432.447 96.3775 433.054 96.1417 433.56C95.9059 434.062 95.582 434.45 95.1701 434.723C94.7582 434.993 94.288 435.128 93.7596 435.128C93.3619 435.128 93.0366 435.061 92.7837 434.928C92.5337 434.794 92.3377 434.638 92.1957 434.459C92.0536 434.28 91.9442 434.121 91.8675 433.982H91.7908V437.455H90.5167ZM91.7653 431.727C91.7653 432.187 91.832 432.591 91.9656 432.938C92.0991 433.284 92.2923 433.555 92.5451 433.751C92.7979 433.945 93.1076 434.041 93.4741 434.041C93.8548 434.041 94.1729 433.94 94.4286 433.739C94.6843 433.534 94.8775 433.257 95.0082 432.908C95.1417 432.558 95.2085 432.165 95.2085 431.727C95.2085 431.295 95.1431 430.908 95.0124 430.564C94.8846 430.22 94.6914 429.949 94.4329 429.75C94.1772 429.551 93.8576 429.452 93.4741 429.452C93.1048 429.452 92.7923 429.547 92.5366 429.737C92.2837 429.928 92.092 430.193 91.9613 430.534C91.8306 430.875 91.7653 431.273 91.7653 431.727ZM99.8278 435.145C99.413 435.145 99.038 435.068 98.7028 434.915C98.3675 434.759 98.1019 434.533 97.9059 434.237C97.7127 433.942 97.6161 433.58 97.6161 433.151C97.6161 432.781 97.6871 432.477 97.8292 432.239C97.9712 432 98.163 431.811 98.4045 431.672C98.646 431.533 98.9158 431.428 99.2141 431.357C99.5124 431.286 99.8164 431.232 100.126 431.195C100.518 431.149 100.836 431.112 101.081 431.084C101.325 431.053 101.502 431.003 101.613 430.935C101.724 430.866 101.779 430.756 101.779 430.602V430.572C101.779 430.2 101.674 429.912 101.464 429.707C101.257 429.503 100.947 429.401 100.535 429.401C100.106 429.401 99.7681 429.496 99.521 429.686C99.2766 429.874 99.1076 430.082 99.0138 430.312L97.8164 430.04C97.9585 429.642 98.1658 429.321 98.4386 429.077C98.7141 428.83 99.0309 428.651 99.3888 428.54C99.7468 428.426 100.123 428.369 100.518 428.369C100.779 428.369 101.056 428.401 101.349 428.463C101.645 428.523 101.92 428.634 102.176 428.795C102.434 428.957 102.646 429.189 102.811 429.49C102.975 429.788 103.058 430.176 103.058 430.653V435H101.814V434.105H101.762C101.68 434.27 101.556 434.432 101.392 434.591C101.227 434.75 101.015 434.882 100.757 434.987C100.498 435.092 100.189 435.145 99.8278 435.145ZM100.105 434.122C100.457 434.122 100.758 434.053 101.008 433.913C101.261 433.774 101.453 433.592 101.583 433.368C101.717 433.141 101.784 432.898 101.784 432.639V431.795C101.738 431.841 101.65 431.884 101.52 431.923C101.392 431.96 101.245 431.993 101.081 432.021C100.916 432.047 100.755 432.071 100.599 432.094C100.443 432.114 100.312 432.131 100.207 432.145C99.9599 432.176 99.734 432.229 99.5295 432.303C99.3278 432.376 99.1658 432.483 99.0437 432.622C98.9244 432.759 98.8647 432.94 98.8647 433.168C98.8647 433.483 98.9812 433.722 99.2141 433.884C99.4471 434.043 99.744 434.122 100.105 434.122ZM109.66 430.053L108.505 430.257C108.457 430.109 108.38 429.969 108.275 429.835C108.173 429.702 108.033 429.592 107.857 429.507C107.681 429.422 107.461 429.379 107.197 429.379C106.836 429.379 106.535 429.46 106.293 429.622C106.052 429.781 105.931 429.987 105.931 430.24C105.931 430.459 106.012 430.635 106.174 430.768C106.336 430.902 106.597 431.011 106.958 431.097L107.998 431.335C108.6 431.474 109.049 431.689 109.344 431.979C109.64 432.268 109.788 432.645 109.788 433.108C109.788 433.5 109.674 433.849 109.447 434.156C109.222 434.46 108.908 434.699 108.505 434.872C108.104 435.045 107.64 435.132 107.112 435.132C106.379 435.132 105.781 434.976 105.317 434.663C104.854 434.348 104.57 433.901 104.465 433.321L105.697 433.134C105.773 433.455 105.931 433.697 106.17 433.862C106.408 434.024 106.719 434.105 107.103 434.105C107.521 434.105 107.854 434.018 108.104 433.845C108.354 433.669 108.479 433.455 108.479 433.202C108.479 432.997 108.403 432.825 108.249 432.686C108.099 432.547 107.867 432.442 107.555 432.371L106.447 432.128C105.836 431.989 105.384 431.767 105.092 431.463C104.802 431.159 104.657 430.774 104.657 430.308C104.657 429.922 104.765 429.584 104.981 429.294C105.197 429.004 105.495 428.778 105.876 428.616C106.256 428.452 106.692 428.369 107.184 428.369C107.891 428.369 108.448 428.523 108.854 428.83C109.261 429.134 109.529 429.541 109.66 430.053ZM116.093 430.053L114.939 430.257C114.89 430.109 114.814 429.969 114.708 429.835C114.606 429.702 114.467 429.592 114.291 429.507C114.115 429.422 113.895 429.379 113.63 429.379C113.27 429.379 112.968 429.46 112.727 429.622C112.485 429.781 112.365 429.987 112.365 430.24C112.365 430.459 112.446 430.635 112.608 430.768C112.77 430.902 113.031 431.011 113.392 431.097L114.431 431.335C115.034 431.474 115.483 431.689 115.778 431.979C116.074 432.268 116.221 432.645 116.221 433.108C116.221 433.5 116.108 433.849 115.88 434.156C115.656 434.46 115.342 434.699 114.939 434.872C114.538 435.045 114.074 435.132 113.545 435.132C112.812 435.132 112.214 434.976 111.751 434.663C111.288 434.348 111.004 433.901 110.899 433.321L112.13 433.134C112.207 433.455 112.365 433.697 112.603 433.862C112.842 434.024 113.153 434.105 113.537 434.105C113.954 434.105 114.288 434.018 114.538 433.845C114.788 433.669 114.913 433.455 114.913 433.202C114.913 432.997 114.836 432.825 114.683 432.686C114.532 432.547 114.301 432.442 113.988 432.371L112.88 432.128C112.27 431.989 111.818 431.767 111.525 431.463C111.235 431.159 111.091 430.774 111.091 430.308C111.091 429.922 111.199 429.584 111.414 429.294C111.63 429.004 111.929 428.778 112.309 428.616C112.69 428.452 113.126 428.369 113.618 428.369C114.325 428.369 114.882 428.523 115.288 428.83C115.694 429.134 115.963 429.541 116.093 430.053ZM119.041 435L117.115 428.455H118.432L119.714 433.261H119.778L121.065 428.455H122.382L123.661 433.24H123.724L124.999 428.455H126.315L124.393 435H123.094L121.764 430.274H121.666L120.337 435H119.041ZM130.082 435.132C129.469 435.132 128.933 434.991 128.476 434.71C128.018 434.429 127.663 434.036 127.411 433.53C127.158 433.024 127.031 432.433 127.031 431.757C127.031 431.078 127.158 430.484 127.411 429.976C127.663 429.467 128.018 429.072 128.476 428.791C128.933 428.51 129.469 428.369 130.082 428.369C130.696 428.369 131.232 428.51 131.689 428.791C132.146 429.072 132.501 429.467 132.754 429.976C133.007 430.484 133.134 431.078 133.134 431.757C133.134 432.433 133.007 433.024 132.754 433.53C132.501 434.036 132.146 434.429 131.689 434.71C131.232 434.991 130.696 435.132 130.082 435.132ZM130.087 434.062C130.484 434.062 130.814 433.957 131.075 433.747C131.337 433.537 131.53 433.257 131.655 432.908C131.783 432.558 131.847 432.173 131.847 431.753C131.847 431.335 131.783 430.952 131.655 430.602C131.53 430.25 131.337 429.967 131.075 429.754C130.814 429.541 130.484 429.435 130.087 429.435C129.686 429.435 129.354 429.541 129.089 429.754C128.828 429.967 128.634 430.25 128.506 430.602C128.381 430.952 128.318 431.335 128.318 431.753C128.318 432.173 128.381 432.558 128.506 432.908C128.634 433.257 128.828 433.537 129.089 433.747C129.354 433.957 129.686 434.062 130.087 434.062ZM134.556 435V428.455H135.787V429.494H135.855C135.975 429.142 136.185 428.865 136.486 428.663C136.79 428.459 137.134 428.357 137.517 428.357C137.597 428.357 137.691 428.359 137.799 428.365C137.909 428.371 137.996 428.378 138.059 428.386V429.605C138.007 429.591 137.917 429.575 137.786 429.558C137.655 429.538 137.525 429.528 137.394 429.528C137.093 429.528 136.824 429.592 136.588 429.72C136.355 429.845 136.171 430.02 136.034 430.244C135.898 430.466 135.83 430.719 135.83 431.003V435H134.556ZM141.377 435.128C140.849 435.128 140.377 434.993 139.962 434.723C139.55 434.45 139.227 434.062 138.991 433.56C138.758 433.054 138.641 432.447 138.641 431.74C138.641 431.033 138.759 430.428 138.995 429.925C139.234 429.422 139.56 429.037 139.975 428.77C140.39 428.503 140.86 428.369 141.386 428.369C141.792 428.369 142.119 428.438 142.366 428.574C142.616 428.707 142.809 428.864 142.945 429.043C143.085 429.222 143.192 429.379 143.269 429.516H143.346V426.273H144.62V435H143.376V433.982H143.269C143.192 434.121 143.082 434.28 142.937 434.459C142.795 434.638 142.599 434.794 142.349 434.928C142.099 435.061 141.775 435.128 141.377 435.128ZM141.658 434.041C142.025 434.041 142.335 433.945 142.587 433.751C142.843 433.555 143.036 433.284 143.167 432.938C143.3 432.591 143.367 432.187 143.367 431.727C143.367 431.273 143.302 430.875 143.171 430.534C143.04 430.193 142.849 429.928 142.596 429.737C142.343 429.547 142.031 429.452 141.658 429.452C141.275 429.452 140.955 429.551 140.7 429.75C140.444 429.949 140.251 430.22 140.12 430.564C139.992 430.908 139.928 431.295 139.928 431.727C139.928 432.165 139.994 432.558 140.124 432.908C140.255 433.257 140.448 433.534 140.704 433.739C140.962 433.94 141.281 434.041 141.658 434.041Z" fill="#52667A"/>
<path d="M24.9588 396V387.273H28.0696C28.7486 387.273 29.3111 387.396 29.7571 387.643C30.2031 387.891 30.5369 388.229 30.7585 388.658C30.9801 389.084 31.0909 389.564 31.0909 390.098C31.0909 390.635 30.9787 391.118 30.7543 391.547C30.5327 391.973 30.1974 392.311 29.7486 392.561C29.3026 392.808 28.7415 392.932 28.0653 392.932H25.9261V391.815H27.946C28.375 391.815 28.723 391.741 28.9901 391.594C29.2571 391.443 29.4531 391.239 29.5781 390.98C29.7031 390.722 29.7656 390.428 29.7656 390.098C29.7656 389.768 29.7031 389.476 29.5781 389.22C29.4531 388.964 29.2557 388.764 28.9858 388.619C28.7188 388.474 28.3665 388.402 27.929 388.402H26.2756V396H24.9588ZM34.3786 396.145C33.9638 396.145 33.5888 396.068 33.2536 395.915C32.9183 395.759 32.6527 395.533 32.4567 395.237C32.2635 394.942 32.1669 394.58 32.1669 394.151C32.1669 393.781 32.2379 393.477 32.38 393.239C32.522 393 32.7138 392.811 32.9553 392.672C33.1967 392.533 33.4666 392.428 33.7649 392.357C34.0632 392.286 34.3672 392.232 34.6768 392.195C35.0689 392.149 35.3871 392.112 35.6314 392.084C35.8757 392.053 36.0533 392.003 36.1641 391.935C36.2749 391.866 36.3303 391.756 36.3303 391.602V391.572C36.3303 391.2 36.2251 390.912 36.0149 390.707C35.8075 390.503 35.4979 390.401 35.0859 390.401C34.657 390.401 34.3189 390.496 34.0717 390.686C33.8274 390.874 33.6584 391.082 33.5646 391.312L32.3672 391.04C32.5092 390.642 32.7166 390.321 32.9893 390.077C33.2649 389.83 33.5817 389.651 33.9396 389.54C34.2976 389.426 34.674 389.369 35.0689 389.369C35.3303 389.369 35.6072 389.401 35.8999 389.463C36.1953 389.523 36.4709 389.634 36.7266 389.795C36.9851 389.957 37.1967 390.189 37.3615 390.49C37.5263 390.788 37.6087 391.176 37.6087 391.653V396H36.3643V395.105H36.3132C36.2308 395.27 36.1072 395.432 35.9425 395.591C35.7777 395.75 35.5661 395.882 35.3075 395.987C35.049 396.092 34.7393 396.145 34.3786 396.145ZM34.6555 395.122C35.0078 395.122 35.3089 395.053 35.5589 394.913C35.8118 394.774 36.0036 394.592 36.1342 394.368C36.2678 394.141 36.3345 393.898 36.3345 393.639V392.795C36.2891 392.841 36.201 392.884 36.0703 392.923C35.9425 392.96 35.7962 392.993 35.6314 393.021C35.4666 393.047 35.3061 393.071 35.1499 393.094C34.9936 393.114 34.8629 393.131 34.7578 393.145C34.5107 393.176 34.2848 393.229 34.0803 393.303C33.8786 393.376 33.7166 393.483 33.5945 393.622C33.4751 393.759 33.4155 393.94 33.4155 394.168C33.4155 394.483 33.532 394.722 33.7649 394.884C33.9979 395.043 34.2947 395.122 34.6555 395.122ZM44.2106 391.053L43.0558 391.257C43.0075 391.109 42.9308 390.969 42.8256 390.835C42.7234 390.702 42.5842 390.592 42.408 390.507C42.2319 390.422 42.0117 390.379 41.7475 390.379C41.3867 390.379 41.0856 390.46 40.8441 390.622C40.6026 390.781 40.4819 390.987 40.4819 391.24C40.4819 391.459 40.5629 391.635 40.7248 391.768C40.8867 391.902 41.1481 392.011 41.5089 392.097L42.5487 392.335C43.1509 392.474 43.5998 392.689 43.8952 392.979C44.1907 393.268 44.3384 393.645 44.3384 394.108C44.3384 394.5 44.2248 394.849 43.9975 395.156C43.7731 395.46 43.4592 395.699 43.0558 395.872C42.6552 396.045 42.1907 396.132 41.6623 396.132C40.9293 396.132 40.3313 395.976 39.8683 395.663C39.4052 395.348 39.1211 394.901 39.016 394.321L40.2475 394.134C40.3242 394.455 40.4819 394.697 40.7205 394.862C40.9592 395.024 41.2702 395.105 41.6538 395.105C42.0714 395.105 42.4052 395.018 42.6552 394.845C42.9052 394.669 43.0302 394.455 43.0302 394.202C43.0302 393.997 42.9535 393.825 42.8001 393.686C42.6495 393.547 42.418 393.442 42.1055 393.371L40.9975 393.128C40.3867 392.989 39.935 392.767 39.6424 392.463C39.3526 392.159 39.2077 391.774 39.2077 391.308C39.2077 390.922 39.3157 390.584 39.5316 390.294C39.7475 390.004 40.0458 389.778 40.4265 389.616C40.8072 389.452 41.2433 389.369 41.7347 389.369C42.4421 389.369 42.9989 389.523 43.4052 389.83C43.8114 390.134 44.0799 390.541 44.2106 391.053ZM50.6442 391.053L49.4893 391.257C49.4411 391.109 49.3643 390.969 49.2592 390.835C49.157 390.702 49.0178 390.592 48.8416 390.507C48.6655 390.422 48.4453 390.379 48.1811 390.379C47.8203 390.379 47.5192 390.46 47.2777 390.622C47.0362 390.781 46.9155 390.987 46.9155 391.24C46.9155 391.459 46.9964 391.635 47.1584 391.768C47.3203 391.902 47.5817 392.011 47.9425 392.097L48.9822 392.335C49.5845 392.474 50.0334 392.689 50.3288 392.979C50.6243 393.268 50.772 393.645 50.772 394.108C50.772 394.5 50.6584 394.849 50.4311 395.156C50.2067 395.46 49.8928 395.699 49.4893 395.872C49.0888 396.045 48.6243 396.132 48.0959 396.132C47.3629 396.132 46.7649 395.976 46.3018 395.663C45.8388 395.348 45.5547 394.901 45.4496 394.321L46.6811 394.134C46.7578 394.455 46.9155 394.697 47.1541 394.862C47.3928 395.024 47.7038 395.105 48.0874 395.105C48.505 395.105 48.8388 395.018 49.0888 394.845C49.3388 394.669 49.4638 394.455 49.4638 394.202C49.4638 393.997 49.3871 393.825 49.2337 393.686C49.0831 393.547 48.8516 393.442 48.5391 393.371L47.4311 393.128C46.8203 392.989 46.3686 392.767 46.076 392.463C45.7862 392.159 45.6413 391.774 45.6413 391.308C45.6413 390.922 45.7493 390.584 45.9652 390.294C46.1811 390.004 46.4794 389.778 46.8601 389.616C47.2408 389.452 47.6768 389.369 48.1683 389.369C48.8757 389.369 49.4325 389.523 49.8388 389.83C50.245 390.134 50.5135 390.541 50.6442 391.053ZM53.592 396L51.6658 389.455H52.9826L54.2653 394.261H54.3292L55.6161 389.455H56.9329L58.2113 394.24H58.2752L59.5494 389.455H60.8661L58.9442 396H57.6445L56.315 391.274H56.217L54.8874 396H53.592ZM64.6332 396.132C64.0195 396.132 63.484 395.991 63.0266 395.71C62.5692 395.429 62.2141 395.036 61.9613 394.53C61.7085 394.024 61.582 393.433 61.582 392.757C61.582 392.078 61.7085 391.484 61.9613 390.976C62.2141 390.467 62.5692 390.072 63.0266 389.791C63.484 389.51 64.0195 389.369 64.6332 389.369C65.2468 389.369 65.7823 389.51 66.2397 389.791C66.6971 390.072 67.0522 390.467 67.305 390.976C67.5579 391.484 67.6843 392.078 67.6843 392.757C67.6843 393.433 67.5579 394.024 67.305 394.53C67.0522 395.036 66.6971 395.429 66.2397 395.71C65.7823 395.991 65.2468 396.132 64.6332 396.132ZM64.6374 395.062C65.0352 395.062 65.3647 394.957 65.6261 394.747C65.8874 394.537 66.0806 394.257 66.2056 393.908C66.3335 393.558 66.3974 393.173 66.3974 392.753C66.3974 392.335 66.3335 391.952 66.2056 391.602C66.0806 391.25 65.8874 390.967 65.6261 390.754C65.3647 390.541 65.0352 390.435 64.6374 390.435C64.2369 390.435 63.9045 390.541 63.6403 390.754C63.3789 390.967 63.1843 391.25 63.0565 391.602C62.9315 391.952 62.869 392.335 62.869 392.753C62.869 393.173 62.9315 393.558 63.0565 393.908C63.1843 394.257 63.3789 394.537 63.6403 394.747C63.9045 394.957 64.2369 395.062 64.6374 395.062ZM69.1065 396V389.455H70.3381V390.494H70.4062C70.5256 390.142 70.7358 389.865 71.0369 389.663C71.3409 389.459 71.6847 389.357 72.0682 389.357C72.1477 389.357 72.2415 389.359 72.3494 389.365C72.4602 389.371 72.5469 389.378 72.6094 389.386V390.605C72.5582 390.591 72.4673 390.575 72.3366 390.558C72.206 390.538 72.0753 390.528 71.9446 390.528C71.6435 390.528 71.375 390.592 71.1392 390.72C70.9063 390.845 70.7216 391.02 70.5852 391.244C70.4489 391.466 70.3807 391.719 70.3807 392.003V396H69.1065ZM75.9279 396.128C75.3995 396.128 74.9279 395.993 74.5131 395.723C74.1012 395.45 73.7773 395.062 73.5415 394.56C73.3086 394.054 73.1921 393.447 73.1921 392.74C73.1921 392.033 73.31 391.428 73.5458 390.925C73.7844 390.422 74.1112 390.037 74.5259 389.77C74.9407 389.503 75.4109 389.369 75.9364 389.369C76.3427 389.369 76.6694 389.438 76.9165 389.574C77.1665 389.707 77.3597 389.864 77.4961 390.043C77.6353 390.222 77.7433 390.379 77.82 390.516H77.8967V387.273H79.1708V396H77.9265V394.982H77.82C77.7433 395.121 77.6325 395.28 77.4876 395.459C77.3455 395.638 77.1495 395.794 76.8995 395.928C76.6495 396.061 76.3256 396.128 75.9279 396.128ZM76.2092 395.041C76.5756 395.041 76.8853 394.945 77.1381 394.751C77.3938 394.555 77.587 394.284 77.7177 393.938C77.8512 393.591 77.918 393.187 77.918 392.727C77.918 392.273 77.8526 391.875 77.7219 391.534C77.5913 391.193 77.3995 390.928 77.1467 390.737C76.8938 390.547 76.5813 390.452 76.2092 390.452C75.8256 390.452 75.506 390.551 75.2504 390.75C74.9947 390.949 74.8015 391.22 74.6708 391.564C74.543 391.908 74.479 392.295 74.479 392.727C74.479 393.165 74.5444 393.558 74.6751 393.908C74.8058 394.257 74.9989 394.534 75.2546 394.739C75.5131 394.94 75.8313 395.041 76.2092 395.041Z" fill="#52667A"/>
<path d="M35.8963 468.727V476H34.799V468.727H35.8963ZM38.3217 468.727V469.409C38.3217 469.61 38.2839 469.822 38.2081 470.045C38.1347 470.265 38.0305 470.477 37.8956 470.68C37.7607 470.884 37.602 471.059 37.4197 471.206L36.8942 470.83C37.0339 470.626 37.1546 470.409 37.2564 470.18C37.3606 469.95 37.4126 469.697 37.4126 469.42V468.727H38.3217ZM44.2433 470.545L42.2653 476H41.1289L39.1474 470.545H40.2873L41.6687 474.743H41.7255L43.1033 470.545H44.2433ZM47.4064 476.11C46.869 476.11 46.4062 475.995 46.0179 475.766C45.632 475.534 45.3337 475.208 45.123 474.789C44.9147 474.368 44.8105 473.874 44.8105 473.308C44.8105 472.75 44.9147 472.257 45.123 471.831C45.3337 471.405 45.6273 471.072 46.0037 470.833C46.3825 470.594 46.8252 470.474 47.3319 470.474C47.6396 470.474 47.9379 470.525 48.2267 470.627C48.5156 470.729 48.7748 470.889 49.0044 471.107C49.2341 471.324 49.4152 471.607 49.5478 471.955C49.6803 472.301 49.7466 472.721 49.7466 473.216V473.592H45.4107V472.797H48.7061C48.7061 472.518 48.6493 472.27 48.5357 472.055C48.4221 471.837 48.2623 471.665 48.0563 471.54C47.8527 471.414 47.6136 471.352 47.339 471.352C47.0407 471.352 46.7802 471.425 46.5577 471.572C46.3375 471.716 46.1671 471.906 46.0463 472.14C45.928 472.372 45.8688 472.624 45.8688 472.896V473.518C45.8688 473.882 45.9327 474.192 46.0605 474.448C46.1908 474.704 46.3719 474.899 46.6039 475.034C46.8359 475.167 47.1069 475.233 47.4171 475.233C47.6183 475.233 47.8018 475.205 47.9675 475.148C48.1332 475.089 48.2765 475.001 48.3972 474.885C48.5179 474.769 48.6103 474.626 48.6742 474.455L49.6792 474.636C49.5987 474.932 49.4542 475.192 49.2459 475.414C49.04 475.634 48.7807 475.806 48.4682 475.929C48.1581 476.05 47.8042 476.11 47.4064 476.11ZM53.5712 476V470.545H54.5975V471.412H54.6543C54.7537 471.118 54.9289 470.888 55.1799 470.719C55.4332 470.549 55.7196 470.464 56.0392 470.464C56.1055 470.464 56.1837 470.466 56.2736 470.471C56.3659 470.476 56.4382 470.482 56.4902 470.489V471.504C56.4476 471.492 56.3719 471.479 56.263 471.465C56.1541 471.449 56.0452 471.44 55.9363 471.44C55.6853 471.44 55.4616 471.494 55.2651 471.6C55.071 471.704 54.9171 471.85 54.8034 472.037C54.6898 472.222 54.633 472.432 54.633 472.669V476H53.5712ZM59.5646 476.11C59.0272 476.11 58.5644 475.995 58.1761 475.766C57.7902 475.534 57.492 475.208 57.2812 474.789C57.0729 474.368 56.9688 473.874 56.9688 473.308C56.9688 472.75 57.0729 472.257 57.2812 471.831C57.492 471.405 57.7855 471.072 58.1619 470.833C58.5407 470.594 58.9834 470.474 59.4901 470.474C59.7978 470.474 60.0961 470.525 60.3849 470.627C60.6738 470.729 60.933 470.889 61.1626 471.107C61.3923 471.324 61.5734 471.607 61.706 471.955C61.8385 472.301 61.9048 472.721 61.9048 473.216V473.592H57.5689V472.797H60.8643C60.8643 472.518 60.8075 472.27 60.6939 472.055C60.5803 471.837 60.4205 471.665 60.2145 471.54C60.0109 471.414 59.7718 471.352 59.4972 471.352C59.1989 471.352 58.9384 471.425 58.7159 471.572C58.4957 471.716 58.3253 471.906 58.2045 472.14C58.0862 472.372 58.027 472.624 58.027 472.896V473.518C58.027 473.882 58.0909 474.192 58.2188 474.448C58.349 474.704 58.5301 474.899 58.7621 475.034C58.9941 475.167 59.2652 475.233 59.5753 475.233C59.7765 475.233 59.96 475.205 60.1257 475.148C60.2914 475.089 60.4347 475.001 60.5554 474.885C60.6761 474.769 60.7685 474.626 60.8324 474.455L61.8374 474.636C61.7569 474.932 61.6125 475.192 61.4041 475.414C61.1982 475.634 60.9389 475.806 60.6264 475.929C60.3163 476.05 59.9624 476.11 59.5646 476.11ZM64.6703 476.121C64.3246 476.121 64.0121 476.057 63.7328 475.929C63.4534 475.799 63.2321 475.611 63.0687 475.364C62.9077 475.118 62.8272 474.816 62.8272 474.459C62.8272 474.151 62.8864 473.898 63.0048 473.699C63.1232 473.5 63.283 473.343 63.4842 473.227C63.6854 473.111 63.9103 473.023 64.1589 472.964C64.4075 472.905 64.6608 472.86 64.9189 472.829C65.2456 472.791 65.5107 472.76 65.7143 472.737C65.9179 472.71 66.0659 472.669 66.1582 472.612C66.2505 472.555 66.2967 472.463 66.2967 472.335V472.31C66.2967 472 66.2091 471.76 66.0339 471.589C65.8611 471.419 65.603 471.334 65.2598 471.334C64.9023 471.334 64.6206 471.413 64.4146 471.572C64.211 471.728 64.0701 471.902 63.992 472.094L62.9941 471.866C63.1125 471.535 63.2853 471.268 63.5126 471.064C63.7422 470.858 64.0062 470.709 64.3045 470.616C64.6028 470.522 64.9165 470.474 65.2456 470.474C65.4634 470.474 65.6942 470.5 65.938 470.553C66.1842 470.602 66.4139 470.695 66.627 470.83C66.8424 470.964 67.0188 471.157 67.1561 471.408C67.2934 471.657 67.362 471.98 67.362 472.378V476H66.3251V475.254H66.2825C66.2138 475.392 66.1109 475.527 65.9735 475.659C65.8362 475.792 65.6599 475.902 65.4444 475.989C65.229 476.077 64.9709 476.121 64.6703 476.121ZM64.9011 475.268C65.1947 475.268 65.4456 475.21 65.6539 475.094C65.8646 474.978 66.0244 474.827 66.1333 474.64C66.2446 474.451 66.3002 474.248 66.3002 474.033V473.33C66.2624 473.367 66.189 473.403 66.0801 473.436C65.9735 473.467 65.8516 473.494 65.7143 473.518C65.577 473.539 65.4432 473.559 65.313 473.578C65.1828 473.595 65.0739 473.609 64.9863 473.621C64.7804 473.647 64.5922 473.691 64.4217 473.752C64.2536 473.814 64.1187 473.902 64.0169 474.018C63.9174 474.132 63.8677 474.284 63.8677 474.473C63.8677 474.736 63.9648 474.935 64.1589 475.07C64.353 475.202 64.6004 475.268 64.9011 475.268ZM70.8182 476.107C70.3778 476.107 69.9848 475.994 69.6392 475.769C69.2959 475.542 69.026 475.219 68.8295 474.8C68.6354 474.378 68.5384 473.873 68.5384 473.283C68.5384 472.694 68.6366 472.19 68.8331 471.771C69.032 471.352 69.3042 471.031 69.6499 470.808C69.9955 470.586 70.3873 470.474 70.8253 470.474C71.1638 470.474 71.4361 470.531 71.642 470.645C71.8504 470.756 72.0114 470.886 72.125 471.036C72.241 471.185 72.331 471.316 72.3949 471.43H72.4588V468.727H73.5206V476H72.4837V475.151H72.3949C72.331 475.267 72.2386 475.4 72.1179 475.549C71.9995 475.698 71.8362 475.828 71.6278 475.94C71.4195 476.051 71.1496 476.107 70.8182 476.107ZM71.0526 475.201C71.358 475.201 71.616 475.121 71.8267 474.96C72.0398 474.796 72.2008 474.57 72.3097 474.281C72.4209 473.992 72.4766 473.656 72.4766 473.273C72.4766 472.894 72.4221 472.562 72.3132 472.278C72.2043 471.994 72.0445 471.773 71.8338 471.614C71.6231 471.456 71.3627 471.376 71.0526 471.376C70.733 471.376 70.4666 471.459 70.2536 471.625C70.0405 471.791 69.8795 472.017 69.7706 472.303C69.6641 472.59 69.6108 472.913 69.6108 473.273C69.6108 473.637 69.6652 473.965 69.7741 474.256C69.883 474.548 70.044 474.778 70.2571 474.949C70.4725 475.117 70.7377 475.201 71.0526 475.201ZM77.6825 476V470.545H78.7443V476H77.6825ZM78.2188 469.704C78.0341 469.704 77.8755 469.642 77.7429 469.519C77.6127 469.394 77.5476 469.245 77.5476 469.072C77.5476 468.897 77.6127 468.747 77.7429 468.624C77.8755 468.499 78.0341 468.436 78.2188 468.436C78.4034 468.436 78.5608 468.499 78.6911 468.624C78.8236 468.747 78.8899 468.897 78.8899 469.072C78.8899 469.245 78.8236 469.394 78.6911 469.519C78.5608 469.642 78.4034 469.704 78.2188 469.704ZM82.7189 470.545V471.398H79.7395V470.545H82.7189ZM80.5385 469.239H81.6003V474.398C81.6003 474.604 81.6311 474.759 81.6926 474.864C81.7542 474.965 81.8335 475.035 81.9306 475.073C82.03 475.109 82.1377 475.126 82.2537 475.126C82.339 475.126 82.4135 475.121 82.4775 475.109C82.5414 475.097 82.5911 475.087 82.6266 475.08L82.8184 475.957C82.7568 475.981 82.6692 476.005 82.5556 476.028C82.4419 476.054 82.2999 476.069 82.1294 476.071C81.8501 476.076 81.5897 476.026 81.3482 475.922C81.1067 475.818 80.9114 475.657 80.7623 475.439C80.6131 475.221 80.5385 474.948 80.5385 474.619V469.239ZM88.1273 476.121C87.7817 476.121 87.4692 476.057 87.1898 475.929C86.9105 475.799 86.6891 475.611 86.5257 475.364C86.3648 475.118 86.2843 474.816 86.2843 474.459C86.2843 474.151 86.3435 473.898 86.4618 473.699C86.5802 473.5 86.74 473.343 86.9412 473.227C87.1425 473.111 87.3674 473.023 87.6159 472.964C87.8645 472.905 88.1178 472.86 88.3759 472.829C88.7026 472.791 88.9677 472.76 89.1713 472.737C89.3749 472.71 89.5229 472.669 89.6152 472.612C89.7076 472.555 89.7537 472.463 89.7537 472.335V472.31C89.7537 472 89.6661 471.76 89.4909 471.589C89.3181 471.419 89.0601 471.334 88.7168 471.334C88.3593 471.334 88.0776 471.413 87.8716 471.572C87.668 471.728 87.5272 471.902 87.449 472.094L86.4512 471.866C86.5695 471.535 86.7424 471.268 86.9696 471.064C87.1993 470.858 87.4632 470.709 87.7615 470.616C88.0598 470.522 88.3735 470.474 88.7026 470.474C88.9204 470.474 89.1512 470.5 89.3951 470.553C89.6413 470.602 89.8709 470.695 90.084 470.83C90.2994 470.964 90.4758 471.157 90.6131 471.408C90.7504 471.657 90.8191 471.98 90.8191 472.378V476H89.7821V475.254H89.7395C89.6709 475.392 89.5679 475.527 89.4306 475.659C89.2933 475.792 89.1169 475.902 88.9015 475.989C88.686 476.077 88.428 476.121 88.1273 476.121ZM88.3581 475.268C88.6517 475.268 88.9026 475.21 89.111 475.094C89.3217 474.978 89.4815 474.827 89.5904 474.64C89.7016 474.451 89.7573 474.248 89.7573 474.033V473.33C89.7194 473.367 89.646 473.403 89.5371 473.436C89.4306 473.467 89.3087 473.494 89.1713 473.518C89.034 473.539 88.9003 473.559 88.7701 473.578C88.6399 473.595 88.531 473.609 88.4434 473.621C88.2374 473.647 88.0492 473.691 87.8787 473.752C87.7106 473.814 87.5757 473.902 87.4739 474.018C87.3745 474.132 87.3248 474.284 87.3248 474.473C87.3248 474.736 87.4218 474.935 87.6159 475.07C87.8101 475.202 88.0575 475.268 88.3581 475.268ZM93.2951 472.761V476H92.2333V470.545H93.2525V471.433H93.32C93.4454 471.144 93.6419 470.912 93.9094 470.737C94.1793 470.562 94.5191 470.474 94.9286 470.474C95.3003 470.474 95.6258 470.553 95.9052 470.709C96.1845 470.863 96.4012 471.092 96.555 471.398C96.7089 471.703 96.7859 472.081 96.7859 472.531V476H95.7241V472.658C95.7241 472.263 95.6211 471.954 95.4151 471.732C95.2092 471.507 94.9263 471.394 94.5664 471.394C94.3202 471.394 94.1012 471.447 93.9094 471.554C93.7201 471.661 93.5697 471.817 93.4585 472.023C93.3496 472.226 93.2951 472.473 93.2951 472.761ZM100.252 476.107C99.8114 476.107 99.4184 475.994 99.0728 475.769C98.7295 475.542 98.4596 475.219 98.2631 474.8C98.069 474.378 97.9719 473.873 97.9719 473.283C97.9719 472.694 98.0702 472.19 98.2667 471.771C98.4656 471.352 98.7378 471.031 99.0835 470.808C99.4291 470.586 99.8209 470.474 100.259 470.474C100.597 470.474 100.87 470.531 101.076 470.645C101.284 470.756 101.445 470.886 101.559 471.036C101.675 471.185 101.765 471.316 101.828 471.43H101.892V468.727H102.954V476H101.917V475.151H101.828C101.765 475.267 101.672 475.4 101.551 475.549C101.433 475.698 101.27 475.828 101.061 475.94C100.853 476.051 100.583 476.107 100.252 476.107ZM100.486 475.201C100.792 475.201 101.05 475.121 101.26 474.96C101.473 474.796 101.634 474.57 101.743 474.281C101.855 473.992 101.91 473.656 101.91 473.273C101.91 472.894 101.856 472.562 101.747 472.278C101.638 471.994 101.478 471.773 101.267 471.614C101.057 471.456 100.796 471.376 100.486 471.376C100.167 471.376 99.9002 471.459 99.6871 471.625C99.4741 471.791 99.3131 472.017 99.2042 472.303C99.0977 472.59 99.0444 472.913 99.0444 473.273C99.0444 473.637 99.0988 473.965 99.2077 474.256C99.3166 474.548 99.4776 474.778 99.6907 474.949C99.9061 475.117 100.171 475.201 100.486 475.201ZM108.299 468.727V476H107.201V468.727H108.299ZM114.045 476.121C113.7 476.121 113.387 476.057 113.108 475.929C112.828 475.799 112.607 475.611 112.444 475.364C112.283 475.118 112.202 474.816 112.202 474.459C112.202 474.151 112.261 473.898 112.38 473.699C112.498 473.5 112.658 473.343 112.859 473.227C113.06 473.111 113.285 473.023 113.534 472.964C113.782 472.905 114.036 472.86 114.294 472.829C114.621 472.791 114.886 472.76 115.089 472.737C115.293 472.71 115.441 472.669 115.533 472.612C115.626 472.555 115.672 472.463 115.672 472.335V472.31C115.672 472 115.584 471.76 115.409 471.589C115.236 471.419 114.978 471.334 114.635 471.334C114.277 471.334 113.996 471.413 113.79 471.572C113.586 471.728 113.445 471.902 113.367 472.094L112.369 471.866C112.488 471.535 112.66 471.268 112.888 471.064C113.117 470.858 113.381 470.709 113.68 470.616C113.978 470.522 114.291 470.474 114.621 470.474C114.838 470.474 115.069 470.5 115.313 470.553C115.559 470.602 115.789 470.695 116.002 470.83C116.217 470.964 116.394 471.157 116.531 471.408C116.668 471.657 116.737 471.98 116.737 472.378V476H115.7V475.254H115.657C115.589 475.392 115.486 475.527 115.349 475.659C115.211 475.792 115.035 475.902 114.819 475.989C114.604 476.077 114.346 476.121 114.045 476.121ZM114.276 475.268C114.57 475.268 114.821 475.21 115.029 475.094C115.24 474.978 115.399 474.827 115.508 474.64C115.62 474.451 115.675 474.248 115.675 474.033V473.33C115.637 473.367 115.564 473.403 115.455 473.436C115.349 473.467 115.227 473.494 115.089 473.518C114.952 473.539 114.818 473.559 114.688 473.578C114.558 473.595 114.449 473.609 114.361 473.621C114.155 473.647 113.967 473.691 113.797 473.752C113.629 473.814 113.494 473.902 113.392 474.018C113.292 474.132 113.243 474.284 113.243 474.473C113.243 474.736 113.34 474.935 113.534 475.07C113.728 475.202 113.975 475.268 114.276 475.268ZM120.438 478.159C120.005 478.159 119.632 478.102 119.32 477.989C119.009 477.875 118.756 477.725 118.56 477.538C118.363 477.351 118.216 477.146 118.119 476.923L119.032 476.547C119.096 476.651 119.181 476.761 119.288 476.877C119.397 476.996 119.543 477.096 119.728 477.179C119.915 477.262 120.155 477.303 120.449 477.303C120.851 477.303 121.184 477.205 121.447 477.009C121.71 476.814 121.841 476.504 121.841 476.078V475.006H121.773C121.71 475.122 121.617 475.251 121.496 475.393C121.378 475.535 121.215 475.658 121.006 475.762C120.798 475.866 120.527 475.918 120.193 475.918C119.762 475.918 119.374 475.818 119.028 475.616C118.685 475.413 118.413 475.113 118.212 474.718C118.013 474.32 117.913 473.831 117.913 473.251C117.913 472.671 118.012 472.174 118.208 471.76C118.407 471.346 118.679 471.028 119.025 470.808C119.371 470.586 119.762 470.474 120.2 470.474C120.539 470.474 120.812 470.531 121.021 470.645C121.229 470.756 121.391 470.886 121.507 471.036C121.625 471.185 121.717 471.316 121.781 471.43H121.859V470.545H122.899V476.121C122.899 476.589 122.79 476.974 122.572 477.275C122.355 477.576 122.06 477.798 121.688 477.942C121.319 478.087 120.902 478.159 120.438 478.159ZM120.428 475.038C120.733 475.038 120.991 474.967 121.202 474.825C121.415 474.68 121.576 474.474 121.685 474.207C121.796 473.937 121.852 473.614 121.852 473.237C121.852 472.87 121.797 472.547 121.688 472.268C121.579 471.988 121.42 471.771 121.209 471.614C120.998 471.456 120.738 471.376 120.428 471.376C120.108 471.376 119.842 471.459 119.629 471.625C119.415 471.788 119.254 472.011 119.146 472.293C119.039 472.574 118.986 472.889 118.986 473.237C118.986 473.595 119.04 473.908 119.149 474.178C119.258 474.448 119.419 474.659 119.632 474.81C119.848 474.962 120.113 475.038 120.428 475.038ZM124.323 476V470.545H125.349V471.412H125.406C125.506 471.118 125.681 470.888 125.932 470.719C126.185 470.549 126.472 470.464 126.791 470.464C126.857 470.464 126.936 470.466 127.026 470.471C127.118 470.476 127.19 470.482 127.242 470.489V471.504C127.2 471.492 127.124 471.479 127.015 471.465C126.906 471.449 126.797 471.44 126.688 471.44C126.437 471.44 126.214 471.494 126.017 471.6C125.823 471.704 125.669 471.85 125.555 472.037C125.442 472.222 125.385 472.432 125.385 472.669V476H124.323ZM130.317 476.11C129.779 476.11 129.316 475.995 128.928 475.766C128.542 475.534 128.244 475.208 128.033 474.789C127.825 474.368 127.721 473.874 127.721 473.308C127.721 472.75 127.825 472.257 128.033 471.831C128.244 471.405 128.537 471.072 128.914 470.833C129.293 470.594 129.735 470.474 130.242 470.474C130.55 470.474 130.848 470.525 131.137 470.627C131.426 470.729 131.685 470.889 131.915 471.107C132.144 471.324 132.325 471.607 132.458 471.955C132.59 472.301 132.657 472.721 132.657 473.216V473.592H128.321V472.797H131.616C131.616 472.518 131.559 472.27 131.446 472.055C131.332 471.837 131.172 471.665 130.966 471.54C130.763 471.414 130.524 471.352 130.249 471.352C129.951 471.352 129.69 471.425 129.468 471.572C129.248 471.716 129.077 471.906 128.956 472.14C128.838 472.372 128.779 472.624 128.779 472.896V473.518C128.779 473.882 128.843 474.192 128.971 474.448C129.101 474.704 129.282 474.899 129.514 475.034C129.746 475.167 130.017 475.233 130.327 475.233C130.528 475.233 130.712 475.205 130.878 475.148C131.043 475.089 131.187 475.001 131.307 474.885C131.428 474.769 131.52 474.626 131.584 474.455L132.589 474.636C132.509 474.932 132.364 475.192 132.156 475.414C131.95 475.634 131.691 475.806 131.378 475.929C131.068 476.05 130.714 476.11 130.317 476.11ZM136.186 476.11C135.648 476.11 135.185 475.995 134.797 475.766C134.411 475.534 134.113 475.208 133.902 474.789C133.694 474.368 133.59 473.874 133.59 473.308C133.59 472.75 133.694 472.257 133.902 471.831C134.113 471.405 134.407 471.072 134.783 470.833C135.162 470.594 135.605 470.474 136.111 470.474C136.419 470.474 136.717 470.525 137.006 470.627C137.295 470.729 137.554 470.889 137.784 471.107C138.013 471.324 138.194 471.607 138.327 471.955C138.46 472.301 138.526 472.721 138.526 473.216V473.592H134.19V472.797H137.485C137.485 472.518 137.429 472.27 137.315 472.055C137.201 471.837 137.042 471.665 136.836 471.54C136.632 471.414 136.393 471.352 136.118 471.352C135.82 471.352 135.56 471.425 135.337 471.572C135.117 471.716 134.946 471.906 134.826 472.14C134.707 472.372 134.648 472.624 134.648 472.896V473.518C134.648 473.882 134.712 474.192 134.84 474.448C134.97 474.704 135.151 474.899 135.383 475.034C135.615 475.167 135.886 475.233 136.196 475.233C136.398 475.233 136.581 475.205 136.747 475.148C136.913 475.089 137.056 475.001 137.176 474.885C137.297 474.769 137.39 474.626 137.453 474.455L138.458 474.636C138.378 474.932 138.234 475.192 138.025 475.414C137.819 475.634 137.56 475.806 137.248 475.929C136.937 476.05 136.583 476.11 136.186 476.11Z" fill="#8C8896"/>
<path d="M123.019 521.818V532H121.378L116.581 525.065H116.496V532H114.652V521.818H116.302L121.095 528.759H121.184V521.818H123.019ZM128.33 532.149C127.564 532.149 126.903 531.99 126.346 531.672C125.793 531.35 125.367 530.896 125.068 530.31C124.77 529.72 124.621 529.025 124.621 528.227C124.621 527.441 124.77 526.752 125.068 526.158C125.37 525.562 125.791 525.098 126.331 524.766C126.871 524.432 127.506 524.264 128.235 524.264C128.706 524.264 129.15 524.34 129.568 524.493C129.989 524.642 130.36 524.874 130.681 525.189C131.006 525.504 131.261 525.905 131.447 526.392C131.633 526.876 131.725 527.453 131.725 528.122V528.674H125.466V527.461H130C129.997 527.116 129.922 526.81 129.777 526.541C129.631 526.269 129.427 526.056 129.165 525.9C128.907 525.744 128.605 525.666 128.26 525.666C127.892 525.666 127.569 525.756 127.291 525.935C127.012 526.11 126.795 526.342 126.639 526.631C126.487 526.916 126.409 527.229 126.406 527.57V528.629C126.406 529.073 126.487 529.455 126.649 529.773C126.812 530.088 127.039 530.33 127.331 530.499C127.622 530.664 127.964 530.747 128.355 530.747C128.617 530.747 128.853 530.711 129.066 530.638C129.278 530.562 129.462 530.451 129.617 530.305C129.773 530.159 129.891 529.978 129.97 529.763L131.651 529.952C131.545 530.396 131.343 530.784 131.044 531.115C130.749 531.443 130.371 531.698 129.911 531.881C129.45 532.06 128.923 532.149 128.33 532.149ZM134.555 524.364L136.097 527.183L137.663 524.364H139.567L137.265 528.182L139.607 532H137.712L136.097 529.251L134.496 532H132.587L134.913 528.182L132.646 524.364H134.555ZM144.772 524.364V525.756H140.382V524.364H144.772ZM141.466 522.534H143.266V529.703C143.266 529.945 143.302 530.131 143.375 530.26C143.451 530.386 143.551 530.472 143.673 530.518C143.796 530.565 143.932 530.588 144.081 530.588C144.194 530.588 144.296 530.58 144.389 530.563C144.485 530.547 144.558 530.532 144.608 530.518L144.911 531.925C144.815 531.959 144.678 531.995 144.499 532.035C144.323 532.075 144.108 532.098 143.852 532.104C143.402 532.118 142.996 532.05 142.634 531.901C142.273 531.748 141.986 531.513 141.774 531.195C141.565 530.876 141.463 530.479 141.466 530.001V522.534Z" fill="#69BDFF"/>
<path d="M89.3846 157.399L82.4956 121.429C80.3174 110.056 91.7171 98.9167 101.974 96.9523L127.078 92.1443C144.501 88.8076 155.63 95.6319 157.809 107.005L164.698 142.975L186.216 138.854L179.327 102.884C175.281 81.761 152.986 68.8554 123.693 74.4656L98.5882 79.2736C76.4677 83.5101 56.9321 104.427 60.9776 125.55L67.8666 161.521L89.3846 157.399Z" fill="#C4CAD9"/>
<path d="M127.279 73.7788L111.14 76.8696L114.526 94.5483L130.665 91.4575C144.501 88.8076 155.63 95.6319 157.809 107.005L164.698 142.975L186.216 138.854L179.327 102.884C175.281 81.761 152.986 68.8554 127.279 73.7788Z" fill="#BBC2CD"/>
<path d="M214.609 228.867C216.466 238.564 210.678 247.187 198.875 249.447L100.559 268.277C88.7566 270.537 76.5987 265.351 74.7415 255.655L58.1431 168.988C56.2854 159.288 66.7488 155.626 78.5514 153.365L176.867 134.536C188.67 132.275 196.152 132.501 198.01 142.2L214.609 228.867Z" fill="#FCB33B"/>
<rect x="127.574" y="144.995" width="51" height="116" transform="rotate(-10.842 127.574 144.995)" fill="#F69838"/>
<path d="M127.386 144.012L177.559 134.403C189.362 132.143 196.844 132.368 198.702 142.068L215.301 228.735C217.158 238.432 211.37 247.054 199.567 249.315" fill="#F69838"/>
<path d="M153.962 185.651C152.378 177.38 143.236 172.179 133.169 174.107C123.102 176.035 116.981 184.159 118.565 192.43C119.669 198.199 124.047 202.495 131.698 203.62L136.979 231.193C137.708 235 140.838 237.599 145.475 236.71C150.105 235.824 152.053 232.253 151.324 228.446L146.044 200.876C152.738 197.004 155.067 191.423 153.962 185.651Z" fill="#5C5F66"/>
<path d="M144.869 236.83C149.499 235.943 152.053 232.255 151.324 228.449L146.044 200.879C152.738 197.004 155.068 191.426 153.962 185.654C152.378 177.383 142.935 172.239 132.868 174.167" fill="#53565C"/>
</g>
<defs>
<clipPath id="clip0_104_2">
<rect width="260" height="566" fill="white"/>
</clipPath>
</defs>
</svg>
