<svg width="260" height="566" viewBox="0 0 260 566" fill="none" xmlns="http://www.w3.org/2000/svg">
<g clip-path="url(#clip0_104_34)">
<path d="M230.667 0H29.3333C13.133 0 0 13.2108 0 29.5071V536.493C0 552.789 13.133 566 29.3333 566H230.667C246.867 566 260 552.789 260 536.493V29.5071C260 13.2108 246.867 0 230.667 0Z" fill="#E6E6E6"/>
<path d="M226.667 501.956H33.3333C23.2081 501.956 15 510.213 15 520.398V532.469C15 542.654 23.2081 550.911 33.3333 550.911H226.667C236.792 550.911 245 542.654 245 532.469V520.398C245 510.213 236.792 501.956 226.667 501.956Z" fill="#F2E9FF"/>
<path d="M226.667 501.956H33.3333C23.2081 501.956 15 510.213 15 520.398V532.469C15 542.654 23.2081 550.911 33.3333 550.911H226.667C236.792 550.911 245 542.654 245 532.469V520.398C245 510.213 236.792 501.956 226.667 501.956Z" stroke="#69BDFF"/>
<path d="M60 219.962H44C35.1634 219.962 28 227.168 28 236.057V252.152C28 261.041 35.1634 268.246 44 268.246H60C68.8366 268.246 76 261.041 76 252.152V236.057C76 227.168 68.8366 219.962 60 219.962Z" fill="#F2E9FF"/>
<path d="M112 219.962H96C87.1634 219.962 80 227.168 80 236.057V252.152C80 261.041 87.1634 268.246 96 268.246H112C120.837 268.246 128 261.041 128 252.152V236.057C128 227.168 120.837 219.962 112 219.962Z" fill="#F2E9FF"/>
<path d="M164 219.962H148C139.163 219.962 132 227.168 132 236.057V252.152C132 261.041 139.163 268.246 148 268.246H164C172.837 268.246 180 261.041 180 252.152V236.057C180 227.168 172.837 219.962 164 219.962Z" fill="#F2E9FF"/>
<path d="M216 219.962H200C191.163 219.962 184 227.168 184 236.057V252.152C184 261.041 191.163 268.246 200 268.246H216C224.837 268.246 232 261.041 232 252.152V236.057C232 227.168 224.837 219.962 216 219.962Z" fill="#F2E9FF"/>
<path d="M23.3333 55.7564L19.0906 51.4887C18.8303 51.2268 18.8303 50.8022 19.0906 50.5403L23.3333 46.2725" stroke="#2A3034" stroke-width="3.5" stroke-linecap="round"/>
<path d="M45.1728 313.604V327.261H43.5288V315.338H43.4493L40.1349 317.552V315.872L43.5288 313.604H45.1728Z" fill="#52667A"/>
<path d="M38.4323 370.062V368.701L44.3981 359.206H45.3792V361.313H44.7163L40.2087 368.488V368.595H48.2428V370.062H38.4323ZM44.8224 372.863V369.648V369.015V359.206H46.3868V372.863H44.8224Z" fill="#52667A"/>
<path d="M39.8309 418.464L45.9028 406.382V406.275H38.9028V404.808H47.5998V406.355L41.5544 418.464H39.8309Z" fill="#52667A"/>
<path d="M125.754 327.261V326.06L130.235 321.126C130.761 320.548 131.194 320.045 131.535 319.619C131.875 319.188 132.127 318.783 132.29 318.405C132.458 318.023 132.542 317.623 132.542 317.205C132.542 316.725 132.427 316.309 132.197 315.958C131.972 315.607 131.663 315.336 131.269 315.145C130.876 314.954 130.434 314.858 129.943 314.858C129.422 314.858 128.967 314.967 128.578 315.185C128.193 315.398 127.895 315.699 127.683 316.085C127.475 316.472 127.372 316.925 127.372 317.446H125.807C125.807 316.645 125.991 315.943 126.357 315.338C126.724 314.734 127.223 314.262 127.855 313.925C128.492 313.587 129.205 313.418 129.997 313.418C130.792 313.418 131.497 313.587 132.111 313.925C132.725 314.262 133.207 314.718 133.557 315.291C133.905 315.865 134.08 316.503 134.08 317.205C134.08 317.708 133.989 318.199 133.808 318.679C133.631 319.154 133.322 319.686 132.88 320.273C132.443 320.855 131.835 321.566 131.057 322.406L128.008 325.687V325.793H134.319V327.261H125.754Z" fill="#52667A"/>
<path d="M129.969 373.049C129.191 373.049 128.491 372.893 127.868 372.582C127.245 372.271 126.745 371.845 126.37 371.302C125.994 370.76 125.789 370.142 125.753 369.448H127.345C127.406 370.066 127.685 370.578 128.179 370.982C128.679 371.382 129.275 371.582 129.969 371.582C130.526 371.582 131.021 371.451 131.454 371.189C131.892 370.927 132.234 370.566 132.481 370.108C132.733 369.646 132.859 369.124 132.859 368.542C132.859 367.946 132.729 367.414 132.469 366.948C132.212 366.477 131.859 366.105 131.408 365.835C130.957 365.564 130.442 365.425 129.863 365.421C129.448 365.417 129.021 365.481 128.584 365.615C128.147 365.743 127.786 365.91 127.503 366.115L125.965 365.928L126.787 359.206H133.841V360.673H128.166L127.689 364.701H127.769C128.047 364.479 128.396 364.294 128.816 364.147C129.236 364.001 129.673 363.927 130.129 363.927C130.959 363.927 131.699 364.127 132.349 364.527C133.003 364.923 133.516 365.466 133.887 366.154C134.263 366.844 134.451 367.63 134.451 368.515C134.451 369.386 134.256 370.164 133.867 370.849C133.483 371.529 132.952 372.067 132.276 372.462C131.6 372.854 130.831 373.049 129.969 373.049Z" fill="#52667A"/>
<path d="M130.003 418.651C129.092 418.651 128.288 418.489 127.589 418.165C126.896 417.835 126.355 417.384 125.965 416.811C125.577 416.233 125.385 415.575 125.389 414.837C125.385 414.259 125.497 413.726 125.727 413.237C125.957 412.743 126.271 412.332 126.668 412.003C127.071 411.67 127.519 411.459 128.014 411.369V411.29C127.364 411.121 126.847 410.754 126.463 410.19C126.078 409.62 125.888 408.974 125.893 408.249C125.888 407.556 126.063 406.935 126.416 406.389C126.77 405.842 127.256 405.411 127.875 405.095C128.498 404.779 129.207 404.622 130.003 404.622C130.789 404.622 131.492 404.779 132.111 405.095C132.729 405.411 133.215 405.842 133.569 406.389C133.927 406.935 134.108 407.556 134.113 408.249C134.108 408.974 133.911 409.62 133.523 410.19C133.138 410.754 132.627 411.121 131.991 411.29V411.369C132.481 411.459 132.923 411.67 133.317 412.003C133.71 412.332 134.024 412.743 134.258 413.237C134.493 413.726 134.612 414.259 134.616 414.837C134.612 415.575 134.413 416.233 134.019 416.811C133.631 417.384 133.089 417.835 132.395 418.165C131.706 418.489 130.909 418.651 130.003 418.651ZM130.003 417.184C130.617 417.184 131.147 417.084 131.593 416.884C132.04 416.684 132.385 416.402 132.627 416.037C132.871 415.673 132.994 415.246 132.999 414.757C132.994 414.242 132.862 413.786 132.601 413.39C132.34 412.994 131.985 412.683 131.534 412.456C131.087 412.23 130.577 412.116 130.003 412.116C129.423 412.116 128.907 412.23 128.451 412.456C128.001 412.683 127.645 412.994 127.384 413.39C127.128 413.786 127.002 414.242 127.006 414.757C127.002 415.246 127.119 415.673 127.357 416.037C127.601 416.402 127.947 416.684 128.398 416.884C128.849 417.084 129.384 417.184 130.003 417.184ZM130.003 410.703C130.489 410.703 130.919 410.605 131.295 410.41C131.675 410.214 131.973 409.94 132.19 409.59C132.407 409.238 132.517 408.827 132.521 408.356C132.517 407.894 132.409 407.491 132.197 407.148C131.985 406.802 131.691 406.536 131.315 406.348C130.939 406.157 130.502 406.062 130.003 406.062C129.494 406.062 129.05 406.157 128.67 406.348C128.29 406.536 127.996 406.802 127.789 407.148C127.581 407.491 127.479 407.894 127.483 408.356C127.479 408.827 127.583 409.238 127.795 409.59C128.011 409.94 128.31 410.214 128.69 410.41C129.07 410.605 129.507 410.703 130.003 410.703Z" fill="#52667A"/>
<path d="M130 464.253C129.001 464.253 128.151 463.98 127.448 463.433C126.745 462.881 126.209 462.084 125.837 461.039C125.466 459.99 125.28 458.723 125.28 457.238C125.28 455.762 125.466 454.502 125.837 453.457C126.213 452.408 126.752 451.608 127.455 451.057C128.161 450.501 129.01 450.224 130 450.224C130.99 450.224 131.836 450.501 132.539 451.057C133.246 451.608 133.785 452.408 134.156 453.457C134.532 454.502 134.72 455.762 134.72 457.238C134.72 458.723 134.534 459.99 134.163 461.039C133.792 462.084 133.255 462.881 132.552 463.433C131.849 463.98 130.999 464.253 130 464.253ZM130 462.786C130.99 462.786 131.759 462.306 132.307 461.346C132.855 460.385 133.129 459.017 133.129 457.238C133.129 456.056 133.003 455.049 132.751 454.218C132.503 453.386 132.145 452.753 131.677 452.317C131.213 451.881 130.654 451.664 130 451.664C129.019 451.664 128.252 452.151 127.7 453.124C127.147 454.093 126.871 455.464 126.871 457.238C126.871 458.42 126.995 459.426 127.243 460.252C127.49 461.079 127.845 461.708 128.309 462.139C128.778 462.57 129.341 462.786 130 462.786Z" fill="#52667A"/>
<path d="M216.717 327.447C215.841 327.447 215.061 327.296 214.377 326.994C213.696 326.692 213.155 326.271 212.753 325.734C212.355 325.191 212.138 324.562 212.103 323.847H213.773C213.809 324.286 213.959 324.667 214.224 324.987C214.489 325.302 214.836 325.547 215.265 325.72C215.693 325.894 216.169 325.98 216.69 325.98C217.273 325.98 217.79 325.878 218.241 325.674C218.692 325.469 219.045 325.184 219.301 324.82C219.558 324.455 219.686 324.034 219.686 323.553C219.686 323.051 219.563 322.609 219.315 322.226C219.067 321.839 218.705 321.537 218.228 321.32C217.751 321.102 217.167 320.992 216.478 320.992H215.391V319.526H216.478C217.017 319.526 217.49 319.428 217.896 319.232C218.307 319.037 218.628 318.761 218.857 318.405C219.092 318.05 219.209 317.632 219.209 317.152C219.209 316.69 219.107 316.287 218.904 315.945C218.701 315.603 218.413 315.336 218.042 315.145C217.675 314.954 217.242 314.858 216.743 314.858C216.275 314.858 215.833 314.945 215.417 315.118C215.006 315.287 214.67 315.534 214.409 315.858C214.149 316.178 214.007 316.565 213.985 317.018H212.395C212.421 316.303 212.635 315.676 213.037 315.138C213.439 314.596 213.965 314.174 214.615 313.871C215.269 313.569 215.987 313.418 216.769 313.418C217.609 313.418 218.329 313.589 218.931 313.931C219.531 314.269 219.993 314.716 220.316 315.271C220.639 315.827 220.8 316.428 220.8 317.072C220.8 317.841 220.599 318.496 220.197 319.039C219.799 319.581 219.257 319.957 218.573 320.166V320.273C219.43 320.415 220.099 320.782 220.581 321.373C221.063 321.959 221.303 322.686 221.303 323.553C221.303 324.296 221.103 324.962 220.7 325.554C220.303 326.141 219.759 326.603 219.069 326.941C218.38 327.279 217.596 327.447 216.717 327.447Z" fill="#52667A"/>
<path d="M216.755 373.049C216.199 373.04 215.642 372.934 215.085 372.729C214.528 372.525 214.02 372.18 213.56 371.696C213.101 371.207 212.731 370.546 212.453 369.715C212.175 368.88 212.035 367.83 212.035 366.568C212.035 365.359 212.148 364.287 212.374 363.354C212.599 362.416 212.926 361.627 213.355 360.987C213.783 360.342 214.301 359.853 214.906 359.52C215.516 359.187 216.203 359.02 216.967 359.02C217.727 359.02 218.404 359.173 218.996 359.48C219.593 359.782 220.079 360.205 220.454 360.746C220.83 361.289 221.073 361.913 221.183 362.62H219.566C219.416 362.007 219.124 361.498 218.691 361.093C218.258 360.689 217.683 360.486 216.967 360.486C215.916 360.486 215.087 360.947 214.481 361.867C213.881 362.787 213.578 364.079 213.573 365.741H213.679C213.927 365.363 214.221 365.041 214.561 364.774C214.906 364.503 215.286 364.294 215.701 364.147C216.117 364.001 216.557 363.927 217.021 363.927C217.798 363.927 218.51 364.123 219.155 364.514C219.8 364.901 220.317 365.437 220.706 366.121C221.095 366.802 221.289 367.581 221.289 368.462C221.289 369.306 221.101 370.079 220.726 370.782C220.351 371.48 219.822 372.036 219.142 372.449C218.465 372.858 217.67 373.058 216.755 373.049ZM216.755 371.582C217.312 371.582 217.811 371.442 218.253 371.162C218.7 370.882 219.051 370.507 219.307 370.035C219.568 369.564 219.699 369.039 219.699 368.462C219.699 367.897 219.573 367.384 219.321 366.922C219.073 366.455 218.731 366.083 218.293 365.808C217.86 365.532 217.365 365.395 216.809 365.395C216.389 365.395 215.997 365.479 215.635 365.647C215.273 365.812 214.955 366.039 214.681 366.328C214.411 366.617 214.199 366.948 214.044 367.321C213.889 367.69 213.812 368.079 213.812 368.488C213.812 369.031 213.938 369.538 214.19 370.008C214.446 370.48 214.795 370.86 215.237 371.149C215.684 371.437 216.19 371.582 216.755 371.582Z" fill="#52667A"/>
<path d="M216.57 404.622C217.127 404.626 217.683 404.733 218.24 404.941C218.797 405.151 219.305 405.497 219.765 405.982C220.225 406.462 220.593 407.118 220.872 407.949C221.15 408.78 221.289 409.823 221.289 411.076C221.289 412.29 221.175 413.368 220.945 414.31C220.719 415.248 220.392 416.039 219.963 416.684C219.539 417.328 219.023 417.818 218.413 418.151C217.807 418.485 217.122 418.651 216.357 418.651C215.597 418.651 214.919 418.5 214.323 418.198C213.731 417.891 213.244 417.467 212.864 416.924C212.489 416.377 212.248 415.744 212.142 415.024H213.759C213.905 415.651 214.195 416.168 214.627 416.577C215.065 416.982 215.642 417.184 216.357 417.184C217.405 417.184 218.231 416.724 218.837 415.804C219.447 414.884 219.751 413.584 219.751 411.903H219.645C219.398 412.277 219.104 412.599 218.764 412.87C218.423 413.141 218.046 413.35 217.63 413.497C217.215 413.643 216.773 413.716 216.305 413.716C215.527 413.716 214.813 413.523 214.163 413.136C213.518 412.745 213.001 412.21 212.613 411.53C212.228 410.845 212.035 410.063 212.035 409.182C212.035 408.347 212.221 407.582 212.593 406.889C212.968 406.191 213.494 405.635 214.17 405.222C214.851 404.808 215.651 404.608 216.57 404.622ZM216.57 406.088C216.013 406.088 215.511 406.228 215.065 406.509C214.623 406.784 214.272 407.158 214.011 407.629C213.755 408.095 213.627 408.614 213.627 409.182C213.627 409.752 213.75 410.27 213.998 410.736C214.249 411.198 214.592 411.567 215.025 411.843C215.463 412.114 215.96 412.25 216.517 412.25C216.937 412.25 217.327 412.167 217.69 412.003C218.053 411.834 218.368 411.605 218.638 411.316C218.912 411.023 219.126 410.692 219.281 410.323C219.435 409.95 219.513 409.561 219.513 409.156C219.513 408.623 219.385 408.122 219.129 407.655C218.877 407.189 218.527 406.811 218.081 406.522C217.639 406.233 217.135 406.088 216.57 406.088Z" fill="#52667A"/>
<path d="M227.333 452.331V462.054C227.333 463.536 226.139 464.737 224.667 464.737H210.197C209.436 464.737 208.711 464.409 208.205 463.836L203.908 458.974C203.01 457.958 203.01 456.427 203.908 455.411L208.205 450.549C208.711 449.976 209.436 449.648 210.197 449.648H224.667C226.139 449.648 227.333 450.849 227.333 452.331Z" stroke="#52667A" stroke-width="2"/>
<path d="M219.515 460.393L213.151 453.992M213.151 460.631L219.751 453.992" stroke="#52667A" stroke-width="2"/>
<path d="M25.6969 128.254L23.2765 119.526H24.6614L26.3617 126.285H26.4426L28.2111 119.526H29.5833L31.3517 126.289H31.4327L33.1287 119.526H34.5179L32.0932 128.254H30.7679L28.9313 121.717H28.8631L27.0265 128.254H25.6969ZM37.7928 128.386C37.1479 128.386 36.5925 128.248 36.1266 127.972C35.6635 127.694 35.3056 127.303 35.0527 126.8C34.8027 126.295 34.6777 125.702 34.6777 125.023C34.6777 124.353 34.8027 123.762 35.0527 123.251C35.3056 122.739 35.6578 122.34 36.1096 122.053C36.5641 121.766 37.0953 121.623 37.7033 121.623C38.0726 121.623 38.4306 121.684 38.7772 121.806C39.1238 121.928 39.4348 122.12 39.7104 122.381C39.986 122.643 40.2033 122.982 40.3624 123.4C40.5215 123.815 40.601 124.319 40.601 124.913V125.364H35.3979V124.41H39.3525C39.3525 124.075 39.2843 123.778 39.1479 123.519C39.0115 123.258 38.8198 123.052 38.5726 122.901C38.3283 122.751 38.0414 122.675 37.7118 122.675C37.3539 122.675 37.0414 122.764 36.7743 122.94C36.5101 123.113 36.3056 123.34 36.1607 123.621C36.0186 123.9 35.9476 124.202 35.9476 124.529V125.275C35.9476 125.712 36.0243 126.085 36.1777 126.391C36.334 126.698 36.5513 126.933 36.8297 127.094C37.1081 127.254 37.4334 127.333 37.8056 127.333C38.0471 127.333 38.2672 127.299 38.4661 127.231C38.665 127.16 38.8368 127.055 38.9817 126.916C39.1266 126.776 39.2374 126.604 39.3141 126.4L40.5201 126.617C40.4235 126.972 40.2502 127.283 40.0002 127.55C39.753 127.815 39.4419 128.021 39.0669 128.168C38.6948 128.313 38.2701 128.386 37.7928 128.386ZM46.4647 124.367V128.254H45.1905V119.526H46.4476V122.773H46.5286C46.682 122.421 46.9164 122.141 47.2317 121.934C47.5471 121.727 47.959 121.623 48.4675 121.623C48.9164 121.623 49.3084 121.715 49.6436 121.9C49.9817 122.085 50.2431 122.36 50.4277 122.727C50.6152 123.09 50.709 123.545 50.709 124.09V128.254H49.4348V124.244C49.4348 123.764 49.3113 123.391 49.0641 123.127C48.8169 122.86 48.4732 122.727 48.0328 122.727C47.7317 122.727 47.4618 122.791 47.2232 122.918C46.9874 123.046 46.8013 123.234 46.665 123.481C46.5314 123.725 46.4647 124.021 46.4647 124.367ZM54.3141 128.398C53.8993 128.398 53.5243 128.322 53.1891 128.168C52.8539 128.012 52.5882 127.786 52.3922 127.491C52.199 127.195 52.1025 126.833 52.1025 126.404C52.1025 126.035 52.1735 125.731 52.3155 125.492C52.4576 125.254 52.6493 125.065 52.8908 124.925C53.1323 124.786 53.4022 124.681 53.7005 124.61C53.9988 124.539 54.3027 124.485 54.6124 124.448C55.0044 124.403 55.3226 124.366 55.5669 124.337C55.8113 124.306 55.9888 124.256 56.0996 124.188C56.2104 124.12 56.2658 124.009 56.2658 123.856V123.826C56.2658 123.454 56.1607 123.166 55.9505 122.961C55.7431 122.756 55.4334 122.654 55.0215 122.654C54.5925 122.654 54.2544 122.749 54.0073 122.94C53.763 123.127 53.5939 123.336 53.5002 123.566L52.3027 123.293C52.4448 122.896 52.6522 122.575 52.9249 122.33C53.2005 122.083 53.5172 121.904 53.8752 121.793C54.2331 121.68 54.6096 121.623 55.0044 121.623C55.2658 121.623 55.5428 121.654 55.8354 121.717C56.1309 121.776 56.4064 121.887 56.6621 122.049C56.9206 122.211 57.1323 122.442 57.2971 122.744C57.4618 123.042 57.5442 123.43 57.5442 123.907V128.254H56.2999V127.359H56.2488C56.1664 127.523 56.0428 127.685 55.878 127.844C55.7132 128.004 55.5016 128.136 55.2431 128.241C54.9846 128.346 54.6749 128.398 54.3141 128.398ZM54.5911 127.376C54.9434 127.376 55.2445 127.306 55.4945 127.167C55.7473 127.028 55.9391 126.846 56.0698 126.621C56.2033 126.394 56.2701 126.151 56.2701 125.893V125.049C56.2246 125.094 56.1365 125.137 56.0059 125.177C55.878 125.214 55.7317 125.246 55.5669 125.275C55.4022 125.3 55.2417 125.325 55.0854 125.347C54.9292 125.367 54.7985 125.384 54.6934 125.398C54.4462 125.43 54.2203 125.482 54.0158 125.556C53.8141 125.63 53.6522 125.737 53.53 125.876C53.4107 126.012 53.351 126.194 53.351 126.421C53.351 126.737 53.4675 126.975 53.7005 127.137C53.9334 127.296 54.2303 127.376 54.5911 127.376ZM64.6064 121.708L62.2328 128.254H60.8691L58.4913 121.708H59.8592L61.5169 126.745H61.585L63.2385 121.708H64.6064ZM68.4022 128.386C67.7573 128.386 67.2019 128.248 66.736 127.972C66.2729 127.694 65.915 127.303 65.6621 126.8C65.4121 126.295 65.2871 125.702 65.2871 125.023C65.2871 124.353 65.4121 123.762 65.6621 123.251C65.915 122.739 66.2672 122.34 66.7189 122.053C67.1735 121.766 67.7047 121.623 68.3127 121.623C68.682 121.623 69.04 121.684 69.3865 121.806C69.7331 121.928 70.0442 122.12 70.3198 122.381C70.5953 122.643 70.8127 122.982 70.9718 123.4C71.1309 123.815 71.2104 124.319 71.2104 124.913V125.364H66.0073V124.41H69.9618C69.9618 124.075 69.8936 123.778 69.7573 123.519C69.6209 123.258 69.4292 123.052 69.182 122.901C68.9377 122.751 68.6507 122.675 68.3212 122.675C67.9632 122.675 67.6507 122.764 67.3837 122.94C67.1195 123.113 66.915 123.34 66.7701 123.621C66.628 123.9 66.557 124.202 66.557 124.529V125.275C66.557 125.712 66.6337 126.085 66.7871 126.391C66.9434 126.698 67.1607 126.933 67.4391 127.094C67.7175 127.254 68.0428 127.333 68.415 127.333C68.6564 127.333 68.8766 127.299 69.0755 127.231C69.2743 127.16 69.4462 127.055 69.5911 126.916C69.736 126.776 69.8468 126.604 69.9235 126.4L71.1294 126.617C71.0328 126.972 70.8596 127.283 70.6096 127.55C70.3624 127.815 70.0513 128.021 69.6763 128.168C69.3042 128.313 68.8794 128.386 68.4022 128.386ZM80.7047 123.306L79.5499 123.511C79.5016 123.363 79.4249 123.222 79.3198 123.089C79.2175 122.955 79.0783 122.846 78.9022 122.761C78.726 122.675 78.5059 122.633 78.2417 122.633C77.8809 122.633 77.5797 122.714 77.3382 122.876C77.0968 123.035 76.976 123.241 76.976 123.494C76.976 123.712 77.057 123.889 77.2189 124.022C77.3809 124.156 77.6422 124.265 78.003 124.35L79.0428 124.589C79.6451 124.728 80.0939 124.942 80.3894 125.232C80.6848 125.522 80.8326 125.898 80.8326 126.362C80.8326 126.754 80.7189 127.103 80.4917 127.41C80.2672 127.714 79.9533 127.952 79.5499 128.126C79.1493 128.299 78.6848 128.386 78.1564 128.386C77.4235 128.386 76.8255 128.229 76.3624 127.917C75.8993 127.602 75.6152 127.154 75.5101 126.575L76.7417 126.387C76.8184 126.708 76.976 126.951 77.2147 127.116C77.4533 127.278 77.7644 127.359 78.1479 127.359C78.5655 127.359 78.8993 127.272 79.1493 127.099C79.3993 126.923 79.5243 126.708 79.5243 126.455C79.5243 126.251 79.4476 126.079 79.2942 125.94C79.1436 125.8 78.9121 125.695 78.5996 125.624L77.4917 125.381C76.8809 125.242 76.4292 125.021 76.1365 124.717C75.8468 124.413 75.7019 124.028 75.7019 123.562C75.7019 123.175 75.8098 122.837 76.0257 122.548C76.2417 122.258 76.54 122.032 76.9206 121.87C77.3013 121.705 77.7374 121.623 78.2289 121.623C78.9363 121.623 79.4931 121.776 79.8993 122.083C80.3056 122.387 80.574 122.795 80.7047 123.306ZM85.0545 128.386C84.4096 128.386 83.8542 128.248 83.3883 127.972C82.9252 127.694 82.5673 127.303 82.3145 126.8C82.0645 126.295 81.9395 125.702 81.9395 125.023C81.9395 124.353 82.0645 123.762 82.3145 123.251C82.5673 122.739 82.9196 122.34 83.3713 122.053C83.8258 121.766 84.3571 121.623 84.965 121.623C85.3343 121.623 85.6923 121.684 86.0389 121.806C86.3855 121.928 86.6966 122.12 86.9721 122.381C87.2477 122.643 87.465 122.982 87.6241 123.4C87.7832 123.815 87.8627 124.319 87.8627 124.913V125.364H82.6596V124.41H86.6142C86.6142 124.075 86.546 123.778 86.4096 123.519C86.2733 123.258 86.0815 123.052 85.8343 122.901C85.59 122.751 85.3031 122.675 84.9735 122.675C84.6156 122.675 84.3031 122.764 84.036 122.94C83.7718 123.113 83.5673 123.34 83.4224 123.621C83.2804 123.9 83.2093 124.202 83.2093 124.529V125.275C83.2093 125.712 83.286 126.085 83.4395 126.391C83.5957 126.698 83.813 126.933 84.0914 127.094C84.3699 127.254 84.6951 127.333 85.0673 127.333C85.3088 127.333 85.5289 127.299 85.7278 127.231C85.9267 127.16 86.0985 127.055 86.2434 126.916C86.3883 126.776 86.4991 126.604 86.5758 126.4L87.7818 126.617C87.6852 126.972 87.5119 127.283 87.2619 127.55C87.0147 127.815 86.7037 128.021 86.3287 128.168C85.9565 128.313 85.5318 128.386 85.0545 128.386ZM90.5506 124.367V128.254H89.2765V121.708H90.4995V122.773H90.5804C90.731 122.427 90.9668 122.148 91.2878 121.938C91.6117 121.728 92.0194 121.623 92.5108 121.623C92.9569 121.623 93.3475 121.717 93.6827 121.904C94.0179 122.089 94.2779 122.364 94.4625 122.731C94.6472 123.097 94.7395 123.55 94.7395 124.09V128.254H93.4654V124.244C93.4654 123.769 93.3418 123.398 93.0946 123.131C92.8475 122.862 92.508 122.727 92.0762 122.727C91.7807 122.727 91.5179 122.791 91.2878 122.918C91.0605 123.046 90.8801 123.234 90.7466 123.481C90.6159 123.725 90.5506 124.021 90.5506 124.367ZM99.5037 121.708V122.731H95.9284V121.708H99.5037ZM96.8873 120.14H98.1614V126.332C98.1614 126.579 98.1983 126.765 98.2722 126.89C98.3461 127.012 98.4412 127.096 98.5577 127.141C98.677 127.184 98.8063 127.205 98.9455 127.205C99.0478 127.205 99.1373 127.198 99.214 127.184C99.2907 127.17 99.3503 127.158 99.3929 127.15L99.623 128.202C99.5492 128.231 99.4441 128.259 99.3077 128.288C99.1713 128.319 99.0009 128.336 98.7963 128.339C98.4611 128.344 98.1486 128.285 97.8588 128.16C97.5691 128.035 97.3347 127.842 97.1557 127.58C96.9767 127.319 96.8873 126.991 96.8873 126.596V120.14ZM107.144 121.708V122.731H103.569V121.708H107.144ZM104.528 120.14H105.802V126.332C105.802 126.579 105.839 126.765 105.913 126.89C105.987 127.012 106.082 127.096 106.198 127.141C106.318 127.184 106.447 127.205 106.586 127.205C106.688 127.205 106.778 127.198 106.855 127.184C106.931 127.17 106.991 127.158 107.034 127.15L107.264 128.202C107.19 128.231 107.085 128.259 106.948 128.288C106.812 128.319 106.642 128.336 106.437 128.339C106.102 128.344 105.789 128.285 105.499 128.16C105.21 128.035 104.975 127.842 104.796 127.58C104.617 127.319 104.528 126.991 104.528 126.596V120.14ZM109.969 124.367V128.254H108.694V119.526H109.952V122.773H110.032C110.186 122.421 110.42 122.141 110.736 121.934C111.051 121.727 111.463 121.623 111.971 121.623C112.42 121.623 112.812 121.715 113.148 121.9C113.486 122.085 113.747 122.36 113.932 122.727C114.119 123.09 114.213 123.545 114.213 124.09V128.254H112.939V124.244C112.939 123.764 112.815 123.391 112.568 123.127C112.321 122.86 111.977 122.727 111.537 122.727C111.236 122.727 110.966 122.791 110.727 122.918C110.491 123.046 110.305 123.234 110.169 123.481C110.035 123.725 109.969 124.021 109.969 124.367ZM118.734 128.386C118.089 128.386 117.534 128.248 117.068 127.972C116.605 127.694 116.247 127.303 115.994 126.8C115.744 126.295 115.619 125.702 115.619 125.023C115.619 124.353 115.744 123.762 115.994 123.251C116.247 122.739 116.599 122.34 117.051 122.053C117.506 121.766 118.037 121.623 118.645 121.623C119.014 121.623 119.372 121.684 119.719 121.806C120.065 121.928 120.376 122.12 120.652 122.381C120.927 122.643 121.145 122.982 121.304 123.4C121.463 123.815 121.542 124.319 121.542 124.913V125.364H116.339V124.41H120.294C120.294 124.075 120.226 123.778 120.089 123.519C119.953 123.258 119.761 123.052 119.514 122.901C119.27 122.751 118.983 122.675 118.653 122.675C118.295 122.675 117.983 122.764 117.716 122.94C117.452 123.113 117.247 123.34 117.102 123.621C116.96 123.9 116.889 124.202 116.889 124.529V125.275C116.889 125.712 116.966 126.085 117.119 126.391C117.275 126.698 117.493 126.933 117.771 127.094C118.05 127.254 118.375 127.333 118.747 127.333C118.988 127.333 119.209 127.299 119.407 127.231C119.606 127.16 119.778 127.055 119.923 126.916C120.068 126.776 120.179 126.604 120.256 126.4L121.461 126.617C121.365 126.972 121.192 127.283 120.942 127.55C120.694 127.815 120.383 128.021 120.008 128.168C119.636 128.313 119.211 128.386 118.734 128.386ZM131.731 121.708L129.358 128.254H127.994L125.616 121.708H126.984L128.642 126.745H128.71L130.363 121.708H131.731ZM135.527 128.386C134.882 128.386 134.327 128.248 133.861 127.972C133.398 127.694 133.04 127.303 132.787 126.8C132.537 126.295 132.412 125.702 132.412 125.023C132.412 124.353 132.537 123.762 132.787 123.251C133.04 122.739 133.392 122.34 133.844 122.053C134.298 121.766 134.83 121.623 135.438 121.623C135.807 121.623 136.165 121.684 136.512 121.806C136.858 121.928 137.169 122.12 137.445 122.381C137.72 122.643 137.938 122.982 138.097 123.4C138.256 123.815 138.335 124.319 138.335 124.913V125.364H133.132V124.41H137.087C137.087 124.075 137.019 123.778 136.882 123.519C136.746 123.258 136.554 123.052 136.307 122.901C136.063 122.751 135.776 122.675 135.446 122.675C135.088 122.675 134.776 122.764 134.509 122.94C134.244 123.113 134.04 123.34 133.895 123.621C133.753 123.9 133.682 124.202 133.682 124.529V125.275C133.682 125.712 133.759 126.085 133.912 126.391C134.068 126.698 134.286 126.933 134.564 127.094C134.843 127.254 135.168 127.333 135.54 127.333C135.781 127.333 136.002 127.299 136.2 127.231C136.399 127.16 136.571 127.055 136.716 126.916C136.861 126.776 136.972 126.604 137.048 126.4L138.254 126.617C138.158 126.972 137.985 127.283 137.735 127.55C137.487 127.815 137.176 128.021 136.801 128.168C136.429 128.313 136.004 128.386 135.527 128.386ZM139.749 128.254V121.708H140.981V122.748H141.049C141.168 122.396 141.378 122.119 141.68 121.917C141.983 121.712 142.327 121.61 142.711 121.61C142.79 121.61 142.884 121.613 142.992 121.619C143.103 121.624 143.189 121.631 143.252 121.64V122.859C143.201 122.844 143.11 122.829 142.979 122.812C142.849 122.792 142.718 122.782 142.587 122.782C142.286 122.782 142.018 122.846 141.782 122.974C141.549 123.099 141.364 123.273 141.228 123.498C141.091 123.719 141.023 123.972 141.023 124.256V128.254H139.749ZM144.355 128.254V121.708H145.629V128.254H144.355ZM144.998 120.698C144.776 120.698 144.586 120.624 144.427 120.477C144.271 120.326 144.193 120.147 144.193 119.94C144.193 119.729 144.271 119.55 144.427 119.403C144.586 119.252 144.776 119.177 144.998 119.177C145.22 119.177 145.409 119.252 145.565 119.403C145.724 119.55 145.803 119.729 145.803 119.94C145.803 120.147 145.724 120.326 145.565 120.477C145.409 120.624 145.22 120.698 144.998 120.698ZM150.458 121.708V122.731H146.759V121.708H150.458ZM147.773 128.254V120.95C147.773 120.541 147.863 120.201 148.042 119.931C148.221 119.658 148.458 119.455 148.753 119.322C149.049 119.185 149.37 119.117 149.716 119.117C149.972 119.117 150.191 119.139 150.373 119.181C150.555 119.221 150.689 119.258 150.778 119.292L150.479 120.323C150.42 120.306 150.343 120.286 150.249 120.264C150.155 120.238 150.042 120.225 149.908 120.225C149.599 120.225 149.377 120.302 149.243 120.455C149.113 120.609 149.047 120.83 149.047 121.12V128.254H147.773ZM151.773 128.254V121.708H153.047V128.254H151.773ZM152.416 120.698C152.194 120.698 152.004 120.624 151.845 120.477C151.689 120.326 151.611 120.147 151.611 119.94C151.611 119.729 151.689 119.55 151.845 119.403C152.004 119.252 152.194 119.177 152.416 119.177C152.638 119.177 152.827 119.252 152.983 119.403C153.142 119.55 153.221 119.729 153.221 119.94C153.221 120.147 153.142 120.326 152.983 120.477C152.827 120.624 152.638 120.698 152.416 120.698ZM157.518 128.386C156.884 128.386 156.339 128.242 155.882 127.955C155.427 127.666 155.078 127.266 154.833 126.758C154.589 126.249 154.467 125.667 154.467 125.011C154.467 124.346 154.592 123.759 154.842 123.251C155.092 122.739 155.444 122.34 155.899 122.053C156.353 121.766 156.889 121.623 157.505 121.623C158.002 121.623 158.445 121.715 158.835 121.9C159.224 122.082 159.538 122.337 159.776 122.667C160.018 122.996 160.161 123.381 160.207 123.822H158.967C158.899 123.515 158.742 123.251 158.498 123.029C158.257 122.808 157.933 122.697 157.526 122.697C157.171 122.697 156.86 122.791 156.593 122.978C156.329 123.163 156.123 123.427 155.975 123.771C155.828 124.112 155.754 124.515 155.754 124.981C155.754 125.458 155.826 125.87 155.971 126.217C156.116 126.563 156.32 126.832 156.585 127.022C156.852 127.212 157.166 127.308 157.526 127.308C157.768 127.308 157.987 127.264 158.183 127.175C158.382 127.085 158.548 126.955 158.681 126.788C158.818 126.62 158.913 126.418 158.967 126.183H160.207C160.161 126.606 160.024 126.984 159.794 127.316C159.563 127.648 159.255 127.91 158.869 128.1C158.485 128.291 158.035 128.386 157.518 128.386ZM163.474 128.398C163.059 128.398 162.684 128.322 162.349 128.168C162.014 128.012 161.748 127.786 161.552 127.491C161.359 127.195 161.263 126.833 161.263 126.404C161.263 126.035 161.334 125.731 161.476 125.492C161.618 125.254 161.809 125.065 162.051 124.925C162.292 124.786 162.562 124.681 162.861 124.61C163.159 124.539 163.463 124.485 163.773 124.448C164.165 124.403 164.483 124.366 164.727 124.337C164.971 124.306 165.149 124.256 165.26 124.188C165.371 124.12 165.426 124.009 165.426 123.856V123.826C165.426 123.454 165.321 123.166 165.111 122.961C164.903 122.756 164.594 122.654 164.182 122.654C163.753 122.654 163.415 122.749 163.167 122.94C162.923 123.127 162.754 123.336 162.66 123.566L161.463 123.293C161.605 122.896 161.812 122.575 162.085 122.33C162.361 122.083 162.677 121.904 163.035 121.793C163.393 121.68 163.77 121.623 164.165 121.623C164.426 121.623 164.703 121.654 164.996 121.717C165.291 121.776 165.567 121.887 165.822 122.049C166.081 122.211 166.292 122.442 166.457 122.744C166.622 123.042 166.704 123.43 166.704 123.907V128.254H165.46V127.359H165.409C165.327 127.523 165.203 127.685 165.038 127.844C164.873 128.004 164.662 128.136 164.403 128.241C164.145 128.346 163.835 128.398 163.474 128.398ZM163.751 127.376C164.104 127.376 164.405 127.306 164.655 127.167C164.907 127.028 165.099 126.846 165.23 126.621C165.363 126.394 165.43 126.151 165.43 125.893V125.049C165.385 125.094 165.297 125.137 165.166 125.177C165.038 125.214 164.892 125.246 164.727 125.275C164.562 125.3 164.402 125.325 164.246 125.347C164.089 125.367 163.959 125.384 163.854 125.398C163.606 125.43 163.381 125.482 163.176 125.556C162.974 125.63 162.812 125.737 162.69 125.876C162.571 126.012 162.511 126.194 162.511 126.421C162.511 126.737 162.628 126.975 162.861 127.137C163.094 127.296 163.39 127.376 163.751 127.376ZM171.457 121.708V122.731H167.882V121.708H171.457ZM168.84 120.14H170.115V126.332C170.115 126.579 170.151 126.765 170.225 126.89C170.299 127.012 170.394 127.096 170.511 127.141C170.63 127.184 170.759 127.205 170.899 127.205C171.001 127.205 171.09 127.198 171.167 127.184C171.244 127.17 171.303 127.158 171.346 127.15L171.576 128.202C171.502 128.231 171.397 128.259 171.261 128.288C171.124 128.319 170.954 128.336 170.749 128.339C170.414 128.344 170.102 128.285 169.812 128.16C169.522 128.035 169.288 127.842 169.109 127.58C168.93 127.319 168.84 126.991 168.84 126.596V120.14ZM172.866 128.254V121.708H174.14V128.254H172.866ZM173.51 120.698C173.288 120.698 173.098 120.624 172.939 120.477C172.782 120.326 172.704 120.147 172.704 119.94C172.704 119.729 172.782 119.55 172.939 119.403C173.098 119.252 173.288 119.177 173.51 119.177C173.731 119.177 173.92 119.252 174.077 119.403C174.236 119.55 174.315 119.729 174.315 119.94C174.315 120.147 174.236 120.326 174.077 120.477C173.92 120.624 173.731 120.698 173.51 120.698ZM178.612 128.386C177.998 128.386 177.463 128.245 177.005 127.964C176.548 127.683 176.193 127.289 175.94 126.783C175.687 126.278 175.561 125.687 175.561 125.011C175.561 124.332 175.687 123.738 175.94 123.229C176.193 122.721 176.548 122.326 177.005 122.045C177.463 121.764 177.998 121.623 178.612 121.623C179.225 121.623 179.761 121.764 180.218 122.045C180.676 122.326 181.031 122.721 181.284 123.229C181.536 123.738 181.663 124.332 181.663 125.011C181.663 125.687 181.536 126.278 181.284 126.783C181.031 127.289 180.676 127.683 180.218 127.964C179.761 128.245 179.225 128.386 178.612 128.386ZM178.616 127.316C179.014 127.316 179.343 127.211 179.605 127.001C179.866 126.791 180.059 126.511 180.184 126.161C180.312 125.812 180.376 125.427 180.376 125.006C180.376 124.589 180.312 124.205 180.184 123.856C180.059 123.504 179.866 123.221 179.605 123.008C179.343 122.795 179.014 122.688 178.616 122.688C178.215 122.688 177.883 122.795 177.619 123.008C177.357 123.221 177.163 123.504 177.035 123.856C176.91 124.205 176.847 124.589 176.847 125.006C176.847 125.427 176.91 125.812 177.035 126.161C177.163 126.511 177.357 126.791 177.619 127.001C177.883 127.211 178.215 127.316 178.616 127.316ZM184.359 124.367V128.254H183.085V121.708H184.308V122.773H184.389C184.54 122.427 184.775 122.148 185.096 121.938C185.42 121.728 185.828 121.623 186.319 121.623C186.765 121.623 187.156 121.717 187.491 121.904C187.827 122.089 188.086 122.364 188.271 122.731C188.456 123.097 188.548 123.55 188.548 124.09V128.254H187.274V124.244C187.274 123.769 187.15 123.398 186.903 123.131C186.656 122.862 186.317 122.727 185.885 122.727C185.589 122.727 185.327 122.791 185.096 122.918C184.869 123.046 184.689 123.234 184.555 123.481C184.425 123.725 184.359 124.021 184.359 124.367ZM196.19 128.386C195.556 128.386 195.011 128.242 194.553 127.955C194.099 127.666 193.749 127.266 193.505 126.758C193.261 126.249 193.139 125.667 193.139 125.011C193.139 124.346 193.264 123.759 193.514 123.251C193.764 122.739 194.116 122.34 194.57 122.053C195.025 121.766 195.561 121.623 196.177 121.623C196.674 121.623 197.117 121.715 197.507 121.9C197.896 122.082 198.21 122.337 198.448 122.667C198.69 122.996 198.833 123.381 198.879 123.822H197.639C197.57 123.515 197.414 123.251 197.17 123.029C196.928 122.808 196.605 122.697 196.198 122.697C195.843 122.697 195.532 122.791 195.265 122.978C195.001 123.163 194.795 123.427 194.647 123.771C194.499 124.112 194.426 124.515 194.426 124.981C194.426 125.458 194.498 125.87 194.643 126.217C194.788 126.563 194.992 126.832 195.257 127.022C195.524 127.212 195.838 127.308 196.198 127.308C196.44 127.308 196.659 127.264 196.855 127.175C197.053 127.085 197.22 126.955 197.353 126.788C197.49 126.62 197.585 126.418 197.639 126.183H198.879C198.833 126.606 198.695 126.984 198.465 127.316C198.235 127.648 197.927 127.91 197.541 128.1C197.157 128.291 196.707 128.386 196.19 128.386ZM202.998 128.386C202.385 128.386 201.849 128.245 201.392 127.964C200.934 127.683 200.579 127.289 200.327 126.783C200.074 126.278 199.947 125.687 199.947 125.011C199.947 124.332 200.074 123.738 200.327 123.229C200.579 122.721 200.934 122.326 201.392 122.045C201.849 121.764 202.385 121.623 202.998 121.623C203.612 121.623 204.148 121.764 204.605 122.045C205.062 122.326 205.417 122.721 205.67 123.229C205.923 123.738 206.05 124.332 206.05 125.011C206.05 125.687 205.923 126.278 205.67 126.783C205.417 127.289 205.062 127.683 204.605 127.964C204.148 128.245 203.612 128.386 202.998 128.386ZM203.003 127.316C203.4 127.316 203.73 127.211 203.991 127.001C204.253 126.791 204.446 126.511 204.571 126.161C204.699 125.812 204.763 125.427 204.763 125.006C204.763 124.589 204.699 124.205 204.571 123.856C204.446 123.504 204.253 123.221 203.991 123.008C203.73 122.795 203.4 122.688 203.003 122.688C202.602 122.688 202.27 122.795 202.006 123.008C201.744 123.221 201.55 123.504 201.422 123.856C201.297 124.205 201.234 124.589 201.234 125.006C201.234 125.427 201.297 125.812 201.422 126.161C201.55 126.511 201.744 126.791 202.006 127.001C202.27 127.211 202.602 127.316 203.003 127.316ZM209.922 128.381C209.394 128.381 208.922 128.246 208.507 127.977C208.095 127.704 207.771 127.316 207.536 126.813C207.303 126.308 207.186 125.701 207.186 124.994C207.186 124.286 207.304 123.681 207.54 123.178C207.779 122.675 208.105 122.291 208.52 122.023C208.935 121.756 209.405 121.623 209.931 121.623C210.337 121.623 210.664 121.691 210.911 121.827C211.161 121.961 211.354 122.117 211.49 122.296C211.629 122.475 211.737 122.633 211.814 122.769H211.891V119.526H213.165V128.254H211.921V127.235H211.814C211.737 127.374 211.627 127.533 211.482 127.712C211.34 127.891 211.144 128.048 210.894 128.181C210.644 128.315 210.32 128.381 209.922 128.381ZM210.203 127.295C210.57 127.295 210.879 127.198 211.132 127.005C211.388 126.809 211.581 126.538 211.712 126.191C211.845 125.844 211.912 125.441 211.912 124.981C211.912 124.526 211.847 124.129 211.716 123.788C211.585 123.447 211.394 123.181 211.141 122.991C210.888 122.8 210.575 122.705 210.203 122.705C209.82 122.705 209.5 122.805 209.244 123.004C208.989 123.202 208.796 123.474 208.665 123.817C208.537 124.161 208.473 124.549 208.473 124.981C208.473 125.418 208.539 125.812 208.669 126.161C208.8 126.511 208.993 126.788 209.249 126.992C209.507 127.194 209.825 127.295 210.203 127.295ZM217.805 128.386C217.16 128.386 216.604 128.248 216.138 127.972C215.675 127.694 215.317 127.303 215.064 126.8C214.814 126.295 214.689 125.702 214.689 125.023C214.689 124.353 214.814 123.762 215.064 123.251C215.317 122.739 215.67 122.34 216.121 122.053C216.576 121.766 217.107 121.623 217.715 121.623C218.084 121.623 218.442 121.684 218.789 121.806C219.135 121.928 219.447 122.12 219.722 122.381C219.998 122.643 220.215 122.982 220.374 123.4C220.533 123.815 220.613 124.319 220.613 124.913V125.364H215.41V124.41H219.364C219.364 124.075 219.296 123.778 219.16 123.519C219.023 123.258 218.831 123.052 218.584 122.901C218.34 122.751 218.053 122.675 217.724 122.675C217.366 122.675 217.053 122.764 216.786 122.94C216.522 123.113 216.317 123.34 216.172 123.621C216.03 123.9 215.959 124.202 215.959 124.529V125.275C215.959 125.712 216.036 126.085 216.189 126.391C216.346 126.698 216.563 126.933 216.841 127.094C217.12 127.254 217.445 127.333 217.817 127.333C218.059 127.333 218.279 127.299 218.478 127.231C218.677 127.16 218.849 127.055 218.993 126.916C219.138 126.776 219.249 126.604 219.326 126.4L220.532 126.617C220.435 126.972 220.262 127.283 220.012 127.55C219.765 127.815 219.454 128.021 219.079 128.168C218.706 128.313 218.282 128.386 217.805 128.386ZM228.258 121.708V122.731H224.682V121.708H228.258ZM225.641 120.14H226.915V126.332C226.915 126.579 226.952 126.765 227.026 126.89C227.1 127.012 227.195 127.096 227.312 127.141C227.431 127.184 227.56 127.205 227.699 127.205C227.802 127.205 227.891 127.198 227.968 127.184C228.045 127.17 228.104 127.158 228.147 127.15L228.377 128.202C228.303 128.231 228.198 128.259 228.062 128.288C227.925 128.319 227.755 128.336 227.55 128.339C227.215 128.344 226.903 128.285 226.613 128.16C226.323 128.035 226.089 127.842 225.91 127.58C225.731 127.319 225.641 126.991 225.641 126.596V120.14ZM232.354 128.386C231.74 128.386 231.205 128.245 230.747 127.964C230.29 127.683 229.935 127.289 229.682 126.783C229.429 126.278 229.303 125.687 229.303 125.011C229.303 124.332 229.429 123.738 229.682 123.229C229.935 122.721 230.29 122.326 230.747 122.045C231.205 121.764 231.74 121.623 232.354 121.623C232.968 121.623 233.503 121.764 233.96 122.045C234.418 122.326 234.773 122.721 235.026 123.229C235.279 123.738 235.405 124.332 235.405 125.011C235.405 125.687 235.279 126.278 235.026 126.783C234.773 127.289 234.418 127.683 233.96 127.964C233.503 128.245 232.968 128.386 232.354 128.386ZM232.358 127.316C232.756 127.316 233.085 127.211 233.347 127.001C233.608 126.791 233.801 126.511 233.926 126.161C234.054 125.812 234.118 125.427 234.118 125.006C234.118 124.589 234.054 124.205 233.926 123.856C233.801 123.504 233.608 123.221 233.347 123.008C233.085 122.795 232.756 122.688 232.358 122.688C231.958 122.688 231.625 122.795 231.361 123.008C231.1 123.221 230.905 123.504 230.777 123.856C230.652 124.205 230.59 124.589 230.59 125.006C230.59 125.427 230.652 125.812 230.777 126.161C230.905 126.511 231.1 126.791 231.361 127.001C231.625 127.211 231.958 127.316 232.358 127.316ZM75.1404 141.708C74.9501 141.708 74.7768 141.692 74.6206 141.661C74.4643 141.633 74.3478 141.602 74.2711 141.567L74.5779 140.523C74.8109 140.586 75.0183 140.613 75.2001 140.604C75.3819 140.596 75.5424 140.528 75.6816 140.4C75.8237 140.272 75.9487 140.063 76.0566 139.773L76.2143 139.339L73.8194 132.708H75.1831L76.8407 137.788H76.9089L78.5666 132.708H79.9345L77.237 140.127C77.112 140.468 76.9529 140.756 76.7598 140.992C76.5666 141.231 76.3365 141.41 76.0694 141.529C75.8024 141.648 75.4927 141.708 75.1404 141.708ZM83.6664 139.386C83.0527 139.386 82.5172 139.245 82.0598 138.964C81.6025 138.683 81.2473 138.289 80.9945 137.783C80.7417 137.278 80.6152 136.687 80.6152 136.011C80.6152 135.332 80.7417 134.738 80.9945 134.229C81.2473 133.721 81.6025 133.326 82.0598 133.045C82.5172 132.764 83.0527 132.623 83.6664 132.623C84.28 132.623 84.8155 132.764 85.2729 133.045C85.7303 133.326 86.0854 133.721 86.3382 134.229C86.5911 134.738 86.7175 135.332 86.7175 136.011C86.7175 136.687 86.5911 137.278 86.3382 137.783C86.0854 138.289 85.7303 138.683 85.2729 138.964C84.8155 139.245 84.28 139.386 83.6664 139.386ZM83.6706 138.316C84.0684 138.316 84.3979 138.211 84.6593 138.001C84.9206 137.791 85.1138 137.511 85.2388 137.161C85.3667 136.812 85.4306 136.427 85.4306 136.006C85.4306 135.589 85.3667 135.205 85.2388 134.856C85.1138 134.504 84.9206 134.221 84.6593 134.008C84.3979 133.795 84.0684 133.688 83.6706 133.688C83.2701 133.688 82.9377 133.795 82.6735 134.008C82.4121 134.221 82.2175 134.504 82.0897 134.856C81.9647 135.205 81.9022 135.589 81.9022 136.006C81.9022 136.427 81.9647 136.812 82.0897 137.161C82.2175 137.511 82.4121 137.791 82.6735 138.001C82.9377 138.211 83.2701 138.316 83.6706 138.316ZM92.286 136.539V132.708H93.5645V139.254H92.3116V138.12H92.2434C92.0929 138.469 91.8514 138.761 91.519 138.994C91.1895 139.224 90.7789 139.339 90.2875 139.339C89.867 139.339 89.4949 139.246 89.171 139.062C88.85 138.874 88.5971 138.597 88.4125 138.231C88.2306 137.864 88.1397 137.411 88.1397 136.871V132.708H89.4139V136.718C89.4139 137.164 89.5375 137.519 89.7846 137.783C90.0318 138.048 90.3528 138.18 90.7477 138.18C90.9863 138.18 91.2235 138.12 91.4593 138.001C91.698 137.881 91.8954 137.701 92.0517 137.46C92.2108 137.218 92.2889 136.911 92.286 136.539ZM95.2765 139.254V132.708H96.508V133.748H96.5762C96.6955 133.396 96.9057 133.119 97.2069 132.917C97.5108 132.712 97.8546 132.61 98.2381 132.61C98.3176 132.61 98.4114 132.613 98.5194 132.619C98.6301 132.624 98.7168 132.631 98.7793 132.64V133.859C98.7282 133.844 98.6373 133.829 98.5066 133.812C98.3759 133.792 98.2452 133.782 98.1145 133.782C97.8134 133.782 97.5449 133.846 97.3091 133.974C97.0762 134.099 96.8915 134.273 96.7551 134.498C96.6188 134.719 96.5506 134.972 96.5506 135.256V139.254H95.2765ZM103.058 141.708V132.708H104.302V133.769H104.409C104.482 133.633 104.589 133.475 104.728 133.296C104.867 133.117 105.061 132.961 105.308 132.827C105.555 132.691 105.882 132.623 106.288 132.623C106.816 132.623 107.288 132.756 107.703 133.023C108.117 133.291 108.443 133.675 108.678 134.178C108.917 134.681 109.036 135.286 109.036 135.994C109.036 136.701 108.919 137.308 108.683 137.813C108.447 138.316 108.123 138.704 107.711 138.977C107.299 139.246 106.829 139.381 106.301 139.381C105.903 139.381 105.578 139.315 105.325 139.181C105.075 139.048 104.879 138.891 104.737 138.712C104.595 138.533 104.485 138.374 104.409 138.235H104.332V141.708H103.058ZM104.306 135.981C104.306 136.441 104.373 136.844 104.507 137.191C104.64 137.538 104.833 137.809 105.086 138.005C105.339 138.198 105.649 138.295 106.015 138.295C106.396 138.295 106.714 138.194 106.97 137.992C107.225 137.788 107.419 137.511 107.549 137.161C107.683 136.812 107.749 136.418 107.749 135.981C107.749 135.549 107.684 135.161 107.553 134.817C107.426 134.474 107.232 134.202 106.974 134.004C106.718 133.805 106.399 133.705 106.015 133.705C105.646 133.705 105.333 133.8 105.078 133.991C104.825 134.181 104.633 134.447 104.502 134.788C104.372 135.129 104.306 135.526 104.306 135.981ZM111.738 135.367V139.254H110.464V130.526H111.721V133.773H111.802C111.955 133.421 112.19 133.141 112.505 132.934C112.82 132.727 113.232 132.623 113.741 132.623C114.19 132.623 114.582 132.715 114.917 132.9C115.255 133.085 115.517 133.36 115.701 133.727C115.889 134.09 115.982 134.545 115.982 135.09V139.254H114.708V135.244C114.708 134.764 114.585 134.391 114.338 134.127C114.09 133.86 113.747 133.727 113.306 133.727C113.005 133.727 112.735 133.791 112.497 133.918C112.261 134.046 112.075 134.234 111.938 134.481C111.805 134.725 111.738 135.021 111.738 135.367ZM120.44 139.386C119.826 139.386 119.291 139.245 118.833 138.964C118.376 138.683 118.021 138.289 117.768 137.783C117.515 137.278 117.389 136.687 117.389 136.011C117.389 135.332 117.515 134.738 117.768 134.229C118.021 133.721 118.376 133.326 118.833 133.045C119.291 132.764 119.826 132.623 120.44 132.623C121.053 132.623 121.589 132.764 122.046 133.045C122.504 133.326 122.859 133.721 123.112 134.229C123.365 134.738 123.491 135.332 123.491 136.011C123.491 136.687 123.365 137.278 123.112 137.783C122.859 138.289 122.504 138.683 122.046 138.964C121.589 139.245 121.053 139.386 120.44 139.386ZM120.444 138.316C120.842 138.316 121.171 138.211 121.433 138.001C121.694 137.791 121.887 137.511 122.012 137.161C122.14 136.812 122.204 136.427 122.204 136.006C122.204 135.589 122.14 135.205 122.012 134.856C121.887 134.504 121.694 134.221 121.433 134.008C121.171 133.795 120.842 133.688 120.444 133.688C120.044 133.688 119.711 133.795 119.447 134.008C119.186 134.221 118.991 134.504 118.863 134.856C118.738 135.205 118.676 135.589 118.676 136.006C118.676 136.427 118.738 136.812 118.863 137.161C118.991 137.511 119.186 137.791 119.447 138.001C119.711 138.211 120.044 138.316 120.444 138.316ZM126.187 135.367V139.254H124.913V132.708H126.136V133.773H126.217C126.368 133.427 126.604 133.148 126.925 132.938C127.248 132.728 127.656 132.623 128.148 132.623C128.594 132.623 128.984 132.717 129.319 132.904C129.655 133.089 129.915 133.364 130.099 133.731C130.284 134.097 130.376 134.55 130.376 135.09V139.254H129.102V135.244C129.102 134.769 128.979 134.398 128.731 134.131C128.484 133.862 128.145 133.727 127.713 133.727C127.417 133.727 127.155 133.791 126.925 133.918C126.697 134.046 126.517 134.234 126.383 134.481C126.253 134.725 126.187 135.021 126.187 135.367ZM134.906 139.386C134.261 139.386 133.706 139.248 133.24 138.972C132.777 138.694 132.419 138.303 132.166 137.8C131.916 137.295 131.791 136.702 131.791 136.023C131.791 135.353 131.916 134.762 132.166 134.251C132.419 133.739 132.771 133.34 133.223 133.053C133.677 132.766 134.209 132.623 134.817 132.623C135.186 132.623 135.544 132.684 135.89 132.806C136.237 132.928 136.548 133.12 136.824 133.381C137.099 133.643 137.317 133.982 137.476 134.4C137.635 134.815 137.714 135.319 137.714 135.913V136.364H132.511V135.41H136.466C136.466 135.075 136.398 134.778 136.261 134.519C136.125 134.258 135.933 134.052 135.686 133.901C135.442 133.751 135.155 133.675 134.825 133.675C134.467 133.675 134.155 133.764 133.888 133.94C133.623 134.113 133.419 134.34 133.274 134.621C133.132 134.9 133.061 135.202 133.061 135.529V136.275C133.061 136.712 133.138 137.085 133.291 137.391C133.447 137.698 133.665 137.933 133.943 138.094C134.221 138.254 134.547 138.333 134.919 138.333C135.16 138.333 135.381 138.299 135.579 138.231C135.778 138.16 135.95 138.055 136.095 137.916C136.24 137.776 136.351 137.604 136.427 137.4L137.633 137.617C137.537 137.972 137.363 138.283 137.113 138.55C136.866 138.815 136.555 139.021 136.18 139.168C135.808 139.313 135.383 139.386 134.906 139.386ZM143.578 135.367V139.254H142.304V132.708H143.527V133.773H143.608C143.758 133.427 143.994 133.148 144.315 132.938C144.639 132.728 145.047 132.623 145.538 132.623C145.984 132.623 146.375 132.717 146.71 132.904C147.045 133.089 147.305 133.364 147.49 133.731C147.675 134.097 147.767 134.55 147.767 135.09V139.254H146.493V135.244C146.493 134.769 146.369 134.398 146.122 134.131C145.875 133.862 145.535 133.727 145.104 133.727C144.808 133.727 144.545 133.791 144.315 133.918C144.088 134.046 143.907 134.234 143.774 134.481C143.643 134.725 143.578 135.021 143.578 135.367ZM153.622 136.539V132.708H154.9V139.254H153.648V138.12H153.579C153.429 138.469 153.187 138.761 152.855 138.994C152.525 139.224 152.115 139.339 151.623 139.339C151.203 139.339 150.831 139.246 150.507 139.062C150.186 138.874 149.933 138.597 149.748 138.231C149.567 137.864 149.476 137.411 149.476 136.871V132.708H150.75V136.718C150.75 137.164 150.873 137.519 151.121 137.783C151.368 138.048 151.689 138.18 152.084 138.18C152.322 138.18 152.559 138.12 152.795 138.001C153.034 137.881 153.231 137.701 153.388 137.46C153.547 137.218 153.625 136.911 153.622 136.539ZM156.612 139.254V132.708H157.835V133.773H157.916C158.053 133.413 158.276 133.131 158.585 132.93C158.895 132.725 159.266 132.623 159.698 132.623C160.135 132.623 160.502 132.725 160.797 132.93C161.095 133.134 161.316 133.416 161.458 133.773H161.526C161.682 133.424 161.931 133.146 162.271 132.938C162.612 132.728 163.019 132.623 163.49 132.623C164.084 132.623 164.568 132.809 164.943 133.181C165.321 133.553 165.51 134.114 165.51 134.864V139.254H164.236V134.984C164.236 134.541 164.115 134.219 163.874 134.021C163.632 133.822 163.344 133.722 163.009 133.722C162.594 133.722 162.271 133.85 162.041 134.106C161.811 134.359 161.696 134.684 161.696 135.082V139.254H160.426V134.903C160.426 134.548 160.316 134.262 160.094 134.046C159.872 133.83 159.584 133.722 159.229 133.722C158.987 133.722 158.764 133.786 158.56 133.914C158.358 134.039 158.195 134.214 158.07 134.438C157.948 134.663 157.887 134.923 157.887 135.218V139.254H156.612ZM167.32 139.254V130.526H168.594V133.769H168.671C168.745 133.633 168.851 133.475 168.991 133.296C169.13 133.117 169.323 132.961 169.57 132.827C169.817 132.691 170.144 132.623 170.55 132.623C171.079 132.623 171.55 132.756 171.965 133.023C172.38 133.291 172.705 133.675 172.941 134.178C173.18 134.681 173.299 135.286 173.299 135.994C173.299 136.701 173.181 137.308 172.945 137.813C172.709 138.316 172.385 138.704 171.974 138.977C171.562 139.246 171.091 139.381 170.563 139.381C170.165 139.381 169.84 139.315 169.587 139.181C169.337 139.048 169.141 138.891 168.999 138.712C168.857 138.533 168.748 138.374 168.671 138.235H168.564V139.254H167.32ZM168.569 135.981C168.569 136.441 168.635 136.844 168.769 137.191C168.903 137.538 169.096 137.809 169.349 138.005C169.601 138.198 169.911 138.295 170.278 138.295C170.658 138.295 170.976 138.194 171.232 137.992C171.488 137.788 171.681 137.511 171.812 137.161C171.945 136.812 172.012 136.418 172.012 135.981C172.012 135.549 171.947 135.161 171.816 134.817C171.688 134.474 171.495 134.202 171.236 134.004C170.981 133.805 170.661 133.705 170.278 133.705C169.908 133.705 169.596 133.8 169.34 133.991C169.087 134.181 168.895 134.447 168.765 134.788C168.634 135.129 168.569 135.526 168.569 135.981ZM177.551 139.386C176.906 139.386 176.35 139.248 175.884 138.972C175.421 138.694 175.063 138.303 174.811 137.8C174.561 137.295 174.436 136.702 174.436 136.023C174.436 135.353 174.561 134.762 174.811 134.251C175.063 133.739 175.416 133.34 175.867 133.053C176.322 132.766 176.853 132.623 177.461 132.623C177.83 132.623 178.188 132.684 178.535 132.806C178.882 132.928 179.193 133.12 179.468 133.381C179.744 133.643 179.961 133.982 180.12 134.4C180.279 134.815 180.359 135.319 180.359 135.913V136.364H175.156V135.41H179.11C179.11 135.075 179.042 134.778 178.906 134.519C178.769 134.258 178.578 134.052 178.33 133.901C178.086 133.751 177.799 133.675 177.47 133.675C177.112 133.675 176.799 133.764 176.532 133.94C176.268 134.113 176.063 134.34 175.919 134.621C175.776 134.9 175.705 135.202 175.705 135.529V136.275C175.705 136.712 175.782 137.085 175.936 137.391C176.092 137.698 176.309 137.933 176.588 138.094C176.866 138.254 177.191 138.333 177.563 138.333C177.805 138.333 178.025 138.299 178.224 138.231C178.423 138.16 178.595 138.055 178.74 137.916C178.884 137.776 178.995 137.604 179.072 137.4L180.278 137.617C180.181 137.972 180.008 138.283 179.758 138.55C179.511 138.815 179.2 139.021 178.825 139.168C178.453 139.313 178.028 139.386 177.551 139.386ZM181.773 139.254V132.708H183.004V133.748H183.072C183.192 133.396 183.402 133.119 183.703 132.917C184.007 132.712 184.351 132.61 184.734 132.61C184.814 132.61 184.907 132.613 185.015 132.619C185.126 132.624 185.213 132.631 185.275 132.64V133.859C185.224 133.844 185.133 133.829 185.003 133.812C184.872 133.792 184.741 133.782 184.611 133.782C184.309 133.782 184.041 133.846 183.805 133.974C183.572 134.099 183.388 134.273 183.251 134.498C183.115 134.719 183.047 134.972 183.047 135.256V139.254H181.773Z" fill="#52667A"/>
<path d="M74.6037 181.504C74.5639 181.132 74.3963 180.842 74.1009 180.635C73.8082 180.427 73.4276 180.324 72.9588 180.324C72.6293 180.324 72.3466 180.373 72.1108 180.473C71.875 180.572 71.6946 180.707 71.5696 180.878C71.4446 181.048 71.3807 181.243 71.3778 181.461C71.3778 181.643 71.419 181.801 71.5014 181.934C71.5866 182.068 71.7017 182.182 71.8466 182.275C71.9915 182.366 72.152 182.443 72.3281 182.505C72.5043 182.568 72.6818 182.62 72.8608 182.663L73.679 182.868C74.0085 182.944 74.3253 183.048 74.6293 183.179C74.9361 183.309 75.2102 183.474 75.4517 183.673C75.696 183.872 75.8892 184.112 76.0312 184.393C76.1733 184.674 76.2443 185.004 76.2443 185.382C76.2443 185.893 76.1136 186.344 75.8523 186.733C75.5909 187.119 75.2131 187.422 74.7188 187.64C74.2273 187.856 73.6321 187.964 72.9332 187.964C72.2543 187.964 71.6648 187.859 71.1648 187.649C70.6676 187.439 70.2784 187.132 69.9972 186.728C69.7188 186.325 69.5682 185.834 69.5455 185.254H71.1009C71.1236 185.558 71.2173 185.811 71.3821 186.013C71.5469 186.214 71.7614 186.365 72.0256 186.464C72.2926 186.564 72.5909 186.613 72.9205 186.613C73.2642 186.613 73.5653 186.562 73.8239 186.46C74.0852 186.355 74.2898 186.21 74.4375 186.025C74.5852 185.838 74.6605 185.619 74.6634 185.369C74.6605 185.142 74.5938 184.954 74.4631 184.807C74.3324 184.656 74.1491 184.531 73.9134 184.432C73.6804 184.329 73.4077 184.238 73.0952 184.159L72.1023 183.903C71.3835 183.719 70.8153 183.439 70.3977 183.064C69.983 182.686 69.7756 182.184 69.7756 181.559C69.7756 181.045 69.9148 180.595 70.1932 180.209C70.4744 179.822 70.8565 179.522 71.3395 179.309C71.8224 179.094 72.3693 178.986 72.9801 178.986C73.5994 178.986 74.142 179.094 74.608 179.309C75.0767 179.522 75.4446 179.819 75.7116 180.2C75.9787 180.578 76.1165 181.013 76.125 181.504H74.6037ZM80.4833 187.96C79.8271 187.96 79.2603 187.824 78.783 187.551C78.3086 187.275 77.9435 186.886 77.6879 186.383C77.4322 185.878 77.3043 185.282 77.3043 184.598C77.3043 183.924 77.4322 183.334 77.6879 182.825C77.9464 182.314 78.3072 181.916 78.7702 181.632C79.2333 181.345 79.7773 181.201 80.4023 181.201C80.8058 181.201 81.1864 181.267 81.5444 181.397C81.9052 181.525 82.2234 181.724 82.4989 181.994C82.7773 182.264 82.9961 182.608 83.1552 183.025C83.3143 183.44 83.3938 183.934 83.3938 184.508V184.981H78.0288V183.942H81.9151C81.9123 183.646 81.8484 183.383 81.7234 183.153C81.5984 182.92 81.4237 182.737 81.1992 182.603C80.9776 182.47 80.7191 182.403 80.4237 182.403C80.1083 182.403 79.8313 182.48 79.5927 182.633C79.354 182.784 79.168 182.983 79.0344 183.23C78.9038 183.474 78.837 183.743 78.8342 184.035V184.943C78.8342 185.324 78.9038 185.65 79.043 185.923C79.1822 186.193 79.3768 186.4 79.6268 186.545C79.8768 186.687 80.1694 186.758 80.5046 186.758C80.729 186.758 80.9322 186.727 81.114 186.665C81.2958 186.599 81.4535 186.504 81.587 186.379C81.7205 186.254 81.8214 186.099 81.8896 185.915L83.3299 186.076C83.239 186.457 83.0657 186.79 82.81 187.074C82.5572 187.355 82.2333 187.574 81.8384 187.73C81.4435 187.883 80.9918 187.96 80.4833 187.96ZM86.2415 183.997V187.832H84.6989V181.287H86.1733V182.399H86.25C86.4006 182.032 86.6406 181.741 86.9702 181.525C87.3026 181.309 87.7131 181.201 88.2017 181.201C88.6534 181.201 89.0469 181.298 89.3821 181.491C89.7202 181.684 89.9815 181.964 90.1662 182.331C90.3537 182.697 90.446 183.142 90.4432 183.665V187.832H88.9006V183.903C88.9006 183.466 88.7869 183.123 88.5597 182.876C88.3352 182.629 88.0241 182.505 87.6264 182.505C87.3565 182.505 87.1165 182.565 86.9062 182.684C86.6989 182.801 86.5355 182.97 86.4162 183.192C86.2997 183.413 86.2415 183.682 86.2415 183.997ZM94.4403 187.947C93.9261 187.947 93.4659 187.815 93.0597 187.551C92.6534 187.287 92.3324 186.903 92.0966 186.4C91.8608 185.897 91.7429 185.287 91.7429 184.568C91.7429 183.841 91.8622 183.227 92.1009 182.727C92.3423 182.224 92.6676 181.845 93.0767 181.589C93.4858 181.331 93.9418 181.201 94.4446 181.201C94.8281 181.201 95.1435 181.267 95.3906 181.397C95.6378 181.525 95.8338 181.68 95.9787 181.862C96.1236 182.041 96.2358 182.21 96.3153 182.369H96.3793V179.105H97.9261V187.832H96.4091V186.801H96.3153C96.2358 186.96 96.1207 187.129 95.9702 187.308C95.8196 187.484 95.6207 187.635 95.3736 187.76C95.1264 187.885 94.8153 187.947 94.4403 187.947ZM94.8707 186.682C95.1974 186.682 95.4759 186.594 95.706 186.417C95.9361 186.238 96.1108 185.99 96.2301 185.672C96.3494 185.353 96.4091 184.983 96.4091 184.559C96.4091 184.136 96.3494 183.768 96.2301 183.456C96.1136 183.143 95.9403 182.9 95.7102 182.727C95.483 182.554 95.2031 182.467 94.8707 182.467C94.527 182.467 94.2401 182.557 94.0099 182.736C93.7798 182.915 93.6065 183.162 93.4901 183.477C93.3736 183.792 93.3153 184.153 93.3153 184.559C93.3153 184.969 93.3736 185.334 93.4901 185.655C93.6094 185.973 93.7841 186.224 94.0142 186.409C94.2472 186.591 94.5327 186.682 94.8707 186.682ZM105.815 181.287V182.48H102.052V181.287H105.815ZM102.981 179.719H104.524V185.863C104.524 186.071 104.555 186.23 104.618 186.341C104.683 186.449 104.768 186.522 104.873 186.562C104.978 186.602 105.095 186.622 105.223 186.622C105.319 186.622 105.407 186.615 105.487 186.601C105.569 186.586 105.632 186.574 105.674 186.562L105.934 187.768C105.852 187.797 105.734 187.828 105.581 187.862C105.43 187.896 105.245 187.916 105.027 187.922C104.64 187.933 104.292 187.875 103.983 187.747C103.673 187.616 103.427 187.415 103.245 187.142C103.066 186.869 102.978 186.528 102.981 186.119V179.719ZM108.788 183.997V187.832H107.246V179.105H108.754V182.399H108.831C108.984 182.03 109.222 181.738 109.543 181.525C109.866 181.309 110.278 181.201 110.778 181.201C111.233 181.201 111.629 181.297 111.967 181.487C112.305 181.677 112.567 181.956 112.751 182.322C112.939 182.689 113.033 183.136 113.033 183.665V187.832H111.49V183.903C111.49 183.463 111.376 183.12 111.149 182.876C110.925 182.629 110.609 182.505 110.203 182.505C109.93 182.505 109.686 182.565 109.47 182.684C109.257 182.801 109.089 182.97 108.967 183.192C108.848 183.413 108.788 183.682 108.788 183.997ZM117.503 187.96C116.847 187.96 116.28 187.824 115.803 187.551C115.328 187.275 114.963 186.886 114.707 186.383C114.452 185.878 114.324 185.282 114.324 184.598C114.324 183.924 114.452 183.334 114.707 182.825C114.966 182.314 115.327 181.916 115.79 181.632C116.253 181.345 116.797 181.201 117.422 181.201C117.825 181.201 118.206 181.267 118.564 181.397C118.925 181.525 119.243 181.724 119.518 181.994C119.797 182.264 120.016 182.608 120.175 183.025C120.334 183.44 120.413 183.934 120.413 184.508V184.981H115.048V183.942H118.935C118.932 183.646 118.868 183.383 118.743 183.153C118.618 182.92 118.443 182.737 118.219 182.603C117.997 182.47 117.739 182.403 117.443 182.403C117.128 182.403 116.851 182.48 116.612 182.633C116.374 182.784 116.188 182.983 116.054 183.23C115.923 183.474 115.857 183.743 115.854 184.035V184.943C115.854 185.324 115.923 185.65 116.062 185.923C116.202 186.193 116.396 186.4 116.646 186.545C116.896 186.687 117.189 186.758 117.524 186.758C117.749 186.758 117.952 186.727 118.134 186.665C118.315 186.599 118.473 186.504 118.607 186.379C118.74 186.254 118.841 186.099 118.909 185.915L120.349 186.076C120.259 186.457 120.085 186.79 119.83 187.074C119.577 187.355 119.253 187.574 118.858 187.73C118.463 187.883 118.011 187.96 117.503 187.96ZM127.55 187.96C126.897 187.96 126.336 187.817 125.867 187.53C125.401 187.243 125.042 186.846 124.789 186.341C124.539 185.832 124.414 185.247 124.414 184.585C124.414 183.92 124.542 183.334 124.797 182.825C125.053 182.314 125.414 181.916 125.88 181.632C126.348 181.345 126.902 181.201 127.542 181.201C128.073 181.201 128.543 181.299 128.952 181.495C129.364 181.689 129.692 181.963 129.936 182.318C130.181 182.67 130.32 183.082 130.354 183.554H128.88C128.82 183.238 128.678 182.976 128.453 182.765C128.232 182.552 127.935 182.446 127.563 182.446C127.248 182.446 126.971 182.531 126.732 182.701C126.493 182.869 126.307 183.111 126.174 183.426C126.043 183.741 125.978 184.119 125.978 184.559C125.978 185.005 126.043 185.389 126.174 185.71C126.304 186.028 126.488 186.274 126.723 186.447C126.962 186.618 127.242 186.703 127.563 186.703C127.79 186.703 127.993 186.66 128.172 186.575C128.354 186.487 128.506 186.361 128.628 186.196C128.75 186.031 128.834 185.831 128.88 185.595H130.354C130.317 186.058 130.181 186.469 129.945 186.826C129.709 187.182 129.388 187.46 128.982 187.662C128.576 187.861 128.098 187.96 127.55 187.96ZM134.476 187.96C133.837 187.96 133.283 187.819 132.814 187.538C132.345 187.257 131.982 186.863 131.723 186.358C131.467 185.852 131.339 185.261 131.339 184.585C131.339 183.909 131.467 183.317 131.723 182.808C131.982 182.299 132.345 181.905 132.814 181.623C133.283 181.342 133.837 181.201 134.476 181.201C135.115 181.201 135.669 181.342 136.138 181.623C136.607 181.905 136.969 182.299 137.224 182.808C137.483 183.317 137.612 183.909 137.612 184.585C137.612 185.261 137.483 185.852 137.224 186.358C136.969 186.863 136.607 187.257 136.138 187.538C135.669 187.819 135.115 187.96 134.476 187.96ZM134.484 186.724C134.831 186.724 135.121 186.629 135.354 186.439C135.587 186.245 135.76 185.987 135.874 185.663C135.99 185.339 136.048 184.978 136.048 184.581C136.048 184.18 135.99 183.818 135.874 183.494C135.76 183.167 135.587 182.907 135.354 182.714C135.121 182.521 134.831 182.424 134.484 182.424C134.129 182.424 133.834 182.521 133.598 182.714C133.365 182.907 133.19 183.167 133.074 183.494C132.96 183.818 132.903 184.18 132.903 184.581C132.903 184.978 132.96 185.339 133.074 185.663C133.19 185.987 133.365 186.245 133.598 186.439C133.834 186.629 134.129 186.724 134.484 186.724ZM141.35 187.947C140.836 187.947 140.376 187.815 139.97 187.551C139.564 187.287 139.243 186.903 139.007 186.4C138.771 185.897 138.653 185.287 138.653 184.568C138.653 183.841 138.772 183.227 139.011 182.727C139.252 182.224 139.578 181.845 139.987 181.589C140.396 181.331 140.852 181.201 141.355 181.201C141.738 181.201 142.054 181.267 142.301 181.397C142.548 181.525 142.744 181.68 142.889 181.862C143.034 182.041 143.146 182.21 143.225 182.369H143.289V179.105H144.836V187.832H143.319V186.801H143.225C143.146 186.96 143.031 187.129 142.88 187.308C142.73 187.484 142.531 187.635 142.284 187.76C142.037 187.885 141.725 187.947 141.35 187.947ZM141.781 186.682C142.108 186.682 142.386 186.594 142.616 186.417C142.846 186.238 143.021 185.99 143.14 185.672C143.26 185.353 143.319 184.983 143.319 184.559C143.319 184.136 143.26 183.768 143.14 183.456C143.024 183.143 142.85 182.9 142.62 182.727C142.393 182.554 142.113 182.467 141.781 182.467C141.437 182.467 141.15 182.557 140.92 182.736C140.69 182.915 140.517 183.162 140.4 183.477C140.284 183.792 140.225 184.153 140.225 184.559C140.225 184.969 140.284 185.334 140.4 185.655C140.52 185.973 140.694 186.224 140.924 186.409C141.157 186.591 141.443 186.682 141.781 186.682ZM149.378 187.96C148.722 187.96 148.155 187.824 147.678 187.551C147.203 187.275 146.838 186.886 146.582 186.383C146.327 185.878 146.199 185.282 146.199 184.598C146.199 183.924 146.327 183.334 146.582 182.825C146.841 182.314 147.202 181.916 147.665 181.632C148.128 181.345 148.672 181.201 149.297 181.201C149.7 181.201 150.081 181.267 150.439 181.397C150.8 181.525 151.118 181.724 151.393 181.994C151.672 182.264 151.891 182.608 152.05 183.025C152.209 183.44 152.288 183.934 152.288 184.508V184.981H146.923V183.942H150.81C150.807 183.646 150.743 183.383 150.618 183.153C150.493 182.92 150.318 182.737 150.094 182.603C149.872 182.47 149.614 182.403 149.318 182.403C149.003 182.403 148.726 182.48 148.487 182.633C148.249 182.784 148.063 182.983 147.929 183.23C147.798 183.474 147.732 183.743 147.729 184.035V184.943C147.729 185.324 147.798 185.65 147.938 185.923C148.077 186.193 148.271 186.4 148.521 186.545C148.771 186.687 149.064 186.758 149.399 186.758C149.624 186.758 149.827 186.727 150.009 186.665C150.19 186.599 150.348 186.504 150.482 186.379C150.615 186.254 150.716 186.099 150.784 185.915L152.224 186.076C152.134 186.457 151.96 186.79 151.705 187.074C151.452 187.355 151.128 187.574 150.733 187.73C150.338 187.883 149.886 187.96 149.378 187.96ZM158.453 187.964C158.039 187.964 157.665 187.89 157.333 187.743C157.003 187.592 156.742 187.37 156.549 187.078C156.358 186.785 156.263 186.424 156.263 185.995C156.263 185.626 156.331 185.321 156.468 185.079C156.604 184.838 156.79 184.645 157.026 184.5C157.262 184.355 157.527 184.245 157.823 184.172C158.121 184.095 158.429 184.04 158.748 184.005C159.131 183.966 159.442 183.93 159.681 183.899C159.919 183.865 160.093 183.814 160.201 183.745C160.311 183.674 160.367 183.565 160.367 183.417V183.392C160.367 183.071 160.272 182.822 160.081 182.646C159.891 182.47 159.617 182.382 159.259 182.382C158.881 182.382 158.581 182.464 158.36 182.629C158.141 182.794 157.993 182.988 157.917 183.213L156.476 183.008C156.59 182.611 156.777 182.278 157.039 182.011C157.3 181.741 157.62 181.54 157.998 181.406C158.375 181.27 158.793 181.201 159.25 181.201C159.566 181.201 159.88 181.238 160.192 181.312C160.505 181.386 160.79 181.508 161.049 181.679C161.307 181.846 161.515 182.075 161.671 182.365C161.83 182.655 161.909 183.017 161.909 183.451V187.832H160.426V186.933H160.375C160.282 187.115 160.15 187.285 159.979 187.444C159.811 187.601 159.6 187.727 159.344 187.824C159.091 187.917 158.794 187.964 158.453 187.964ZM158.854 186.831C159.164 186.831 159.432 186.77 159.659 186.647C159.887 186.522 160.061 186.358 160.184 186.153C160.309 185.949 160.371 185.726 160.371 185.484V184.713C160.323 184.753 160.24 184.79 160.124 184.824C160.01 184.858 159.882 184.888 159.74 184.913C159.598 184.939 159.458 184.961 159.319 184.981C159.179 185.001 159.059 185.018 158.956 185.032C158.726 185.064 158.52 185.115 158.338 185.186C158.157 185.257 158.013 185.356 157.908 185.484C157.803 185.609 157.75 185.771 157.75 185.97C157.75 186.254 157.854 186.469 158.061 186.613C158.269 186.758 158.533 186.831 158.854 186.831ZM166.307 190.423C165.753 190.423 165.277 190.348 164.88 190.197C164.482 190.049 164.162 189.851 163.921 189.601C163.679 189.351 163.512 189.074 163.418 188.77L164.807 188.433C164.87 188.561 164.961 188.687 165.08 188.812C165.199 188.94 165.36 189.045 165.561 189.128C165.766 189.213 166.023 189.255 166.333 189.255C166.77 189.255 167.132 189.149 167.419 188.936C167.706 188.726 167.85 188.379 167.85 187.896V186.656H167.773C167.694 186.815 167.577 186.978 167.424 187.146C167.273 187.314 167.073 187.454 166.823 187.568C166.576 187.682 166.265 187.738 165.89 187.738C165.387 187.738 164.931 187.62 164.522 187.385C164.115 187.146 163.792 186.791 163.55 186.319C163.311 185.845 163.192 185.251 163.192 184.538C163.192 183.819 163.311 183.213 163.55 182.719C163.792 182.221 164.117 181.845 164.526 181.589C164.935 181.331 165.391 181.201 165.894 181.201C166.277 181.201 166.593 181.267 166.84 181.397C167.09 181.525 167.289 181.68 167.436 181.862C167.584 182.041 167.696 182.21 167.773 182.369H167.858V181.287H169.38V187.939C169.38 188.498 169.246 188.961 168.979 189.328C168.712 189.694 168.347 189.969 167.884 190.15C167.421 190.332 166.895 190.423 166.307 190.423ZM166.32 186.528C166.647 186.528 166.925 186.449 167.155 186.29C167.385 186.13 167.56 185.902 167.679 185.603C167.799 185.305 167.858 184.947 167.858 184.53C167.858 184.118 167.799 183.757 167.679 183.447C167.563 183.138 167.39 182.897 167.159 182.727C166.932 182.554 166.652 182.467 166.32 182.467C165.976 182.467 165.689 182.557 165.459 182.736C165.229 182.915 165.056 183.16 164.939 183.473C164.823 183.782 164.765 184.135 164.765 184.53C164.765 184.93 164.823 185.281 164.939 185.582C165.059 185.88 165.233 186.113 165.463 186.281C165.696 186.446 165.982 186.528 166.32 186.528ZM172.844 187.964C172.429 187.964 172.056 187.89 171.723 187.743C171.394 187.592 171.132 187.37 170.939 187.078C170.749 186.785 170.654 186.424 170.654 185.995C170.654 185.626 170.722 185.321 170.858 185.079C170.995 184.838 171.181 184.645 171.417 184.5C171.652 184.355 171.918 184.245 172.213 184.172C172.512 184.095 172.82 184.04 173.138 184.005C173.522 183.966 173.833 183.93 174.071 183.899C174.31 183.865 174.483 183.814 174.591 183.745C174.702 183.674 174.757 183.565 174.757 183.417V183.392C174.757 183.071 174.662 182.822 174.472 182.646C174.282 182.47 174.007 182.382 173.65 182.382C173.272 182.382 172.972 182.464 172.75 182.629C172.532 182.794 172.384 182.988 172.307 183.213L170.867 183.008C170.98 182.611 171.168 182.278 171.429 182.011C171.691 181.741 172.01 181.54 172.388 181.406C172.766 181.27 173.184 181.201 173.641 181.201C173.956 181.201 174.27 181.238 174.583 181.312C174.895 181.386 175.181 181.508 175.439 181.679C175.698 181.846 175.905 182.075 176.061 182.365C176.221 182.655 176.3 183.017 176.3 183.451V187.832H174.817V186.933H174.766C174.672 187.115 174.54 187.285 174.37 187.444C174.202 187.601 173.99 187.727 173.735 187.824C173.482 187.917 173.185 187.964 172.844 187.964ZM173.245 186.831C173.554 186.831 173.823 186.77 174.05 186.647C174.277 186.522 174.452 186.358 174.574 186.153C174.699 185.949 174.762 185.726 174.762 185.484V184.713C174.713 184.753 174.631 184.79 174.515 184.824C174.401 184.858 174.273 184.888 174.131 184.913C173.989 184.939 173.848 184.961 173.709 184.981C173.57 185.001 173.449 185.018 173.347 185.032C173.117 185.064 172.911 185.115 172.729 185.186C172.547 185.257 172.404 185.356 172.299 185.484C172.194 185.609 172.141 185.771 172.141 185.97C172.141 186.254 172.245 186.469 172.452 186.613C172.659 186.758 172.924 186.831 173.245 186.831ZM177.851 187.832V181.287H179.394V187.832H177.851ZM178.627 180.358C178.382 180.358 178.172 180.277 177.996 180.115C177.82 179.95 177.732 179.753 177.732 179.522C177.732 179.29 177.82 179.092 177.996 178.93C178.172 178.765 178.382 178.683 178.627 178.683C178.874 178.683 179.084 178.765 179.257 178.93C179.434 179.092 179.522 179.29 179.522 179.522C179.522 179.753 179.434 179.95 179.257 180.115C179.084 180.277 178.874 180.358 178.627 180.358ZM182.523 183.997V187.832H180.98V181.287H182.455V182.399H182.531C182.682 182.032 182.922 181.741 183.251 181.525C183.584 181.309 183.994 181.201 184.483 181.201C184.935 181.201 185.328 181.298 185.663 181.491C186.001 181.684 186.263 181.964 186.447 182.331C186.635 182.697 186.727 183.142 186.724 183.665V187.832H185.182V183.903C185.182 183.466 185.068 183.123 184.841 182.876C184.616 182.629 184.305 182.505 183.908 182.505C183.638 182.505 183.398 182.565 183.188 182.684C182.98 182.801 182.817 182.97 182.697 183.192C182.581 183.413 182.523 183.682 182.523 183.997Z" fill="#52667A"/>
<path d="M123.019 521.304V531.486H121.378L116.581 524.55H116.496V531.486H114.652V521.304H116.302L121.095 528.244H121.184V521.304H123.019ZM128.33 531.635C127.564 531.635 126.903 531.476 126.346 531.158C125.793 530.836 125.367 530.382 125.068 529.795C124.77 529.205 124.621 528.511 124.621 527.712C124.621 526.927 124.77 526.237 125.068 525.644C125.37 525.048 125.791 524.583 126.331 524.252C126.871 523.917 127.506 523.75 128.235 523.75C128.706 523.75 129.15 523.826 129.568 523.979C129.989 524.128 130.36 524.36 130.681 524.675C131.006 524.99 131.261 525.391 131.447 525.878C131.633 526.362 131.725 526.938 131.725 527.608V528.16H125.466V526.947H130C129.997 526.602 129.922 526.295 129.777 526.027C129.631 525.755 129.427 525.541 129.165 525.386C128.907 525.23 128.605 525.152 128.26 525.152C127.892 525.152 127.569 525.241 127.291 525.42C127.012 525.596 126.795 525.828 126.639 526.116C126.487 526.401 126.409 526.715 126.406 527.056V528.115C126.406 528.559 126.487 528.94 126.649 529.258C126.812 529.573 127.039 529.815 127.331 529.984C127.622 530.15 127.964 530.233 128.355 530.233C128.617 530.233 128.853 530.196 129.066 530.124C129.278 530.047 129.462 529.936 129.617 529.79C129.773 529.645 129.891 529.464 129.97 529.249L131.651 529.437C131.545 529.882 131.343 530.269 131.044 530.601C130.749 530.929 130.371 531.184 129.911 531.366C129.45 531.545 128.923 531.635 128.33 531.635ZM134.555 523.849L136.097 526.668L137.663 523.849H139.567L137.265 527.668L139.607 531.486H137.712L136.097 528.736L134.496 531.486H132.587L134.913 527.668L132.646 523.849H134.555ZM144.772 523.849V525.241H140.382V523.849H144.772ZM141.466 522.02H143.266V529.189C143.266 529.431 143.302 529.616 143.375 529.746C143.451 529.872 143.551 529.958 143.673 530.004C143.796 530.051 143.932 530.074 144.081 530.074C144.194 530.074 144.296 530.065 144.389 530.049C144.485 530.032 144.558 530.017 144.608 530.004L144.911 531.411C144.815 531.444 144.678 531.481 144.499 531.521C144.323 531.56 144.108 531.583 143.852 531.59C143.402 531.603 142.996 531.535 142.634 531.386C142.273 531.234 141.986 530.999 141.774 530.68C141.565 530.362 141.463 529.964 141.466 529.487V522.02Z" fill="#69BDFF"/>
</g>
<defs>
<clipPath id="clip0_104_34">
<rect width="260" height="566" fill="white"/>
</clipPath>
</defs>
</svg>
