<svg width="260" height="566" viewBox="0 0 260 566" fill="none" xmlns="http://www.w3.org/2000/svg">
<g clip-path="url(#clip0_104_234)">
<path d="M230.667 0H29.3333C13.133 0 0 13.2108 0 29.5071V536.493C0 552.789 13.133 566 29.3333 566H230.667C246.867 566 260 552.789 260 536.493V29.5071C260 13.2108 246.867 0 230.667 0Z" fill="#E6E6E6"/>
<path d="M51.3333 298.851C49.0505 298.851 47.106 298.226 45.4999 296.976C43.8939 295.716 42.6666 293.892 41.8181 291.505C40.9696 289.107 40.5454 286.211 40.5454 282.817C40.5454 279.444 40.9696 276.563 41.8181 274.175C42.6767 271.777 43.909 269.948 45.5151 268.688C47.1313 267.418 49.0707 266.783 51.3333 266.783C53.5959 266.783 55.5303 267.418 57.1363 268.688C58.7525 269.948 59.9848 271.777 60.8333 274.175C61.6919 276.563 62.1211 279.444 62.1211 282.817C62.1211 286.211 61.6969 289.107 60.8484 291.505C59.9999 293.892 58.7727 295.716 57.1666 296.976C55.5605 298.226 53.6161 298.851 51.3333 298.851ZM51.3333 295.498C53.5959 295.498 55.3535 294.4 56.606 292.206C57.8585 290.011 58.4848 286.882 58.4848 282.817C58.4848 280.114 58.1969 277.813 57.6211 275.913C57.0555 274.012 56.2373 272.565 55.1666 271.569C54.106 270.573 52.8282 270.075 51.3333 270.075C49.0909 270.075 47.3383 271.188 46.0757 273.414C44.8131 275.629 44.1817 278.763 44.1817 282.817C44.1817 285.52 44.4646 287.816 45.0303 289.706C45.5959 291.596 46.409 293.034 47.4696 294.02C48.5403 295.005 49.8282 295.498 51.3333 295.498ZM78.3633 298.851C76.3633 298.851 74.5806 298.505 73.0153 297.815C71.4593 297.124 70.2219 296.164 69.3033 294.934C68.3939 293.694 67.8986 292.257 67.8179 290.621H71.6366C71.7173 291.627 72.0606 292.495 72.6666 293.227C73.2726 293.948 74.0653 294.507 75.0453 294.903C76.0253 295.3 77.1113 295.498 78.3033 295.498C79.6366 295.498 80.8179 295.264 81.8486 294.797C82.8786 294.329 83.6866 293.679 84.2726 292.846C84.8586 292.012 85.1513 291.047 85.1513 289.95C85.1513 288.802 84.8686 287.791 84.3033 286.917C83.7373 286.033 82.9093 285.342 81.8179 284.844C80.7273 284.347 79.3939 284.097 77.8179 284.097H75.3333V280.744H77.8179C79.0506 280.744 80.1313 280.521 81.0606 280.073C81.9999 279.627 82.7319 278.996 83.2573 278.184C83.7926 277.371 84.0606 276.416 84.0606 275.318C84.0606 274.262 83.8279 273.342 83.3633 272.56C82.8986 271.777 82.2426 271.168 81.3939 270.731C80.5553 270.294 79.5653 270.075 78.4239 270.075C77.3533 270.075 76.3433 270.274 75.3939 270.67C74.4546 271.056 73.6866 271.62 73.0906 272.361C72.4946 273.093 72.1719 273.977 72.1213 275.014H68.4846C68.5453 273.378 69.0353 271.945 69.9546 270.716C70.8739 269.476 72.0759 268.511 73.5606 267.82C75.0553 267.129 76.6966 266.783 78.4846 266.783C80.4039 266.783 82.0506 267.175 83.4239 267.957C84.7979 268.729 85.8533 269.75 86.5906 271.02C87.3279 272.29 87.6966 273.662 87.6966 275.136C87.6966 276.893 87.2373 278.392 86.3179 279.631C85.4093 280.871 84.1719 281.73 82.6059 282.207V282.451C84.5653 282.777 86.0959 283.615 87.1966 284.966C88.2979 286.307 88.8486 287.969 88.8486 289.95C88.8486 291.647 88.3886 293.171 87.4699 294.523C86.5606 295.864 85.3179 296.921 83.7426 297.693C82.1666 298.465 80.3739 298.851 78.3633 298.851ZM97.7119 294.431C96.9646 294.431 96.3233 294.162 95.7879 293.623C95.2526 293.085 94.9846 292.44 94.9846 291.688C94.9846 290.935 95.2526 290.29 95.7879 289.752C96.3233 289.213 96.9646 288.944 97.7119 288.944C98.4593 288.944 99.1013 289.213 99.6366 289.752C100.172 290.29 100.439 290.935 100.439 291.688C100.439 292.185 100.313 292.643 100.061 293.059C99.8179 293.476 99.4899 293.811 99.0759 294.065C98.6719 294.309 98.2173 294.431 97.7119 294.431ZM97.7119 278.641C96.9646 278.641 96.3233 278.371 95.7879 277.833C95.2526 277.294 94.9846 276.649 94.9846 275.897C94.9846 275.146 95.2526 274.501 95.7879 273.962C96.3233 273.424 96.9646 273.154 97.7119 273.154C98.4593 273.154 99.1013 273.424 99.6366 273.962C100.172 274.501 100.439 275.146 100.439 275.897C100.439 276.396 100.313 276.852 100.061 277.27C99.8179 277.686 99.4899 278.021 99.0759 278.275C98.6719 278.519 98.2173 278.641 97.7119 278.641ZM106.068 292.023V288.913L119.705 267.21H121.947V272.026H120.432L110.129 288.426V288.67H128.493V292.023H106.068ZM120.674 298.424V291.078V289.63V267.21H124.25V298.424H120.674ZM144.292 298.851C142.009 298.851 140.065 298.226 138.459 296.976C136.852 295.716 135.625 293.892 134.777 291.505C133.928 289.107 133.504 286.211 133.504 282.817C133.504 279.444 133.928 276.563 134.777 274.175C135.635 271.777 136.867 269.948 138.473 268.688C140.089 267.418 142.029 266.783 144.292 266.783C146.554 266.783 148.489 267.418 150.095 268.688C151.711 269.948 152.943 271.777 153.792 274.175C154.65 276.563 155.079 279.444 155.079 282.817C155.079 286.211 154.655 289.107 153.807 291.505C152.959 293.892 151.731 295.716 150.125 296.976C148.519 298.226 146.575 298.851 144.292 298.851ZM144.292 295.498C146.554 295.498 148.312 294.4 149.565 292.206C150.817 290.011 151.443 286.882 151.443 282.817C151.443 280.114 151.155 277.813 150.579 275.913C150.014 274.012 149.196 272.565 148.125 271.569C147.065 270.573 145.787 270.075 144.292 270.075C142.049 270.075 140.297 271.188 139.034 273.414C137.771 275.629 137.14 278.763 137.14 282.817C137.14 285.52 137.423 287.816 137.989 289.706C138.554 291.596 139.367 293.034 140.428 294.02C141.499 295.005 142.787 295.498 144.292 295.498ZM161.383 298.424V267.21H171.867C174.302 267.21 176.292 267.652 177.837 268.536C179.393 269.41 180.544 270.594 181.292 272.087C182.039 273.581 182.413 275.247 182.413 277.086C182.413 278.925 182.039 280.597 181.292 282.101C180.554 283.605 179.413 284.803 177.867 285.698C176.322 286.582 174.342 287.024 171.928 287.024H164.413V283.671H171.807C173.473 283.671 174.812 283.381 175.822 282.802C176.832 282.223 177.565 281.44 178.019 280.455C178.483 279.459 178.716 278.336 178.716 277.086C178.716 275.836 178.483 274.719 178.019 273.733C177.565 272.748 176.827 271.976 175.807 271.416C174.787 270.848 173.433 270.563 171.746 270.563H165.14V298.424H161.383ZM188.466 267.21H192.951L203.496 293.12H203.86L214.405 267.21H218.89V298.424H215.375V274.708H215.072L205.375 298.424H201.981L192.284 274.708H191.981V298.424H188.466V267.21Z" fill="#2A3034"/>
<path d="M230.5 0H29.5C12.6553 0 -1 13.6553 -1 30.5C-1 47.3447 12.6553 61 29.5 61H230.5C247.345 61 261 47.3447 261 30.5C261 13.6553 247.345 0 230.5 0Z" fill="white"/>
<path d="M23.3334 55.7564L19.0908 51.4887C18.8304 51.2268 18.8304 50.8022 19.0908 50.5403L23.3334 46.2725" stroke="#2E2638" stroke-width="3.5" stroke-linecap="round"/>
<path d="M228 505.645H32.0001C22.4271 505.645 14.6667 513.451 14.6667 523.081V533.81C14.6667 543.44 22.4271 551.246 32.0001 551.246H228C237.573 551.246 245.333 543.44 245.333 533.81V523.081C245.333 513.451 237.573 505.645 228 505.645Z" fill="#69BDFF"/>
<path d="M43.8721 101.398H40.9502C40.8669 100.919 40.7132 100.495 40.4893 100.125C40.2653 99.75 39.9867 99.4323 39.6533 99.1719C39.32 98.9115 38.9398 98.7161 38.5127 98.5859C38.0908 98.4505 37.6351 98.3828 37.1455 98.3828C36.2757 98.3828 35.5049 98.6016 34.833 99.0391C34.1611 99.4714 33.6351 100.107 33.2549 100.945C32.8747 101.779 32.6846 102.797 32.6846 104C32.6846 105.224 32.8747 106.255 33.2549 107.094C33.6403 107.927 34.1663 108.557 34.833 108.984C35.5049 109.406 36.2731 109.617 37.1377 109.617C37.6169 109.617 38.0648 109.555 38.4814 109.43C38.9033 109.299 39.2809 109.109 39.6143 108.859C39.9528 108.609 40.2367 108.302 40.4658 107.937C40.7002 107.573 40.8617 107.156 40.9502 106.687L43.8721 106.703C43.7627 107.464 43.5257 108.177 43.1611 108.844C42.8018 109.51 42.3304 110.099 41.7471 110.609C41.1637 111.115 40.4814 111.51 39.7002 111.797C38.9189 112.078 38.0518 112.219 37.0986 112.219C35.6924 112.219 34.4372 111.893 33.333 111.242C32.2288 110.591 31.359 109.651 30.7236 108.422C30.0882 107.193 29.7705 105.719 29.7705 104C29.7705 102.276 30.0908 100.802 30.7314 99.5781C31.3721 98.349 32.2445 97.4089 33.3486 96.7578C34.4528 96.1068 35.7028 95.7812 37.0986 95.7812C37.9893 95.7812 38.8174 95.9062 39.583 96.1562C40.3486 96.4062 41.0309 96.7734 41.6299 97.2578C42.2288 97.737 42.721 98.3255 43.1064 99.0234C43.4971 99.7161 43.7523 100.508 43.8721 101.398ZM49.2295 104.969V112H46.4014V96H49.167V102.039H49.3076C49.5889 101.362 50.0238 100.828 50.6123 100.437C51.2061 100.042 51.9613 99.8438 52.8779 99.8438C53.7113 99.8438 54.4378 100.018 55.0576 100.367C55.6774 100.716 56.1566 101.227 56.4951 101.898C56.8389 102.57 57.0107 103.391 57.0107 104.359V112H54.1826V104.797C54.1826 103.99 53.9743 103.362 53.5576 102.914C53.1462 102.461 52.568 102.234 51.8232 102.234C51.3232 102.234 50.8753 102.344 50.4795 102.562C50.0889 102.776 49.7816 103.086 49.5576 103.492C49.3389 103.898 49.2295 104.391 49.2295 104.969ZM65.1279 112.234C63.9561 112.234 62.9404 111.977 62.0811 111.461C61.2217 110.945 60.555 110.224 60.0811 109.297C59.6123 108.37 59.3779 107.286 59.3779 106.047C59.3779 104.807 59.6123 103.721 60.0811 102.789C60.555 101.857 61.2217 101.133 62.0811 100.617C62.9404 100.102 63.9561 99.8438 65.1279 99.8438C66.2998 99.8438 67.3154 100.102 68.1748 100.617C69.0342 101.133 69.6982 101.857 70.167 102.789C70.641 103.721 70.8779 104.807 70.8779 106.047C70.8779 107.286 70.641 108.37 70.167 109.297C69.6982 110.224 69.0342 110.945 68.1748 111.461C67.3154 111.977 66.2998 112.234 65.1279 112.234ZM65.1436 109.969C65.779 109.969 66.3102 109.794 66.7373 109.445C67.1644 109.091 67.4821 108.617 67.6904 108.023C67.904 107.43 68.0107 106.768 68.0107 106.039C68.0107 105.305 67.904 104.641 67.6904 104.047C67.4821 103.448 67.1644 102.971 66.7373 102.617C66.3102 102.263 65.779 102.086 65.1436 102.086C64.4925 102.086 63.9508 102.263 63.5186 102.617C63.0915 102.971 62.7712 103.448 62.5576 104.047C62.3493 104.641 62.2451 105.305 62.2451 106.039C62.2451 106.768 62.3493 107.43 62.5576 108.023C62.7712 108.617 63.0915 109.091 63.5186 109.445C63.9508 109.794 64.4925 109.969 65.1436 109.969ZM78.5127 112.234C77.3408 112.234 76.3252 111.977 75.4658 111.461C74.6064 110.945 73.9398 110.224 73.4658 109.297C72.9971 108.37 72.7627 107.286 72.7627 106.047C72.7627 104.807 72.9971 103.721 73.4658 102.789C73.9398 101.857 74.6064 101.133 75.4658 100.617C76.3252 100.102 77.3408 99.8438 78.5127 99.8438C79.6846 99.8438 80.7002 100.102 81.5596 100.617C82.4189 101.133 83.083 101.857 83.5518 102.789C84.0257 103.721 84.2627 104.807 84.2627 106.047C84.2627 107.286 84.0257 108.37 83.5518 109.297C83.083 110.224 82.4189 110.945 81.5596 111.461C80.7002 111.977 79.6846 112.234 78.5127 112.234ZM78.5283 109.969C79.1637 109.969 79.695 109.794 80.1221 109.445C80.5492 109.091 80.8669 108.617 81.0752 108.023C81.2887 107.43 81.3955 106.768 81.3955 106.039C81.3955 105.305 81.2887 104.641 81.0752 104.047C80.8669 103.448 80.5492 102.971 80.1221 102.617C79.695 102.263 79.1637 102.086 78.5283 102.086C77.8773 102.086 77.3356 102.263 76.9033 102.617C76.4762 102.971 76.1559 103.448 75.9424 104.047C75.734 104.641 75.6299 105.305 75.6299 106.039C75.6299 106.768 75.734 107.43 75.9424 108.023C76.1559 108.617 76.4762 109.091 76.9033 109.445C77.3356 109.794 77.8773 109.969 78.5283 109.969ZM96.1475 103.172L93.5693 103.453C93.4964 103.193 93.3688 102.948 93.1865 102.719C93.0094 102.49 92.7699 102.305 92.4678 102.164C92.1657 102.023 91.7959 101.953 91.3584 101.953C90.7699 101.953 90.2751 102.081 89.874 102.336C89.4782 102.591 89.2829 102.922 89.2881 103.328C89.2829 103.677 89.4105 103.961 89.6709 104.18C89.9365 104.398 90.374 104.578 90.9834 104.719L93.0303 105.156C94.1657 105.401 95.0094 105.789 95.5615 106.32C96.1188 106.852 96.4001 107.547 96.4053 108.406C96.4001 109.161 96.1787 109.828 95.7412 110.406C95.3089 110.979 94.7074 111.427 93.9365 111.75C93.1657 112.073 92.2803 112.234 91.2803 112.234C89.8115 112.234 88.6292 111.927 87.7334 111.312C86.8376 110.693 86.3037 109.831 86.1318 108.727L88.8896 108.461C89.0146 109.003 89.2803 109.411 89.6865 109.687C90.0928 109.964 90.6214 110.102 91.2725 110.102C91.9443 110.102 92.4834 109.964 92.8896 109.687C93.3011 109.411 93.5068 109.07 93.5068 108.664C93.5068 108.32 93.374 108.036 93.1084 107.812C92.848 107.589 92.4417 107.417 91.8896 107.297L89.8428 106.867C88.6917 106.628 87.8402 106.224 87.2881 105.656C86.736 105.083 86.4626 104.359 86.4678 103.484C86.4626 102.745 86.6631 102.104 87.0693 101.562C87.4808 101.016 88.0511 100.594 88.7803 100.297C89.5146 99.9948 90.361 99.8438 91.3193 99.8438C92.7256 99.8438 93.8324 100.143 94.6396 100.742C95.4521 101.341 95.9548 102.151 96.1475 103.172ZM104.05 112.234C102.847 112.234 101.808 111.984 100.933 111.484C100.063 110.979 99.3936 110.266 98.9248 109.344C98.4561 108.417 98.2217 107.326 98.2217 106.07C98.2217 104.836 98.4561 103.753 98.9248 102.82C99.3988 101.883 100.06 101.154 100.909 100.633C101.758 100.107 102.756 99.8438 103.901 99.8438C104.641 99.8438 105.339 99.9635 105.995 100.203C106.657 100.437 107.24 100.802 107.745 101.297C108.256 101.792 108.657 102.422 108.948 103.187C109.24 103.948 109.386 104.854 109.386 105.906V106.773H99.5498V104.867H106.675C106.67 104.326 106.552 103.844 106.323 103.422C106.094 102.995 105.774 102.659 105.362 102.414C104.956 102.169 104.482 102.047 103.94 102.047C103.362 102.047 102.854 102.187 102.417 102.469C101.979 102.745 101.638 103.109 101.394 103.562C101.154 104.01 101.032 104.503 101.026 105.039V106.703C101.026 107.401 101.154 108 101.409 108.5C101.664 108.995 102.021 109.375 102.479 109.641C102.938 109.901 103.474 110.031 104.089 110.031C104.5 110.031 104.873 109.974 105.206 109.859C105.539 109.74 105.828 109.565 106.073 109.336C106.318 109.107 106.503 108.823 106.628 108.484L109.269 108.781C109.102 109.479 108.784 110.089 108.315 110.609C107.852 111.125 107.258 111.526 106.534 111.812C105.81 112.094 104.982 112.234 104.05 112.234ZM123.228 100V102.187H116.329V100H123.228ZM118.032 97.125H120.86V108.391C120.86 108.771 120.918 109.063 121.032 109.266C121.152 109.464 121.308 109.599 121.501 109.672C121.694 109.745 121.907 109.781 122.142 109.781C122.319 109.781 122.48 109.768 122.626 109.742C122.777 109.716 122.892 109.693 122.97 109.672L123.446 111.883C123.295 111.935 123.079 111.992 122.798 112.055C122.522 112.117 122.183 112.154 121.782 112.164C121.074 112.185 120.436 112.078 119.868 111.844C119.3 111.604 118.85 111.234 118.517 110.734C118.188 110.234 118.027 109.609 118.032 108.859V97.125ZM128.679 104.969V112H125.851V96H128.616V102.039H128.757C129.038 101.362 129.473 100.828 130.062 100.437C130.655 100.042 131.41 99.8438 132.327 99.8438C133.16 99.8438 133.887 100.018 134.507 100.367C135.127 100.716 135.606 101.227 135.944 101.898C136.288 102.57 136.46 103.391 136.46 104.359V112H133.632V104.797C133.632 103.99 133.424 103.362 133.007 102.914C132.595 102.461 132.017 102.234 131.272 102.234C130.772 102.234 130.325 102.344 129.929 102.562C129.538 102.776 129.231 103.086 129.007 103.492C128.788 103.898 128.679 104.391 128.679 104.969ZM144.655 112.234C143.452 112.234 142.413 111.984 141.538 111.484C140.668 110.979 139.999 110.266 139.53 109.344C139.062 108.417 138.827 107.326 138.827 106.07C138.827 104.836 139.062 103.753 139.53 102.82C140.004 101.883 140.666 101.154 141.515 100.633C142.364 100.107 143.361 99.8438 144.507 99.8438C145.246 99.8438 145.944 99.9635 146.601 100.203C147.262 100.437 147.845 100.802 148.351 101.297C148.861 101.792 149.262 102.422 149.554 103.187C149.845 103.948 149.991 104.854 149.991 105.906V106.773H140.155V104.867H147.28C147.275 104.326 147.158 103.844 146.929 103.422C146.7 102.995 146.379 102.659 145.968 102.414C145.562 102.169 145.088 102.047 144.546 102.047C143.968 102.047 143.46 102.187 143.022 102.469C142.585 102.745 142.244 103.109 141.999 103.562C141.759 104.01 141.637 104.503 141.632 105.039V106.703C141.632 107.401 141.759 108 142.015 108.5C142.27 108.995 142.627 109.375 143.085 109.641C143.543 109.901 144.08 110.031 144.694 110.031C145.106 110.031 145.478 109.974 145.812 109.859C146.145 109.74 146.434 109.565 146.679 109.336C146.924 109.107 147.108 108.823 147.233 108.484L149.874 108.781C149.707 109.479 149.39 110.089 148.921 110.609C148.457 111.125 147.864 111.526 147.14 111.812C146.416 112.094 145.588 112.234 144.655 112.234ZM163.833 100V102.187H156.935V100H163.833ZM158.638 97.125H161.466V108.391C161.466 108.771 161.523 109.063 161.638 109.266C161.757 109.464 161.914 109.599 162.106 109.672C162.299 109.745 162.513 109.781 162.747 109.781C162.924 109.781 163.086 109.768 163.231 109.742C163.382 109.716 163.497 109.693 163.575 109.672L164.052 111.883C163.901 111.935 163.685 111.992 163.403 112.055C163.127 112.117 162.789 112.154 162.388 112.164C161.679 112.185 161.041 112.078 160.474 111.844C159.906 111.604 159.455 111.234 159.122 110.734C158.794 110.234 158.632 109.609 158.638 108.859V97.125ZM166.198 112V100H169.026V112H166.198ZM167.62 98.2969C167.172 98.2969 166.787 98.1484 166.464 97.8516C166.141 97.5495 165.979 97.1875 165.979 96.7656C165.979 96.3385 166.141 95.9766 166.464 95.6797C166.787 95.3776 167.172 95.2266 167.62 95.2266C168.073 95.2266 168.459 95.3776 168.776 95.6797C169.099 95.9766 169.261 96.3385 169.261 96.7656C169.261 97.1875 169.099 97.5495 168.776 97.8516C168.459 98.1484 168.073 98.2969 167.62 98.2969ZM171.935 112V100H174.638V102.039H174.778C175.028 101.352 175.442 100.815 176.021 100.43C176.599 100.039 177.289 99.8438 178.091 99.8438C178.903 99.8438 179.588 100.042 180.146 100.437C180.708 100.828 181.104 101.362 181.333 102.039H181.458C181.724 101.372 182.172 100.841 182.802 100.445C183.437 100.044 184.19 99.8438 185.06 99.8438C186.164 99.8438 187.065 100.193 187.763 100.891C188.461 101.589 188.81 102.607 188.81 103.945V112H185.974V104.383C185.974 103.638 185.776 103.094 185.38 102.75C184.984 102.401 184.5 102.227 183.927 102.227C183.244 102.227 182.711 102.44 182.325 102.867C181.945 103.289 181.755 103.839 181.755 104.516V112H178.981V104.266C178.981 103.646 178.794 103.151 178.419 102.781C178.049 102.411 177.565 102.227 176.966 102.227C176.56 102.227 176.19 102.331 175.856 102.539C175.523 102.742 175.257 103.031 175.06 103.406C174.862 103.776 174.763 104.208 174.763 104.703V112H171.935ZM196.991 112.234C195.788 112.234 194.749 111.984 193.874 111.484C193.004 110.979 192.335 110.266 191.866 109.344C191.397 108.417 191.163 107.326 191.163 106.07C191.163 104.836 191.397 103.753 191.866 102.82C192.34 101.883 193.002 101.154 193.851 100.633C194.7 100.107 195.697 99.8438 196.843 99.8438C197.582 99.8438 198.28 99.9635 198.937 100.203C199.598 100.437 200.181 100.802 200.687 101.297C201.197 101.792 201.598 102.422 201.89 103.187C202.181 103.948 202.327 104.854 202.327 105.906V106.773H192.491V104.867H199.616C199.611 104.326 199.494 103.844 199.265 103.422C199.035 102.995 198.715 102.659 198.304 102.414C197.897 102.169 197.424 102.047 196.882 102.047C196.304 102.047 195.796 102.187 195.358 102.469C194.921 102.745 194.58 103.109 194.335 103.562C194.095 104.01 193.973 104.503 193.968 105.039V106.703C193.968 107.401 194.095 108 194.351 108.5C194.606 108.995 194.963 109.375 195.421 109.641C195.879 109.901 196.416 110.031 197.03 110.031C197.442 110.031 197.814 109.974 198.147 109.859C198.481 109.74 198.77 109.565 199.015 109.336C199.259 109.107 199.444 108.823 199.569 108.484L202.21 108.781C202.043 109.479 201.726 110.089 201.257 110.609C200.793 111.125 200.2 111.526 199.476 111.812C198.752 112.094 197.924 112.234 196.991 112.234ZM215.411 112.234C214.239 112.234 213.224 111.977 212.364 111.461C211.505 110.945 210.838 110.224 210.364 109.297C209.896 108.37 209.661 107.286 209.661 106.047C209.661 104.807 209.896 103.721 210.364 102.789C210.838 101.857 211.505 101.133 212.364 100.617C213.224 100.102 214.239 99.8438 215.411 99.8438C216.583 99.8438 217.599 100.102 218.458 100.617C219.317 101.133 219.981 101.857 220.45 102.789C220.924 103.721 221.161 104.807 221.161 106.047C221.161 107.286 220.924 108.37 220.45 109.297C219.981 110.224 219.317 110.945 218.458 111.461C217.599 111.977 216.583 112.234 215.411 112.234ZM215.427 109.969C216.062 109.969 216.593 109.794 217.021 109.445C217.448 109.091 217.765 108.617 217.974 108.023C218.187 107.43 218.294 106.768 218.294 106.039C218.294 105.305 218.187 104.641 217.974 104.047C217.765 103.448 217.448 102.971 217.021 102.617C216.593 102.263 216.062 102.086 215.427 102.086C214.776 102.086 214.234 102.263 213.802 102.617C213.375 102.971 213.054 103.448 212.841 104.047C212.632 104.641 212.528 105.305 212.528 106.039C212.528 106.768 212.632 107.43 212.841 108.023C213.054 108.617 213.375 109.091 213.802 109.445C214.234 109.794 214.776 109.969 215.427 109.969ZM229.64 100V102.187H222.546V100H229.64ZM224.319 112V98.8672C224.319 98.0599 224.486 97.388 224.819 96.8516C225.158 96.3151 225.611 95.9141 226.179 95.6484C226.746 95.3828 227.377 95.25 228.069 95.25C228.559 95.25 228.994 95.2891 229.374 95.3672C229.754 95.4453 230.035 95.5156 230.218 95.5781L229.655 97.7656C229.535 97.7292 229.384 97.6927 229.202 97.6562C229.02 97.6146 228.817 97.5937 228.593 97.5937C228.067 97.5937 227.694 97.7214 227.476 97.9766C227.262 98.2266 227.155 98.5859 227.155 99.0547V112H224.319ZM98.3594 119V121.187H91.4609V119H98.3594ZM93.1641 116.125H95.9922V127.391C95.9922 127.771 96.0495 128.063 96.1641 128.266C96.2839 128.464 96.4401 128.599 96.6328 128.672C96.8255 128.745 97.0391 128.781 97.2734 128.781C97.4505 128.781 97.612 128.768 97.7578 128.742C97.9089 128.716 98.0234 128.693 98.1016 128.672L98.5781 130.883C98.4271 130.935 98.2109 130.992 97.9297 131.055C97.6536 131.117 97.3151 131.154 96.9141 131.164C96.2057 131.185 95.5677 131.078 95 130.844C94.4323 130.604 93.9818 130.234 93.6484 129.734C93.3203 129.234 93.1589 128.609 93.1641 127.859V116.125ZM103.811 123.969V131H100.982V115H103.748V121.039H103.889C104.17 120.362 104.605 119.828 105.193 119.437C105.787 119.042 106.542 118.844 107.459 118.844C108.292 118.844 109.019 119.018 109.639 119.367C110.258 119.716 110.738 120.227 111.076 120.898C111.42 121.57 111.592 122.391 111.592 123.359V131H108.764V123.797C108.764 122.99 108.555 122.362 108.139 121.914C107.727 121.461 107.149 121.234 106.404 121.234C105.904 121.234 105.456 121.344 105.061 121.562C104.67 121.776 104.363 122.086 104.139 122.492C103.92 122.898 103.811 123.391 103.811 123.969ZM119.787 131.234C118.584 131.234 117.545 130.984 116.67 130.484C115.8 129.979 115.131 129.266 114.662 128.344C114.193 127.417 113.959 126.326 113.959 125.07C113.959 123.836 114.193 122.753 114.662 121.82C115.136 120.883 115.798 120.154 116.646 119.633C117.495 119.107 118.493 118.844 119.639 118.844C120.378 118.844 121.076 118.964 121.732 119.203C122.394 119.437 122.977 119.802 123.482 120.297C123.993 120.792 124.394 121.422 124.686 122.187C124.977 122.948 125.123 123.854 125.123 124.906V125.773H115.287V123.867H122.412C122.407 123.326 122.29 122.844 122.061 122.422C121.831 121.995 121.511 121.659 121.1 121.414C120.693 121.169 120.219 121.047 119.678 121.047C119.1 121.047 118.592 121.187 118.154 121.469C117.717 121.745 117.376 122.109 117.131 122.562C116.891 123.01 116.769 123.503 116.764 124.039V125.703C116.764 126.401 116.891 127 117.146 127.5C117.402 127.995 117.758 128.375 118.217 128.641C118.675 128.901 119.212 129.031 119.826 129.031C120.238 129.031 120.61 128.974 120.943 128.859C121.277 128.74 121.566 128.565 121.811 128.336C122.055 128.107 122.24 127.823 122.365 127.484L125.006 127.781C124.839 128.479 124.521 129.089 124.053 129.609C123.589 130.125 122.995 130.526 122.271 130.812C121.548 131.094 120.719 131.234 119.787 131.234ZM138.965 119V121.187H132.066V119H138.965ZM133.77 116.125H136.598V127.391C136.598 127.771 136.655 128.063 136.77 128.266C136.889 128.464 137.046 128.599 137.238 128.672C137.431 128.745 137.645 128.781 137.879 128.781C138.056 128.781 138.217 128.768 138.363 128.742C138.514 128.716 138.629 128.693 138.707 128.672L139.184 130.883C139.033 130.935 138.816 130.992 138.535 131.055C138.259 131.117 137.921 131.154 137.52 131.164C136.811 131.185 136.173 131.078 135.605 130.844C135.038 130.604 134.587 130.234 134.254 129.734C133.926 129.234 133.764 128.609 133.77 127.859V116.125ZM141.33 131V119H144.072V121H144.197C144.416 120.307 144.791 119.773 145.322 119.398C145.859 119.018 146.471 118.828 147.158 118.828C147.314 118.828 147.489 118.836 147.682 118.852C147.88 118.862 148.044 118.88 148.174 118.906V121.508C148.054 121.466 147.864 121.43 147.604 121.398C147.348 121.362 147.101 121.344 146.861 121.344C146.346 121.344 145.882 121.456 145.471 121.68C145.064 121.898 144.744 122.203 144.51 122.594C144.275 122.984 144.158 123.435 144.158 123.945V131H141.33ZM150.053 131V119H152.881V131H150.053ZM151.475 117.297C151.027 117.297 150.641 117.148 150.318 116.852C149.995 116.549 149.834 116.187 149.834 115.766C149.834 115.339 149.995 114.977 150.318 114.68C150.641 114.378 151.027 114.227 151.475 114.227C151.928 114.227 152.313 114.378 152.631 114.68C152.954 114.977 153.115 115.339 153.115 115.766C153.115 116.187 152.954 116.549 152.631 116.852C152.313 117.148 151.928 117.297 151.475 117.297ZM155.789 135.5V119H158.57V120.984H158.734C158.88 120.693 159.086 120.383 159.352 120.055C159.617 119.721 159.977 119.437 160.43 119.203C160.883 118.964 161.461 118.844 162.164 118.844C163.091 118.844 163.927 119.081 164.672 119.555C165.422 120.023 166.016 120.719 166.453 121.641C166.896 122.557 167.117 123.682 167.117 125.016C167.117 126.333 166.901 127.453 166.469 128.375C166.036 129.297 165.448 130 164.703 130.484C163.958 130.969 163.115 131.211 162.172 131.211C161.484 131.211 160.914 131.096 160.461 130.867C160.008 130.638 159.643 130.362 159.367 130.039C159.096 129.711 158.885 129.401 158.734 129.109H158.617V135.5H155.789ZM158.563 125C158.563 125.776 158.672 126.456 158.891 127.039C159.115 127.622 159.435 128.078 159.852 128.406C160.273 128.729 160.784 128.891 161.383 128.891C162.008 128.891 162.531 128.724 162.953 128.391C163.375 128.052 163.693 127.591 163.906 127.008C164.125 126.419 164.234 125.75 164.234 125C164.234 124.255 164.128 123.594 163.914 123.016C163.701 122.437 163.383 121.984 162.961 121.656C162.539 121.328 162.013 121.164 161.383 121.164C160.779 121.164 160.266 121.323 159.844 121.641C159.422 121.958 159.102 122.404 158.883 122.977C158.669 123.549 158.563 124.224 158.563 125Z" fill="#2A3034"/>
<path d="M118.153 322.181H116.825C116.787 321.963 116.718 321.77 116.616 321.602C116.514 321.432 116.387 321.287 116.236 321.169C116.084 321.051 115.911 320.962 115.717 320.903C115.526 320.841 115.318 320.81 115.096 320.81C114.701 320.81 114.35 320.91 114.045 321.109C113.739 321.305 113.5 321.594 113.327 321.975C113.155 322.354 113.068 322.817 113.068 323.364C113.068 323.92 113.155 324.389 113.327 324.77C113.503 325.149 113.742 325.435 114.045 325.629C114.35 325.821 114.699 325.917 115.092 325.917C115.31 325.917 115.514 325.888 115.703 325.832C115.895 325.772 116.067 325.686 116.218 325.572C116.372 325.459 116.501 325.319 116.605 325.153C116.712 324.988 116.785 324.798 116.825 324.585L118.153 324.592C118.104 324.938 117.996 325.262 117.83 325.565C117.667 325.868 117.453 326.136 117.188 326.368C116.922 326.598 116.612 326.777 116.257 326.908C115.902 327.036 115.508 327.099 115.075 327.099C114.435 327.099 113.865 326.951 113.363 326.656C112.861 326.36 112.466 325.932 112.177 325.374C111.888 324.815 111.744 324.145 111.744 323.364C111.744 322.58 111.889 321.91 112.18 321.354C112.472 320.795 112.868 320.368 113.37 320.072C113.872 319.776 114.44 319.628 115.075 319.628C115.479 319.628 115.856 319.685 116.204 319.798C116.552 319.912 116.862 320.079 117.134 320.299C117.406 320.517 117.63 320.784 117.805 321.102C117.983 321.416 118.099 321.776 118.153 322.181ZM120.589 323.804V327H119.303V319.727H120.56V322.472H120.624C120.752 322.165 120.95 321.922 121.217 321.744C121.487 321.564 121.83 321.474 122.247 321.474C122.626 321.474 122.956 321.554 123.238 321.712C123.519 321.871 123.737 322.103 123.891 322.408C124.047 322.714 124.126 323.087 124.126 323.527V327H122.84V323.726C122.84 323.359 122.745 323.074 122.556 322.87C122.369 322.664 122.106 322.561 121.768 322.561C121.54 322.561 121.337 322.611 121.157 322.71C120.979 322.807 120.84 322.948 120.738 323.133C120.638 323.317 120.589 323.541 120.589 323.804ZM127.006 327.11C126.66 327.11 126.349 327.049 126.072 326.925C125.797 326.8 125.579 326.615 125.418 326.371C125.26 326.128 125.18 325.827 125.18 325.469C125.18 325.162 125.237 324.907 125.351 324.706C125.464 324.505 125.619 324.344 125.816 324.223C126.012 324.102 126.234 324.011 126.48 323.95C126.729 323.886 126.985 323.839 127.251 323.811C127.57 323.778 127.829 323.748 128.028 323.722C128.227 323.694 128.372 323.651 128.461 323.594C128.554 323.535 128.6 323.444 128.6 323.321V323.3C128.6 323.032 128.521 322.825 128.362 322.678C128.203 322.531 127.975 322.458 127.677 322.458C127.362 322.458 127.112 322.527 126.927 322.664C126.745 322.801 126.622 322.964 126.558 323.151L125.358 322.98C125.452 322.649 125.609 322.372 125.827 322.149C126.044 321.924 126.311 321.756 126.626 321.645C126.94 321.531 127.288 321.474 127.67 321.474C127.932 321.474 128.194 321.505 128.454 321.567C128.715 321.628 128.953 321.73 129.168 321.872C129.384 322.012 129.556 322.202 129.687 322.444C129.819 322.685 129.885 322.987 129.885 323.349V327H128.65V326.251H128.607C128.529 326.402 128.419 326.544 128.277 326.677C128.137 326.807 127.961 326.912 127.748 326.993C127.537 327.071 127.29 327.11 127.006 327.11ZM127.339 326.165C127.597 326.165 127.821 326.115 128.01 326.013C128.2 325.909 128.345 325.771 128.447 325.601C128.551 325.43 128.604 325.245 128.604 325.043V324.401C128.563 324.434 128.495 324.464 128.398 324.493C128.303 324.521 128.196 324.546 128.078 324.567C127.96 324.589 127.842 324.608 127.726 324.624C127.61 324.641 127.51 324.655 127.425 324.667C127.233 324.693 127.061 324.736 126.91 324.795C126.758 324.854 126.639 324.937 126.551 325.043C126.463 325.147 126.42 325.282 126.42 325.448C126.42 325.685 126.506 325.864 126.679 325.984C126.852 326.105 127.072 326.165 127.339 326.165ZM132.464 323.804V327H131.178V321.545H132.407V322.472H132.471C132.596 322.167 132.796 321.924 133.071 321.744C133.348 321.564 133.69 321.474 134.097 321.474C134.474 321.474 134.801 321.555 135.081 321.716C135.363 321.877 135.58 322.11 135.734 322.415C135.89 322.721 135.967 323.091 135.965 323.527V327H134.68V323.726C134.68 323.361 134.585 323.076 134.395 322.87C134.208 322.664 133.949 322.561 133.618 322.561C133.393 322.561 133.193 322.611 133.018 322.71C132.845 322.807 132.709 322.948 132.609 323.133C132.512 323.317 132.464 323.541 132.464 323.804ZM139.644 329.159C139.182 329.159 138.786 329.096 138.454 328.971C138.123 328.848 137.857 328.682 137.655 328.474C137.454 328.265 137.314 328.035 137.236 327.781L138.394 327.501C138.446 327.607 138.522 327.713 138.621 327.817C138.721 327.923 138.854 328.011 139.023 328.08C139.193 328.151 139.407 328.186 139.665 328.186C140.03 328.186 140.332 328.097 140.571 327.92C140.81 327.745 140.93 327.456 140.93 327.053V326.02H140.866C140.799 326.152 140.702 326.289 140.574 326.428C140.449 326.568 140.282 326.685 140.074 326.78C139.868 326.875 139.608 326.922 139.296 326.922C138.877 326.922 138.497 326.824 138.156 326.627C137.818 326.428 137.548 326.132 137.346 325.739C137.148 325.344 137.048 324.849 137.048 324.255C137.048 323.656 137.148 323.151 137.346 322.739C137.548 322.324 137.819 322.011 138.16 321.798C138.501 321.582 138.881 321.474 139.3 321.474C139.619 321.474 139.882 321.529 140.088 321.638C140.296 321.744 140.462 321.873 140.585 322.025C140.708 322.174 140.802 322.315 140.866 322.447H140.937V321.545H142.204V327.089C142.204 327.555 142.093 327.941 141.871 328.246C141.648 328.552 141.344 328.78 140.958 328.932C140.572 329.083 140.134 329.159 139.644 329.159ZM139.655 325.913C139.927 325.913 140.159 325.847 140.351 325.714C140.542 325.582 140.688 325.391 140.787 325.143C140.887 324.894 140.937 324.596 140.937 324.248C140.937 323.905 140.887 323.604 140.787 323.346C140.69 323.088 140.546 322.888 140.354 322.746C140.165 322.601 139.932 322.529 139.655 322.529C139.368 322.529 139.129 322.604 138.937 322.753C138.746 322.902 138.601 323.107 138.504 323.367C138.407 323.625 138.358 323.919 138.358 324.248C138.358 324.582 138.407 324.874 138.504 325.125C138.604 325.374 138.749 325.568 138.941 325.707C139.135 325.845 139.373 325.913 139.655 325.913ZM145.937 327.107C145.39 327.107 144.917 326.993 144.52 326.766C144.124 326.536 143.82 326.212 143.607 325.793C143.394 325.371 143.287 324.875 143.287 324.305C143.287 323.744 143.394 323.251 143.607 322.827C143.823 322.401 144.123 322.07 144.509 321.833C144.895 321.594 145.348 321.474 145.869 321.474C146.205 321.474 146.523 321.529 146.821 321.638C147.122 321.744 147.387 321.91 147.616 322.135C147.848 322.36 148.031 322.646 148.163 322.994C148.296 323.34 148.362 323.752 148.362 324.23V324.624H143.891V323.758H147.13C147.127 323.512 147.074 323.293 146.97 323.101C146.866 322.907 146.72 322.754 146.533 322.643C146.349 322.531 146.133 322.476 145.887 322.476C145.624 322.476 145.393 322.54 145.194 322.668C144.996 322.793 144.84 322.959 144.729 323.165C144.62 323.368 144.565 323.592 144.562 323.836V324.592C144.562 324.91 144.62 325.182 144.736 325.409C144.852 325.634 145.015 325.807 145.223 325.928C145.431 326.046 145.675 326.105 145.954 326.105C146.141 326.105 146.311 326.079 146.462 326.027C146.614 325.973 146.745 325.893 146.856 325.789C146.968 325.685 147.052 325.556 147.108 325.402L148.309 325.537C148.233 325.854 148.089 326.131 147.876 326.368C147.665 326.602 147.395 326.785 147.066 326.915C146.737 327.043 146.36 327.107 145.937 327.107Z" fill="#69BDFF"/>
<path d="M260 25H0V65H260V25Z" fill="white"/>
<path d="M25.4379 50.4839L21.1953 46.2162C20.9349 45.9543 20.9349 45.5297 21.1953 45.2678L25.4379 41" stroke="#2E2638" stroke-width="3.5" stroke-linecap="round"/>
<path d="M103.592 526.254H101.732C101.679 525.949 101.581 525.679 101.439 525.443C101.296 525.205 101.119 525.002 100.907 524.837C100.695 524.671 100.453 524.547 100.181 524.464C99.9126 524.378 99.6225 524.335 99.311 524.335C98.7575 524.335 98.267 524.474 97.8394 524.752C97.4118 525.027 97.0771 525.432 96.8351 525.965C96.5932 526.496 96.4722 527.143 96.4722 527.909C96.4722 528.688 96.5932 529.344 96.8351 529.878C97.0804 530.408 97.4152 530.809 97.8394 531.081C98.267 531.349 98.7558 531.484 99.306 531.484C99.6109 531.484 99.896 531.444 100.161 531.364C100.43 531.281 100.67 531.161 100.882 531.001C101.097 530.842 101.278 530.647 101.424 530.415C101.573 530.183 101.676 529.918 101.732 529.619L103.592 529.629C103.522 530.113 103.371 530.567 103.139 530.991C102.91 531.416 102.61 531.79 102.239 532.115C101.868 532.437 101.434 532.688 100.937 532.871C100.44 533.05 99.8877 533.139 99.2812 533.139C98.3863 533.139 97.5875 532.932 96.8849 532.518C96.1822 532.103 95.6287 531.505 95.2243 530.723C94.82 529.941 94.6178 529.003 94.6178 527.909C94.6178 526.812 94.8216 525.874 95.2293 525.095C95.637 524.313 96.1921 523.715 96.8948 523.3C97.5974 522.886 98.3929 522.679 99.2812 522.679C99.8479 522.679 100.375 522.759 100.862 522.918C101.349 523.077 101.784 523.31 102.165 523.619C102.546 523.924 102.859 524.298 103.104 524.742C103.353 525.183 103.515 525.687 103.592 526.254ZM105.201 533V525.364H106.946V526.636H107.026C107.165 526.196 107.403 525.856 107.742 525.617C108.083 525.375 108.472 525.254 108.91 525.254C109.009 525.254 109.12 525.259 109.243 525.269C109.369 525.276 109.473 525.287 109.556 525.304V526.96C109.48 526.933 109.359 526.91 109.193 526.89C109.031 526.867 108.873 526.855 108.721 526.855C108.393 526.855 108.098 526.926 107.836 527.069C107.578 527.208 107.374 527.402 107.225 527.651C107.075 527.899 107.001 528.186 107.001 528.511V533H105.201ZM113.818 533.149C113.052 533.149 112.391 532.99 111.834 532.672C111.281 532.35 110.855 531.896 110.557 531.31C110.258 530.72 110.109 530.025 110.109 529.227C110.109 528.441 110.258 527.752 110.557 527.158C110.858 526.562 111.279 526.098 111.82 525.766C112.36 525.432 112.994 525.264 113.724 525.264C114.194 525.264 114.638 525.34 115.056 525.493C115.477 525.642 115.848 525.874 116.17 526.189C116.494 526.504 116.75 526.905 116.935 527.392C117.121 527.876 117.214 528.453 117.214 529.122V529.674H110.954V528.461H115.489C115.485 528.116 115.411 527.81 115.265 527.541C115.119 527.269 114.915 527.056 114.653 526.9C114.395 526.744 114.093 526.666 113.748 526.666C113.381 526.666 113.057 526.756 112.779 526.935C112.501 527.11 112.284 527.342 112.128 527.631C111.975 527.916 111.897 528.229 111.894 528.57V529.629C111.894 530.073 111.975 530.455 112.138 530.773C112.3 531.088 112.527 531.33 112.819 531.499C113.11 531.664 113.452 531.747 113.843 531.747C114.105 531.747 114.342 531.711 114.554 531.638C114.766 531.562 114.95 531.451 115.106 531.305C115.262 531.159 115.379 530.978 115.459 530.763L117.139 530.952C117.033 531.396 116.831 531.784 116.533 532.115C116.238 532.443 115.86 532.698 115.399 532.881C114.938 533.06 114.411 533.149 113.818 533.149ZM120.934 533.154C120.45 533.154 120.014 533.068 119.626 532.896C119.242 532.72 118.937 532.461 118.711 532.12C118.489 531.779 118.378 531.358 118.378 530.857C118.378 530.426 118.458 530.07 118.617 529.788C118.776 529.507 118.993 529.281 119.268 529.112C119.543 528.943 119.853 528.816 120.198 528.729C120.546 528.64 120.906 528.575 121.277 528.536C121.724 528.489 122.087 528.448 122.366 528.411C122.644 528.371 122.846 528.312 122.972 528.232C123.101 528.149 123.166 528.022 123.166 527.849V527.82C123.166 527.445 123.055 527.155 122.833 526.95C122.611 526.744 122.291 526.641 121.873 526.641C121.432 526.641 121.083 526.737 120.824 526.93C120.569 527.122 120.397 527.349 120.307 527.611L118.627 527.372C118.759 526.908 118.978 526.52 119.283 526.209C119.588 525.894 119.961 525.659 120.402 525.503C120.843 525.344 121.33 525.264 121.863 525.264C122.231 525.264 122.598 525.307 122.962 525.393C123.327 525.48 123.66 525.622 123.961 525.821C124.263 526.017 124.505 526.283 124.687 526.621C124.873 526.96 124.966 527.382 124.966 527.889V533H123.236V531.951H123.176C123.066 532.163 122.912 532.362 122.714 532.548C122.518 532.73 122.271 532.877 121.973 532.99C121.678 533.099 121.331 533.154 120.934 533.154ZM121.401 531.832C121.762 531.832 122.075 531.76 122.341 531.618C122.606 531.472 122.81 531.28 122.952 531.041C123.098 530.803 123.171 530.542 123.171 530.261V529.361C123.115 529.407 123.018 529.45 122.883 529.49C122.75 529.53 122.601 529.565 122.435 529.594C122.269 529.624 122.105 529.651 121.943 529.674C121.781 529.697 121.64 529.717 121.52 529.734C121.252 529.77 121.012 529.83 120.799 529.913C120.587 529.996 120.42 530.112 120.297 530.261C120.175 530.406 120.113 530.595 120.113 530.827C120.113 531.159 120.234 531.409 120.476 531.578C120.718 531.747 121.026 531.832 121.401 531.832ZM130.589 525.364V526.756H126.199V525.364H130.589ZM127.282 523.534H129.082V530.703C129.082 530.945 129.119 531.131 129.191 531.26C129.268 531.386 129.367 531.472 129.49 531.518C129.612 531.565 129.748 531.588 129.897 531.588C130.01 531.588 130.113 531.58 130.206 531.563C130.302 531.547 130.375 531.532 130.424 531.518L130.728 532.925C130.632 532.959 130.494 532.995 130.315 533.035C130.139 533.075 129.924 533.098 129.669 533.104C129.218 533.118 128.812 533.05 128.451 532.901C128.089 532.748 127.803 532.513 127.591 532.195C127.382 531.876 127.279 531.479 127.282 531.001V523.534ZM135.392 533.149C134.627 533.149 133.965 532.99 133.409 532.672C132.855 532.35 132.429 531.896 132.131 531.31C131.833 530.72 131.684 530.025 131.684 529.227C131.684 528.441 131.833 527.752 132.131 527.158C132.433 526.562 132.853 526.098 133.394 525.766C133.934 525.432 134.569 525.264 135.298 525.264C135.768 525.264 136.213 525.34 136.63 525.493C137.051 525.642 137.422 525.874 137.744 526.189C138.069 526.504 138.324 526.905 138.509 527.392C138.695 527.876 138.788 528.453 138.788 529.122V529.674H132.529V528.461H137.063C137.059 528.116 136.985 527.81 136.839 527.541C136.693 527.269 136.489 527.056 136.228 526.9C135.969 526.744 135.667 526.666 135.323 526.666C134.955 526.666 134.632 526.756 134.353 526.935C134.075 527.11 133.858 527.342 133.702 527.631C133.55 527.916 133.472 528.229 133.468 528.57V529.629C133.468 530.073 133.55 530.455 133.712 530.773C133.874 531.088 134.101 531.33 134.393 531.499C134.685 531.664 135.026 531.747 135.417 531.747C135.679 531.747 135.916 531.711 136.128 531.638C136.34 531.562 136.524 531.451 136.68 531.305C136.836 531.159 136.953 530.978 137.033 530.763L138.713 530.952C138.607 531.396 138.405 531.784 138.107 532.115C137.812 532.443 137.434 532.698 136.973 532.881C136.513 533.06 135.986 533.149 135.392 533.149ZM147.596 525.364V526.756H143.206V525.364H147.596ZM144.29 523.534H146.09V530.703C146.09 530.945 146.126 531.131 146.199 531.26C146.276 531.386 146.375 531.472 146.498 531.518C146.62 531.565 146.756 531.588 146.905 531.588C147.018 531.588 147.121 531.58 147.214 531.563C147.31 531.547 147.383 531.532 147.432 531.518L147.736 532.925C147.639 532.959 147.502 532.995 147.323 533.035C147.147 533.075 146.932 533.098 146.677 533.104C146.226 533.118 145.82 533.05 145.459 532.901C145.097 532.748 144.811 532.513 144.598 532.195C144.39 531.876 144.287 531.479 144.29 531.001V523.534ZM149.101 533V525.364H150.847V526.636H150.926C151.065 526.196 151.304 525.856 151.642 525.617C151.983 525.375 152.373 525.254 152.81 525.254C152.91 525.254 153.021 525.259 153.143 525.269C153.269 525.276 153.374 525.287 153.457 525.304V526.96C153.38 526.933 153.259 526.91 153.094 526.89C152.931 526.867 152.774 526.855 152.621 526.855C152.293 526.855 151.998 526.926 151.736 527.069C151.478 527.208 151.274 527.402 151.125 527.651C150.976 527.899 150.901 528.186 150.901 528.511V533H149.101ZM154.652 533V525.364H156.452V533H154.652ZM155.557 524.28C155.272 524.28 155.027 524.185 154.821 523.996C154.616 523.804 154.513 523.574 154.513 523.305C154.513 523.034 154.616 522.803 154.821 522.614C155.027 522.422 155.272 522.326 155.557 522.326C155.845 522.326 156.091 522.422 156.293 522.614C156.498 522.803 156.601 523.034 156.601 523.305C156.601 523.574 156.498 523.804 156.293 523.996C156.091 524.185 155.845 524.28 155.557 524.28ZM158.303 535.864V525.364H160.073V526.626H160.177C160.27 526.441 160.401 526.244 160.57 526.035C160.739 525.823 160.967 525.642 161.256 525.493C161.544 525.34 161.912 525.264 162.359 525.264C162.949 525.264 163.481 525.415 163.955 525.717C164.433 526.015 164.81 526.457 165.089 527.044C165.371 527.627 165.511 528.343 165.511 529.192C165.511 530.03 165.374 530.743 165.099 531.33C164.824 531.916 164.449 532.364 163.975 532.672C163.501 532.98 162.964 533.134 162.364 533.134C161.927 533.134 161.564 533.061 161.276 532.915C160.987 532.77 160.755 532.594 160.58 532.388C160.407 532.18 160.273 531.982 160.177 531.797H160.102V535.864H158.303ZM160.068 529.182C160.068 529.676 160.137 530.108 160.276 530.479C160.419 530.851 160.623 531.141 160.888 531.349C161.156 531.555 161.481 531.658 161.862 531.658C162.26 531.658 162.593 531.552 162.862 531.339C163.13 531.124 163.332 530.831 163.468 530.46C163.607 530.085 163.677 529.659 163.677 529.182C163.677 528.708 163.609 528.287 163.473 527.919C163.337 527.551 163.135 527.263 162.867 527.054C162.598 526.845 162.263 526.741 161.862 526.741C161.478 526.741 161.151 526.842 160.883 527.044C160.614 527.246 160.411 527.53 160.271 527.894C160.136 528.259 160.068 528.688 160.068 529.182Z" fill="white"/>
</g>
<defs>
<clipPath id="clip0_104_234">
<rect width="260" height="566" fill="white"/>
</clipPath>
</defs>
</svg>
