<svg width="24" height="24" viewBox="0 0 24 24" fill="none" xmlns="http://www.w3.org/2000/svg">
<g clip-path="url(#clip0_7_46)">
<g clip-path="url(#clip1_7_46)">
<path fill-rule="evenodd" clip-rule="evenodd" d="M12 3.5625C7 3.5625 2.73 7.06125 1 12C2.73 16.9388 7 20.4375 12 20.4375C17 20.4375 21.27 16.9388 23 12C21.27 7.06125 17 3.5625 12 3.5625ZM12 16.7368C9.24 16.7368 7 15.105 7 12C7 8.895 9.24 7.26316 12 7.26316C14.76 7.26316 17 8.895 17 12C17 15.105 14.76 16.7368 12 16.7368ZM12 9.15789C10.34 9.15789 9 10.1325 9 12C9 13.8675 10.34 14.8421 12 14.8421C13.66 14.8421 15 13.8675 15 12C15 10.1325 13.66 9.15789 12 9.15789Z" fill="#69BDFF"/>
</g>
</g>
<defs>
<clipPath id="clip0_7_46">
<rect width="24" height="24" fill="white"/>
</clipPath>
<clipPath id="clip1_7_46">
<rect width="22" height="18" fill="white" transform="translate(1 3)"/>
</clipPath>
</defs>
</svg>
