<svg width="236" height="64" viewBox="0 0 236 64" fill="none" xmlns="http://www.w3.org/2000/svg">
<path d="M38.4418 30.1777C38.3798 23.2654 44.0892 19.9025 44.3503 19.7459C41.1167 15.0212 36.105 14.3757 34.3438 14.3242C30.1345 13.8803 26.0514 16.8485 23.9072 16.8485C21.7201 16.8485 18.4181 14.3671 14.8593 14.4401C10.2798 14.5107 5.99552 17.1681 3.64583 21.2945C-1.20335 29.708 2.41321 42.0721 7.0591 48.8729C9.3831 52.2036 12.0987 55.9224 15.6533 55.7916C19.1308 55.6479 20.4297 53.5697 24.6262 53.5697C28.7841 53.5697 30.0038 55.7916 33.629 55.7079C37.3611 55.6479 39.7108 52.3622 41.9534 49.0016C44.6392 45.184 45.7178 41.4244 45.7605 41.2314C45.6728 41.2013 38.5125 38.4625 38.4418 30.1777Z" fill="black"/>
<path d="M31.6001 9.84998C33.4703 7.50584 34.7501 4.31671 34.3948 1.08038C31.6878 1.20049 28.3023 2.95698 26.3529 5.24965C24.628 7.26994 23.0872 10.5813 23.4852 13.6953C26.5262 13.9227 29.6483 12.1577 31.6001 9.84998Z" fill="black"/>
<path d="M89.0103 55.3136H84.1505L81.4883 46.93H72.2351L69.6992 55.3136H64.9678L74.1354 26.7722H79.7978L89.0103 55.3136ZM80.6858 43.4127L78.2783 35.96C78.0237 35.1985 77.5464 33.4055 76.8425 30.5831H76.7568C76.4766 31.7971 76.0249 33.5901 75.4044 35.96L73.0396 43.4127H80.6858Z" fill="black"/>
<path d="M112.589 44.7696C112.589 48.2697 111.645 51.0365 109.758 53.0674C108.067 54.8754 105.968 55.7783 103.462 55.7783C100.757 55.7783 98.8141 54.8047 97.6307 52.8573H97.5451V63.6987H92.9827V41.5077C92.9827 39.3072 92.9249 37.0488 92.8137 34.7325H96.8261L97.0807 37.9946H97.1664C98.688 35.5369 100.997 34.3101 104.096 34.3101C106.518 34.3101 108.54 35.2688 110.158 37.1882C111.78 39.1098 112.589 41.6363 112.589 44.7696ZM107.941 44.937C107.941 42.9338 107.492 41.2824 106.589 39.9827C105.602 38.6273 104.277 37.9495 102.617 37.9495C101.491 37.9495 100.468 38.327 99.5546 39.0713C98.6387 39.8219 98.0395 40.802 97.7591 42.0159C97.618 42.5821 97.5473 43.0453 97.5473 43.41V46.8415C97.5473 48.3384 98.0052 49.6016 98.9211 50.6333C99.837 51.6649 101.027 52.1796 102.491 52.1796C104.209 52.1796 105.546 51.5147 106.503 50.1893C107.462 48.8617 107.941 47.1116 107.941 44.937Z" fill="black"/>
<path d="M136.206 44.7696C136.206 48.2697 135.263 51.0365 133.373 53.0674C131.685 54.8754 129.585 55.7783 127.08 55.7783C124.375 55.7783 122.431 54.8047 121.25 52.8573H121.165V63.6987H116.602V41.5077C116.602 39.3072 116.544 37.0488 116.433 34.7325H120.446L120.7 37.9946H120.786C122.305 35.5369 124.614 34.3101 127.715 34.3101C130.135 34.3101 132.158 35.2688 133.78 37.1882C135.395 39.1098 136.206 41.6363 136.206 44.7696ZM131.559 44.937C131.559 42.9338 131.107 41.2824 130.204 39.9827C129.217 38.6273 127.897 37.9495 126.234 37.9495C125.107 37.9495 124.086 38.327 123.17 39.0713C122.254 39.8219 121.657 40.802 121.376 42.0159C121.237 42.5821 121.165 43.0453 121.165 43.41V46.8415C121.165 48.3384 121.623 49.6016 122.534 50.6333C123.45 51.6627 124.64 52.1796 126.108 52.1796C127.826 52.1796 129.164 51.5147 130.12 50.1893C131.079 48.8617 131.559 47.1116 131.559 44.937Z" fill="black"/>
<path d="M162.607 47.3093C162.607 49.7371 161.766 51.7124 160.077 53.2372C158.222 54.9037 155.639 55.7358 152.32 55.7358C149.255 55.7358 146.799 55.1439 144.939 53.9579L145.996 50.1467C147.999 51.3607 150.198 51.9698 152.592 51.9698C154.31 51.9698 155.647 51.5794 156.609 50.8031C157.565 50.0266 158.043 48.9844 158.043 47.6846C158.043 46.5265 157.648 45.5507 156.859 44.7593C156.073 43.9679 154.762 43.2323 152.929 42.5524C147.943 40.6887 145.453 37.9585 145.453 34.3683C145.453 32.0221 146.325 30.0982 148.074 28.6013C149.817 27.1021 152.14 26.3537 155.047 26.3537C157.637 26.3537 159.791 26.8062 161.509 27.7091L160.369 31.4365C158.763 30.5615 156.948 30.124 154.918 30.124C153.313 30.124 152.059 30.5208 151.161 31.31C150.4 32.0157 150.02 32.8756 150.02 33.8944C150.02 35.0224 150.454 35.9553 151.327 36.6889C152.087 37.3666 153.466 38.1 155.47 38.8914C157.921 39.8802 159.72 41.0361 160.877 42.3616C162.032 43.6827 162.607 45.3362 162.607 47.3093Z" fill="black"/>
<path d="M177.701 38.1632H172.673V48.1552C172.673 50.6967 173.559 51.9664 175.335 51.9664C176.151 51.9664 176.827 51.8956 177.362 51.7541L177.488 55.2263C176.589 55.563 175.405 55.7324 173.94 55.7324C172.138 55.7324 170.73 55.1812 169.714 54.0811C168.701 52.9787 168.192 51.13 168.192 48.5327V38.159H165.196V34.7275H168.192V30.9593L172.673 29.6038V34.7275H177.701V38.1632Z" fill="black"/>
<path d="M200.393 44.8541C200.393 48.0176 199.489 50.6147 197.687 52.6457C195.797 54.7367 193.29 55.7791 190.163 55.7791C187.149 55.7791 184.751 54.7776 182.962 52.7744C181.172 50.7713 180.278 48.2427 180.278 45.1952C180.278 42.0059 181.198 39.3938 183.045 37.3628C184.888 35.3296 187.375 34.313 190.501 34.313C193.515 34.313 195.938 35.3145 197.768 37.3199C199.519 39.2651 200.393 41.7765 200.393 44.8541ZM195.658 45.0021C195.658 43.104 195.253 41.4762 194.434 40.1186C193.478 38.4758 192.111 37.6565 190.338 37.6565C188.504 37.6565 187.111 38.478 186.155 40.1186C185.335 41.4784 184.93 43.1319 184.93 45.0879C184.93 46.9859 185.335 48.6137 186.155 49.9692C187.141 51.612 188.519 52.4312 190.297 52.4312C192.039 52.4312 193.408 51.5949 194.394 49.9263C195.234 48.5429 195.658 46.898 195.658 45.0021Z" fill="black"/>
<path d="M215.217 38.7539C214.766 38.6702 214.284 38.6273 213.779 38.6273C212.174 38.6273 210.933 39.2343 210.06 40.4503C209.301 41.5226 208.92 42.8781 208.92 44.5144V55.3129H204.358L204.402 41.2138C204.402 38.8417 204.344 36.6821 204.231 34.7347H208.205L208.372 38.6723H208.498C208.979 37.3191 209.739 36.2296 210.779 35.4124C211.795 34.6768 212.894 34.3101 214.077 34.3101C214.498 34.3101 214.879 34.3401 215.217 34.3937V38.7539Z" fill="black"/>
<path d="M235.622 44.0495C235.622 44.8687 235.569 45.5594 235.455 46.1234H221.768C221.821 48.1566 222.482 49.7115 223.754 50.7838C224.907 51.7425 226.399 52.2229 228.23 52.2229C230.257 52.2229 232.106 51.8991 233.769 51.2493L234.484 54.4234C232.54 55.2727 230.247 55.6951 227.599 55.6951C224.414 55.6951 221.915 54.7558 220.096 52.8792C218.281 51.0025 217.372 48.4826 217.372 45.3214C217.372 42.2179 218.217 39.6337 219.91 37.5726C221.681 35.3721 224.077 34.272 227.089 34.272C230.05 34.272 232.289 35.3721 233.811 37.5726C235.017 39.3205 235.622 41.4823 235.622 44.0495ZM231.271 42.8635C231.302 41.5081 231.003 40.3371 230.385 39.3484C229.595 38.0766 228.382 37.4417 226.75 37.4417C225.258 37.4417 224.044 38.0616 223.118 39.3055C222.358 40.2942 221.906 41.4801 221.768 42.8613H231.271V42.8635Z" fill="black"/>
<path d="M79.1765 9.21259C79.1765 11.7369 78.4211 13.6371 76.9124 14.9132C75.515 16.0906 73.5291 16.6804 70.9568 16.6804C69.6815 16.6804 68.59 16.6246 67.6763 16.513V2.72063C68.8682 2.52761 70.1522 2.42896 71.5389 2.42896C73.9893 2.42896 75.836 2.96299 77.0814 4.03104C78.4768 5.23849 79.1765 6.96496 79.1765 9.21259ZM76.8118 9.27478C76.8118 7.63839 76.3795 6.38375 75.515 5.50872C74.6505 4.63584 73.3879 4.19832 71.7252 4.19832C71.0189 4.19832 70.4175 4.24551 69.9189 4.34416V14.8296C70.1951 14.8724 70.7001 14.8916 71.4341 14.8916C73.1504 14.8916 74.475 14.4134 75.408 13.4569C76.341 12.5004 76.8118 11.1063 76.8118 9.27478Z" fill="black"/>
<path d="M91.7191 11.4177C91.7191 12.9726 91.2762 14.2465 90.3902 15.2459C89.4614 16.2733 88.2309 16.7858 86.6944 16.7858C85.2135 16.7858 84.0345 16.2947 83.1549 15.3081C82.2775 14.3237 81.8389 13.0819 81.8389 11.585C81.8389 10.0193 82.2904 8.73469 83.1978 7.7374C84.105 6.74013 85.3249 6.24042 86.8613 6.24042C88.3422 6.24042 89.5321 6.73156 90.4329 7.71596C91.2889 8.67249 91.7191 9.90782 91.7191 11.4177ZM89.3929 11.4906C89.3929 10.5577 89.1918 9.75769 88.7916 9.09071C88.3209 8.28431 87.651 7.88111 86.7801 7.88111C85.8791 7.88111 85.1943 8.28431 84.7235 9.09071C84.3212 9.75769 84.1222 10.5705 84.1222 11.5314C84.1222 12.4643 84.3234 13.2643 84.7235 13.9313C85.2093 14.7377 85.8855 15.1409 86.7587 15.1409C87.6146 15.1409 88.2866 14.7311 88.7702 13.9098C89.1854 13.2299 89.3929 12.4235 89.3929 11.4906Z" fill="black"/>
<path d="M108.524 6.44537L105.368 16.5554H103.313L102.006 12.1652C101.674 11.0693 101.405 9.97981 101.195 8.89889H101.154C100.959 10.0098 100.69 11.0972 100.343 12.1652L98.9543 16.5554H96.8764L93.9082 6.44537H96.213L97.3535 11.2516C97.6297 12.3883 97.8565 13.4713 98.0383 14.4965H98.079C98.246 13.6514 98.522 12.5749 98.9115 11.273L100.343 6.44751H102.171L103.542 11.1701C103.874 12.3218 104.144 13.4306 104.351 14.4987H104.413C104.565 13.4585 104.794 12.3497 105.098 11.1701L106.322 6.44751H108.524V6.44537Z" fill="black"/>
<path d="M120.152 16.5572H117.909V10.7666C117.909 8.98219 117.233 8.09001 115.877 8.09001C115.211 8.09001 114.674 8.3345 114.257 8.82564C113.844 9.31676 113.634 9.89583 113.634 10.5585V16.555H111.391V9.33607C111.391 8.44817 111.363 7.48521 111.31 6.44289H113.281L113.386 8.02353H113.448C113.709 7.53239 114.098 7.12705 114.61 6.8032C115.217 6.42573 115.898 6.23486 116.643 6.23486C117.584 6.23486 118.367 6.53941 118.99 7.15063C119.765 7.89914 120.152 9.01651 120.152 10.5006V16.5572Z" fill="black"/>
<path d="M126.336 16.556H124.096V1.80701H126.336V16.556Z" fill="black"/>
<path d="M139.54 11.4177C139.54 12.9726 139.096 14.2465 138.211 15.2459C137.281 16.2733 136.049 16.7858 134.515 16.7858C133.032 16.7858 131.853 16.2947 130.975 15.3081C130.098 14.3237 129.659 13.0819 129.659 11.585C129.659 10.0193 130.111 8.73469 131.018 7.7374C131.925 6.74013 133.145 6.24042 134.68 6.24042C136.162 6.24042 137.351 6.73156 138.254 7.71596C139.11 8.67249 139.54 9.90782 139.54 11.4177ZM137.211 11.4906C137.211 10.5577 137.01 9.75769 136.61 9.09071C136.141 8.28431 135.469 7.88111 134.6 7.88111C133.697 7.88111 133.013 8.28431 132.544 9.09071C132.142 9.75769 131.943 10.5705 131.943 11.5314C131.943 12.4643 132.144 13.2643 132.544 13.9313C133.03 14.7377 133.706 15.1409 134.579 15.1409C135.435 15.1409 136.104 14.7311 136.588 13.9098C137.006 13.2299 137.211 12.4235 137.211 11.4906Z" fill="black"/>
<path d="M150.4 16.5564H148.386L148.219 15.3917H148.157C147.468 16.3204 146.486 16.7858 145.211 16.7858C144.258 16.7858 143.488 16.4792 142.908 15.8701C142.381 15.3167 142.118 14.6282 142.118 13.8112C142.118 12.5758 142.632 11.6343 143.666 10.9823C144.697 10.3303 146.148 10.0108 148.015 10.0258V9.83705C148.015 8.5052 147.318 7.84036 145.921 7.84036C144.926 7.84036 144.048 8.09128 143.29 8.58885L142.834 7.11331C143.772 6.53209 144.93 6.24042 146.296 6.24042C148.932 6.24042 150.255 7.63446 150.255 10.4225V14.1458C150.255 15.1559 150.304 15.9601 150.4 16.5564ZM148.071 13.0819V11.5228C145.597 11.4799 144.36 12.1597 144.36 13.5602C144.36 14.0877 144.503 14.4824 144.791 14.7463C145.08 15.01 145.448 15.1409 145.886 15.1409C146.378 15.1409 146.838 14.9843 147.259 14.6733C147.68 14.3602 147.938 13.9634 148.034 13.4766C148.059 13.3672 148.071 13.2342 148.071 13.0819Z" fill="black"/>
<path d="M163.14 16.556H161.15L161.045 14.9324H160.983C160.347 16.1677 159.265 16.7854 157.743 16.7854C156.528 16.7854 155.516 16.3072 154.713 15.3507C153.91 14.3941 153.51 13.1524 153.51 11.6275C153.51 9.99111 153.944 8.66568 154.817 7.65341C155.662 6.70975 156.698 6.23792 157.931 6.23792C159.286 6.23792 160.234 6.69473 160.773 7.61051H160.816V1.80701H163.061V13.8323C163.061 14.8167 163.087 15.7238 163.14 16.556ZM160.816 12.2923V10.6066C160.816 10.3149 160.795 10.079 160.754 9.89888C160.628 9.35842 160.355 8.90375 159.943 8.53702C159.525 8.17027 159.022 7.98583 158.443 7.98583C157.606 7.98583 156.951 8.31826 156.469 8.98525C155.992 9.65225 155.75 10.5037 155.75 11.5439C155.75 12.5433 155.98 13.354 156.439 13.9781C156.925 14.6429 157.58 14.9753 158.399 14.9753C159.136 14.9753 159.724 14.6986 160.172 14.1432C160.603 13.6306 160.816 13.013 160.816 12.2923Z" fill="black"/>
<path d="M182.315 11.4177C182.315 12.9726 181.872 14.2465 180.986 15.2459C180.057 16.2733 178.83 16.7858 177.29 16.7858C175.812 16.7858 174.633 16.2947 173.752 15.3081C172.874 14.3237 172.435 13.0819 172.435 11.585C172.435 10.0193 172.886 8.73469 173.794 7.7374C174.701 6.74013 175.922 6.24042 177.46 6.24042C178.938 6.24042 180.13 6.73156 181.03 7.71596C181.885 8.67249 182.315 9.90782 182.315 11.4177ZM179.992 11.4906C179.992 10.5577 179.79 9.75769 179.39 9.09071C178.916 8.28431 178.249 7.88111 177.376 7.88111C176.478 7.88111 175.793 8.28431 175.319 9.09071C174.918 9.75769 174.719 10.5705 174.719 11.5314C174.719 12.4643 174.919 13.2643 175.319 13.9313C175.805 14.7377 176.482 15.1409 177.355 15.1409C178.211 15.1409 178.885 14.7311 179.368 13.9098C179.782 13.2299 179.992 12.4235 179.992 11.4906Z" fill="black"/>
<path d="M194.372 16.5572H192.131V10.7666C192.131 8.98219 191.454 8.09001 190.095 8.09001C189.431 8.09001 188.894 8.3345 188.479 8.82564C188.064 9.31676 187.856 9.89583 187.856 10.5585V16.555H185.61V9.33607C185.61 8.44817 185.584 7.48521 185.531 6.44289H187.501L187.605 8.02353H187.667C187.931 7.53239 188.32 7.12705 188.828 6.8032C189.439 6.42573 190.117 6.23486 190.864 6.23486C191.804 6.23486 192.587 6.53941 193.209 7.15063C193.987 7.89914 194.372 9.01651 194.372 10.5006V16.5572Z" fill="black"/>
<path d="M209.472 8.1305H207.002V13.0418C207.002 14.29 207.441 14.9141 208.309 14.9141C208.712 14.9141 209.046 14.8798 209.309 14.809L209.367 16.5141C208.924 16.6813 208.342 16.7649 207.624 16.7649C206.739 16.7649 206.05 16.4948 205.552 15.9543C205.05 15.4138 204.802 14.5045 204.802 13.2284V8.1305H203.328V6.44693H204.802V4.59393L207.001 3.92908V6.44478H209.469V8.1305H209.472Z" fill="black"/>
<path d="M221.342 16.556H219.098V10.8082C219.098 8.99598 218.422 8.08877 217.067 8.08877C216.027 8.08877 215.316 8.61422 214.927 9.66512C214.86 9.88601 214.822 10.1562 214.822 10.4737V16.5538H212.582V1.80701H214.822V7.90004H214.864C215.571 6.79125 216.583 6.23792 217.896 6.23792C218.824 6.23792 219.593 6.54246 220.202 7.15369C220.961 7.91504 221.342 9.04745 221.342 10.5444V16.556Z" fill="black"/>
<path d="M233.591 11.0212C233.591 11.4244 233.561 11.7633 233.508 12.04H226.782C226.812 13.0394 227.132 13.8007 227.756 14.3283C228.324 14.8002 229.058 15.036 229.957 15.036C230.953 15.036 231.86 14.8774 232.677 14.5578L233.028 16.1191C232.072 16.5353 230.946 16.7432 229.643 16.7432C228.08 16.7432 226.85 16.2821 225.96 15.36C225.065 14.4377 224.623 13.2002 224.623 11.6475C224.623 10.1226 225.035 8.85297 225.868 7.84068C226.738 6.75976 227.912 6.2193 229.395 6.2193C230.846 6.2193 231.947 6.75976 232.693 7.84068C233.294 8.69855 233.591 9.76017 233.591 11.0212ZM231.451 10.44C231.468 9.77304 231.321 9.19827 231.017 8.71357C230.627 8.08946 230.035 7.77634 229.232 7.77634C228.501 7.77634 227.903 8.08088 227.447 8.69212C227.075 9.17896 226.854 9.76017 226.782 10.44H231.451Z" fill="black"/>
</svg>
