<svg width="266" height="65" viewBox="0 0 266 65" fill="none" xmlns="http://www.w3.org/2000/svg">
<path d="M222.645 55.4204H226.929V26.0353H222.645V55.4204ZM261.235 36.6212L256.324 49.3604H256.177L251.08 36.6212H246.464L254.11 54.4261L249.75 64.3307H254.218L266 36.6221L261.235 36.6212ZM236.936 52.0826C235.536 52.0826 233.577 51.3636 233.577 49.5871C233.577 47.3192 236.015 46.4497 238.119 46.4497C240.001 46.4497 240.89 46.8647 242.034 47.4321C241.701 50.1543 239.411 52.0826 236.936 52.0826ZM237.455 35.9786C234.353 35.9786 231.141 37.3777 229.811 40.4774L233.613 42.1026C234.427 40.4774 235.939 39.9487 237.528 39.9487C239.745 39.9487 241.996 41.3084 242.034 43.7287V44.0307C241.257 43.5771 239.595 42.8969 237.565 42.8969C233.464 42.8969 229.293 45.2021 229.293 49.5117C229.293 53.4433 232.654 55.9763 236.419 55.9763C239.299 55.9763 240.89 54.6532 241.884 53.1028H242.034V55.3722H246.171V44.1058C246.171 38.889 242.364 35.9786 237.455 35.9786ZM210.976 40.1982H204.881V30.1266H210.976C214.179 30.1266 215.997 32.8406 215.997 35.1623C215.997 37.4395 214.179 40.1982 210.976 40.1982ZM210.865 26.036H200.6V55.421H204.881V44.2888H210.865C215.614 44.2888 220.281 40.7705 220.281 35.1633C220.281 29.5573 215.614 26.036 210.865 26.036ZM154.884 52.0875C151.924 52.0875 149.447 49.5496 149.447 46.0674C149.447 42.5445 151.924 39.9708 154.884 39.9708C157.806 39.9708 160.1 42.5447 160.1 46.0674C160.1 49.5496 157.806 52.0875 154.884 52.0875ZM159.804 38.2662H159.656C158.694 37.0926 156.844 36.0323 154.514 36.0323C149.632 36.0323 145.155 40.4255 145.155 46.0674C145.155 51.6707 149.632 56.0254 154.514 56.0254C156.844 56.0254 158.694 54.9648 159.656 53.7539H159.804V55.1916C159.804 59.0176 157.806 61.0614 154.589 61.0614C151.963 61.0614 150.335 59.1304 149.668 57.5024L145.934 59.0927C147.005 61.7422 149.853 65 154.589 65C159.621 65 163.875 61.9699 163.875 54.5856V36.6379H159.804V38.2662ZM166.834 55.4195H171.124V26.0344H166.834V55.4195ZM177.449 45.7259C177.339 41.8632 180.372 39.8947 182.554 39.8947C184.257 39.8947 185.697 40.7661 186.18 42.0147L177.449 45.7259ZM190.766 42.393C189.953 40.1602 187.474 36.0323 182.407 36.0323C177.374 36.0323 173.195 40.0839 173.195 46.0289C173.195 51.6333 177.339 56.0256 182.886 56.0256C187.362 56.0256 189.953 53.2244 191.025 51.5955L187.697 49.3232C186.586 50.9896 185.07 52.0877 182.886 52.0877C180.706 52.0877 179.151 51.065 178.153 49.058L191.21 43.5299L190.766 42.393ZM86.7342 39.0997V43.3405H96.6476C96.3516 45.7261 95.5748 47.4676 94.3909 48.6796C92.9478 50.1558 90.6913 51.7846 86.7341 51.7846C80.6303 51.7846 75.8588 46.7486 75.8588 40.5007C75.8588 34.2528 80.6303 29.2163 86.7341 29.2163C90.0264 29.2163 92.4303 30.5418 94.2059 32.2459L97.1291 29.2537C94.6499 26.8307 91.3583 24.9753 86.7341 24.9753C78.3729 24.9753 71.3447 31.9428 71.3447 40.5007C71.3447 49.0579 78.3729 56.0256 86.7341 56.0256C91.2463 56.0256 94.6501 54.5107 97.313 51.671C100.05 48.8687 100.902 44.9308 100.902 41.7495C100.902 40.7662 100.827 39.8574 100.679 39.0997H86.7342ZM112.173 52.0875C109.213 52.0875 106.661 49.5883 106.661 46.0289C106.661 42.4317 109.213 39.9711 112.173 39.9711C115.132 39.9711 117.685 42.4317 117.685 46.0289C117.685 49.5883 115.132 52.0875 112.173 52.0875ZM112.173 36.0323C106.771 36.0323 102.37 40.2352 102.37 46.0289C102.37 51.7846 106.771 56.0256 112.173 56.0256C117.574 56.0256 121.976 51.7846 121.976 46.0289C121.976 40.2352 117.574 36.0323 112.173 36.0323ZM133.557 52.0875C130.599 52.0875 128.046 49.5883 128.046 46.0289C128.046 42.4317 130.599 39.9711 133.557 39.9711C136.517 39.9711 139.069 42.4317 139.069 46.0289C139.069 49.5883 136.517 52.0875 133.557 52.0875ZM133.557 36.0323C128.157 36.0323 123.755 40.2352 123.755 46.0289C123.755 51.7846 128.157 56.0256 133.557 56.0256C138.959 56.0256 143.36 51.7846 143.36 46.0289C143.36 40.2352 138.959 36.0323 133.557 36.0323Z" fill="black"/>
<path d="M24.674 30.5627L0.230225 57.1219C0.231144 57.1274 0.232979 57.1319 0.233841 57.1375C0.983516 60.0217 3.55684 62.1451 6.61084 62.1451C7.83169 62.1451 8.97789 61.8073 9.96088 61.2142L10.0389 61.1674L37.5549 44.9138L24.674 30.5627Z" fill="#EB3131"/>
<path d="M49.4076 26.042L49.3842 26.0256L37.5048 18.976L24.1208 31.1672L37.5512 44.9134L49.368 37.9338C51.4397 36.789 52.8462 34.5532 52.8462 31.9751C52.8462 29.4154 51.4589 27.1906 49.4076 26.042Z" fill="#F6B60B"/>
<path d="M0.224183 6.71411C0.0772348 7.26882 0 7.84984 0 8.4532V55.3858C0 55.988 0.0763238 56.571 0.225115 57.1238L25.5127 31.2432L0.224183 6.71411Z" fill="#5778C5"/>
<path d="M24.8507 31.9179L37.5036 18.9694L10.0186 2.65701C9.01959 2.04449 7.85358 1.69098 6.60591 1.69098C3.5519 1.69098 0.975095 3.81839 0.225285 6.70578C0.224365 6.7086 0.224365 6.71054 0.224365 6.713L24.8507 31.9179Z" fill="#3BAD49"/>
<path d="M85.9301 7.89676H79.232V9.59352H84.2513C84.1149 10.9782 83.5767 12.0652 82.669 12.8548C81.7614 13.6446 80.6025 14.0411 79.232 14.0411C77.7287 14.0411 76.4552 13.5049 75.4113 12.44C74.3886 11.3529 73.8686 10.0087 73.8686 8.38912C73.8686 6.76967 74.3886 5.4254 75.4113 4.33841C76.4552 3.27343 77.7288 2.74084 79.232 2.74084C80.0035 2.74084 80.739 2.87671 81.4133 3.17425C82.0878 3.47157 82.6295 3.88666 83.053 4.41928L84.3265 3.1155C83.7489 2.44328 83.017 1.92924 82.1092 1.5546C81.2015 1.17993 80.2544 1.00012 79.2319 1.00012C77.2265 1.00012 75.5259 1.71253 74.1374 3.13388C72.7491 4.55871 72.053 6.31426 72.053 8.38915C72.053 10.464 72.7489 12.2234 74.1374 13.6448C75.5259 15.0659 77.2265 15.7785 79.2319 15.7785C81.3379 15.7785 83.0169 15.088 84.3085 13.685C85.4458 12.5173 86.0269 10.9381 86.0269 8.96226C86.0269 8.62801 85.9876 8.27141 85.9301 7.89676ZM88.5251 1.31566V15.4624H96.5935V13.7252H90.3008V9.23752H95.9767V7.54076H90.3008V3.05656H96.5935V1.31561L88.5251 1.31566ZM107.907 3.05662V1.31566H98.4109V3.05662H102.271V15.4624H104.047V3.05662H107.907ZM116.505 1.31566H114.729V15.4624H116.505V1.31566ZM128.227 3.05662V1.31566H118.73V3.05662H122.591V15.4624H124.366V3.05662H128.227ZM146.148 3.15581C144.777 1.71243 143.098 1 141.092 1C139.083 1 137.404 1.71241 136.034 3.13376C134.663 4.53673 133.989 6.2958 133.989 8.38903C133.989 10.4822 134.663 12.2416 136.034 13.6446C137.404 15.0657 139.083 15.7785 141.092 15.7785C143.08 15.7785 144.777 15.0657 146.148 13.6446C147.517 12.2417 148.192 10.4824 148.192 8.38903C148.192 6.31414 147.517 4.5585 146.148 3.15581ZM137.307 4.33829C138.33 3.27331 139.586 2.74072 141.092 2.74072C142.595 2.74072 143.851 3.27333 144.855 4.33829C145.878 5.38494 146.381 6.75094 146.381 8.38898C146.381 10.0308 145.878 11.3931 144.855 12.4399C143.851 13.5048 142.595 14.041 141.092 14.041C139.586 14.041 138.33 13.5048 137.307 12.4399C136.306 11.3711 135.804 10.0307 135.804 8.38898C135.804 6.75097 136.306 5.40694 137.307 4.33829ZM152.411 6.65204L152.336 3.92313H152.411L159.436 15.4622H161.29V1.31552H159.515V9.59337L159.59 12.3223H159.515L152.798 1.31552H150.636V15.4622H152.411V6.65204Z" fill="black" stroke="black" stroke-width="0.315548" stroke-miterlimit="10"/>
</svg>
