<svg width="916" height="1465" viewBox="0 0 916 1465" fill="none" xmlns="http://www.w3.org/2000/svg">
<path d="M467.184 1464.48C540.612 1471.34 602.025 1384.98 667.852 1330.17C742.328 1268.17 833.614 1239.38 878.366 1122.14C924.62 1000.97 918.82 844.948 907.452 702.474C895.997 558.929 864.526 423.788 813.318 306.971C758.925 182.889 694.838 58.3724 606.413 15.7338C518.126 -26.8378 425.069 24.7402 338.932 78.2245C257.452 128.817 183.74 205.546 125.947 314.064C67.6027 423.617 23.0062 553.389 8.79816 698.121C-5.57784 844.562 -7.95118 1011.84 45.8586 1129.88C98.2924 1244.9 202.289 1231.92 280.432 1293.98C345.824 1345.91 394.899 1457.73 467.184 1464.48Z" fill="#113255"/>
</svg>
