<svg width="1106" height="1735" viewBox="0 0 1106 1735" fill="none" xmlns="http://www.w3.org/2000/svg">
<path d="M574.837 1733.37C662.8 1725.64 741.013 1661.5 821.354 1601.14C915.663 1530.29 1036.47 1501.96 1085.44 1349.76C1134.49 1197.31 1078.4 1013.84 1065.59 842.069C1052.49 666.51 1066.48 479.611 1009.41 330.611C948.646 171.961 855.679 16.1235 743.352 0.756725C631.631 -14.5268 559.203 206.221 450.845 254.196C337.637 304.319 183.528 134.26 107.036 282.485C30.4757 430.841 157.986 661.898 140.477 855.62C122.757 1051.68 -33.6656 1207.24 6.59925 1393.75C45.8419 1575.52 202.229 1580.87 311.096 1645.94C397.234 1697.42 483.485 1741.39 574.837 1733.37Z" fill="#0B2239"/>
</svg>
